GeoramaCondensed-ExtraLight.ufo
<glyph name="exclam" format="2">
  <advance width="143.652"/>
  <unicode hex="0021"/>
  <outline>
    <contour>
      <point x="55.391000000000005" y="263.55" type="line"/>
      <point x="88.16199999999999" y="263.55" type="line"/>
      <point x="89.63799999999999" y="740.0" type="line"/>
      <point x="54.158" y="740.0" type="line"/>
    </contour>
    <contour>
      <point x="49.813" y="25.064" type="curve" smooth="yes"/>
      <point x="49.813" y="3.511"/>
      <point x="53.486999999999995" y="-0.9089999999999999"/>
      <point x="71.826" y="-0.9089999999999999" type="curve" smooth="yes"/>
      <point x="91.07499999999999" y="-0.9089999999999999"/>
      <point x="93.83900000000001" y="3.511"/>
      <point x="93.83900000000001" y="25.064" type="curve" smooth="yes"/>
      <point x="93.83900000000001" y="46.706999999999994"/>
      <point x="91.07499999999999" y="51.126999999999995"/>
      <point x="71.826" y="51.126999999999995" type="curve" smooth="yes"/>
      <point x="52.577" y="51.126999999999995"/>
      <point x="49.813" y="46.706999999999994"/>
    </contour>
  </outline>
</glyph>
<glyph name="numbersign" format="2">
  <advance width="342.314"/>
  <unicode hex="0023"/>
  <outline>
    <contour>
      <point x="46.358000000000004" y="474.07300000000004" type="line"/>
      <point x="109.53399999999999" y="474.07300000000004" type="line"/>
      <point x="76.007" y="224.308" type="line"/>
      <point x="19.105999999999998" y="224.308" type="line"/>
      <point x="19.105999999999998" y="191.953" type="line"/>
      <point x="72.833" y="191.953" type="line"/>
      <point x="47.617000000000004" y="0.0" type="line"/>
      <point x="78.732" y="0.0" type="line"/>
      <point x="103.94800000000001" y="191.953" type="line"/>
      <point x="198.954" y="191.953" type="line"/>
      <point x="173.738" y="0.0" type="line"/>
      <point x="204.853" y="0.0" type="line"/>
      <point x="230.06900000000002" y="191.953" type="line"/>
      <point x="295.965" y="191.953" type="line"/>
      <point x="295.965" y="224.308" type="line"/>
      <point x="233.243" y="224.308" type="line"/>
      <point x="266.77" y="474.07300000000004" type="line"/>
      <point x="323.217" y="474.07300000000004" type="line"/>
      <point x="323.217" y="506.572" type="line"/>
      <point x="270.663" y="506.572" type="line"/>
      <point x="296.497" y="700.0" type="line"/>
      <point x="265.382" y="700.0" type="line"/>
      <point x="239.54800000000003" y="506.572" type="line"/>
      <point x="144.542" y="506.572" type="line"/>
      <point x="170.376" y="700.0" type="line"/>
      <point x="139.261" y="700.0" type="line"/>
      <point x="113.427" y="506.572" type="line"/>
      <point x="46.358000000000004" y="506.572" type="line"/>
    </contour>
    <contour>
      <point x="140.649" y="474.07300000000004" type="line"/>
      <point x="235.655" y="474.07300000000004" type="line"/>
      <point x="202.12800000000001" y="224.308" type="line"/>
      <point x="107.12199999999999" y="224.308" type="line"/>
    </contour>
  </outline>
</glyph>
<glyph name="dollar" format="2">
  <advance width="342.314"/>
  <unicode hex="0024"/>
  <outline>
    <contour>
      <point x="152.341" y="-10.0" type="curve" smooth="yes"/>
      <point x="239.129" y="-10.108"/>
      <point x="294.831" y="43.85"/>
      <point x="294.831" y="136.646" type="curve" smooth="yes"/>
      <point x="294.831" y="234.54"/>
      <point x="250.306" y="298.58299999999997"/>
      <point x="189.859" y="360.737" type="curve" smooth="yes"/>
      <point x="133.199" y="420.262"/>
      <point x="92.123" y="481.327"/>
      <point x="92.123" y="565.483" type="curve" smooth="yes"/>
      <point x="92.123" y="634.528"/>
      <point x="126.857" y="677.4000000000001"/>
      <point x="185.543" y="677.4000000000001" type="curve" smooth="yes"/>
      <point x="214.118" y="677.4000000000001"/>
      <point x="241.671" y="670.674"/>
      <point x="264.29" y="661.025" type="curve"/>
      <point x="274.55600000000004" y="690.808" type="line"/>
      <point x="249.627" y="702.645"/>
      <point x="214.36700000000002" y="710.0"/>
      <point x="182.14" y="710.0" type="curve" smooth="yes"/>
      <point x="104.399" y="709.818"/>
      <point x="57.074" y="654.224"/>
      <point x="57.074" y="565.1769999999999" type="curve" smooth="yes"/>
      <point x="57.074" y="468.235"/>
      <point x="101.761" y="400.68600000000004"/>
      <point x="161.381" y="337.6050000000001" type="curve" smooth="yes"/>
      <point x="219.05699999999996" y="276.334"/>
      <point x="260.134" y="216.398"/>
      <point x="260.134" y="133.352" type="curve" smooth="yes"/>
      <point x="260.134" y="66.346"/>
      <point x="221.60100000000003" y="22.861"/>
      <point x="156.43400000000003" y="22.861" type="curve" smooth="yes"/>
      <point x="123.271" y="22.861"/>
      <point x="86.869" y="29.910999999999998"/>
      <point x="56.903" y="42.819" type="curve"/>
      <point x="47.501" y="11.659" type="line"/>
      <point x="76.398" y="-1.5019999999999998"/>
      <point x="117.409" y="-9.964"/>
    </contour>
    <contour>
      <point x="160.649" y="-105.0" type="line"/>
      <point x="193.70799999999997" y="-105.0" type="line"/>
      <point x="193.70799999999997" y="2.425" type="line"/>
      <point x="160.649" y="-2.696" type="line"/>
    </contour>
    <contour>
      <point x="160.649" y="700.644" type="line"/>
      <point x="193.70799999999997" y="703.596" type="line"/>
      <point x="193.70799999999997" y="804.8380000000001" type="line"/>
      <point x="160.649" y="804.8380000000001" type="line"/>
    </contour>
  </outline>
</glyph>
<glyph name="ampersand" format="2">
  <advance width="421.861"/>
  <unicode hex="0026"/>
  <outline>
    <contour>
      <point x="381.759" y="-13.896" type="line"/>
      <point x="415.79800000000006" y="-3.3569999999999993" type="line"/>
      <point x="145.72799999999998" y="405.53100000000006" type="line" smooth="yes"/>
      <point x="111.27900000000001" y="460.937"/>
      <point x="99.54099999999998" y="507.59700000000004"/>
      <point x="99.54099999999998" y="553.3809999999999" type="curve" smooth="yes"/>
      <point x="99.54099999999998" y="635.0889999999999"/>
      <point x="131.193" y="676.23"/>
      <point x="188.38899999999998" y="676.23" type="curve" smooth="yes"/>
      <point x="243.93699999999998" y="676.23"/>
      <point x="270.695" y="633.052"/>
      <point x="270.695" y="560.428" type="curve" smooth="yes"/>
      <point x="270.695" y="507.462"/>
      <point x="260.267" y="465.075"/>
      <point x="227.988" y="434.84600000000006" type="curve"/>
      <point x="247.189" y="415.91799999999995" type="line"/>
      <point x="287.91799999999995" y="453.378"/>
      <point x="303.25000000000006" y="503.88899999999995"/>
      <point x="303.25000000000006" y="565.848" type="curve" smooth="yes"/>
      <point x="303.25000000000006" y="657.7090000000001"/>
      <point x="263.804" y="710.0"/>
      <point x="188.07399999999998" y="710.0" type="curve" smooth="yes"/>
      <point x="107.06" y="710.0"/>
      <point x="64.51100000000001" y="657.2420000000001"/>
      <point x="64.51100000000001" y="553.8309999999999" type="curve" smooth="yes"/>
      <point x="64.51100000000001" y="501.849"/>
      <point x="80.85800000000002" y="444.455"/>
      <point x="118.932" y="382.236" type="curve" smooth="yes"/>
    </contour>
    <contour>
      <point x="182.47600000000003" y="-10.0" type="curve" smooth="yes"/>
      <point x="247.62699999999998" y="-10.0"/>
      <point x="293.791" y="23.432999999999996"/>
      <point x="323.87899999999996" y="87.159" type="curve"/>
      <point x="306.86999999999995" y="115.392" type="line"/>
      <point x="279.178" y="54.58"/>
      <point x="246.277" y="22.33"/>
      <point x="184.59099999999998" y="22.33" type="curve" smooth="yes"/>
      <point x="107.03" y="22.33"/>
      <point x="60.74" y="88.907"/>
      <point x="60.74" y="179.568" type="curve" smooth="yes"/>
      <point x="60.74" y="266.591"/>
      <point x="84.73400000000001" y="317.34299999999996"/>
      <point x="140.798" y="373.203" type="curve"/>
      <point x="125.84700000000002" y="397.955" type="line"/>
      <point x="56.912000000000006" y="342.03999999999996"/>
      <point x="26.834999999999997" y="276.381"/>
      <point x="26.834999999999997" y="177.633" type="curve" smooth="yes"/>
      <point x="26.834999999999997" y="67.67199999999998"/>
      <point x="83.797" y="-10.0"/>
    </contour>
    <contour>
      <point x="337.812" y="103.97800000000001" type="line"/>
      <point x="361.966" y="161.356"/>
      <point x="376.136" y="235.442"/>
      <point x="376.136" y="315.58899999999994" type="curve" smooth="yes"/>
      <point x="376.136" y="339.065"/>
      <point x="374.845" y="356.45399999999995"/>
      <point x="371.43500000000006" y="374.91700000000003" type="curve"/>
      <point x="341.185" y="371.90400000000005" type="line"/>
      <point x="344.46000000000004" y="354.206"/>
      <point x="345.624" y="338.619"/>
      <point x="345.579" y="317.839" type="curve" smooth="yes"/>
      <point x="345.53400000000005" y="245.42699999999996"/>
      <point x="335.60299999999995" y="181.72899999999996"/>
      <point x="318.4" y="137.387" type="curve"/>
    </contour>
  </outline>
</glyph>
<glyph name="quotesingle" format="2">
  <advance width="127.583"/>
  <unicode hex="0027"/>
  <outline>
    <contour>
      <point x="51.099999999999994" y="427.0" type="line"/>
      <point x="76.24000000000001" y="427.0" type="line"/>
      <point x="81.60900000000001" y="700.0" type="line"/>
      <point x="45.974" y="700.0" type="line"/>
    </contour>
  </outline>
</glyph>
<glyph name="parenleft" format="2">
  <advance width="206.314"/>
  <unicode hex="0028"/>
  <outline>
    <contour>
      <point x="56.894999999999996" y="265.0" type="curve" smooth="yes"/>
      <point x="56.894999999999996" y="-8.266"/>
      <point x="108.781" y="-193.815"/>
      <point x="198.135" y="-220.819" type="curve"/>
      <point x="198.135" y="-184.214" type="line"/>
      <point x="130.275" y="-150.204"/>
      <point x="90.251" y="6.953"/>
      <point x="90.251" y="265.0" type="curve" smooth="yes"/>
      <point x="90.251" y="523.0469999999999"/>
      <point x="130.275" y="680.204"/>
      <point x="198.135" y="714.214" type="curve"/>
      <point x="198.135" y="750.819" type="line"/>
      <point x="108.781" y="723.8149999999999"/>
      <point x="56.894999999999996" y="538.2660000000001"/>
    </contour>
  </outline>
</glyph>
<glyph name="parenright" format="2">
  <advance width="206.314"/>
  <unicode hex="0029"/>
  <outline>
    <contour>
      <point x="8.179" y="-184.214" type="curve"/>
      <point x="8.179" y="-220.819" type="line"/>
      <point x="97.53299999999999" y="-193.815"/>
      <point x="149.419" y="-8.266"/>
      <point x="149.419" y="265.0" type="curve" smooth="yes"/>
      <point x="149.419" y="538.2660000000001"/>
      <point x="97.53299999999999" y="723.8149999999999"/>
      <point x="8.179" y="750.819" type="curve"/>
      <point x="8.179" y="714.214" type="line"/>
      <point x="76.03899999999999" y="680.204"/>
      <point x="116.06299999999999" y="523.0469999999999"/>
      <point x="116.06299999999999" y="265.0" type="curve" smooth="yes"/>
      <point x="116.06299999999999" y="6.953"/>
      <point x="76.03899999999999" y="-150.204"/>
    </contour>
  </outline>
</glyph>
<glyph name="asterisk" format="2">
  <advance width="223.504"/>
  <unicode hex="002A"/>
  <outline>
    <contour>
      <point x="54.876999999999995" y="391.469" type="line"/>
      <point x="111.843" y="484.831" type="line"/>
      <point x="168.44500000000002" y="391.378" type="line"/>
      <point x="188.114" y="404.707" type="line"/>
      <point x="131.738" y="502.95099999999996" type="line"/>
      <point x="221.709" y="547.655" type="line"/>
      <point x="213.17200000000003" y="569.333" type="line"/>
      <point x="125.00200000000001" y="528.636" type="line"/>
      <point x="123.976" y="648.091" type="line"/>
      <point x="99.71000000000001" y="648.091" type="line"/>
      <point x="98.684" y="528.636" type="line"/>
      <point x="10.331999999999999" y="569.333" type="line"/>
      <point x="1.7950000000000002" y="547.655" type="line"/>
      <point x="91.948" y="502.95099999999996" type="line"/>
      <point x="35.117000000000004" y="404.889" type="line"/>
    </contour>
  </outline>
</glyph>
<glyph name="plus" format="2">
  <advance width="395.048"/>
  <unicode hex="002B"/>
  <outline>
    <contour>
      <point x="180.837" y="79.506" type="line"/>
      <point x="214.202" y="79.506" type="line"/>
      <point x="214.202" y="276.165" type="line"/>
      <point x="353.432" y="276.165" type="line"/>
      <point x="353.432" y="309.16999999999996" type="line"/>
      <point x="214.202" y="309.16999999999996" type="line"/>
      <point x="214.202" y="505.82" type="line"/>
      <point x="180.837" y="505.82" type="line"/>
      <point x="180.837" y="309.16999999999996" type="line"/>
      <point x="41.616" y="309.16999999999996" type="line"/>
      <point x="41.616" y="276.165" type="line"/>
      <point x="180.837" y="276.165" type="line"/>
    </contour>
  </outline>
</glyph>
<glyph name="comma" format="2">
  <advance width="113.531"/>
  <unicode hex="002C"/>
  <outline>
    <contour>
      <point x="37.617999999999995" y="40.384" type="line"/>
      <point x="44.76500000000001" y="18.665"/>
      <point x="48.596000000000004" y="-5.135"/>
      <point x="48.596000000000004" y="-22.402" type="curve" smooth="yes"/>
      <point x="48.596000000000004" y="-82.94"/>
      <point x="29.986" y="-149.92000000000002"/>
      <point x="-14.056999999999999" y="-183.639" type="curve"/>
      <point x="8.379" y="-201.41299999999998" type="line"/>
      <point x="63.925" y="-160.277"/>
      <point x="82.61800000000001" y="-80.335"/>
      <point x="82.61800000000001" y="-21.878" type="curve" smooth="yes"/>
      <point x="82.61800000000001" y="1.0269999999999997"/>
      <point x="79.09299999999999" y="24.479"/>
      <point x="71.882" y="47.026" type="curve"/>
    </contour>
  </outline>
</glyph>
<glyph name="hyphen" format="2">
  <advance width="218.00300000000001"/>
  <unicode hex="002D"/>
  <outline>
    <contour>
      <point x="20.322" y="253.11" type="line"/>
      <point x="197.68099999999998" y="253.11" type="line"/>
      <point x="197.68099999999998" y="287.276" type="line"/>
      <point x="20.322" y="287.276" type="line"/>
    </contour>
  </outline>
</glyph>
<glyph name="period" format="2">
  <advance width="113.675"/>
  <unicode hex="002E"/>
  <outline>
    <contour>
      <point x="34.87" y="25.307" type="curve" smooth="yes"/>
      <point x="34.87" y="3.754"/>
      <point x="38.544000000000004" y="-0.666"/>
      <point x="56.883" y="-0.666" type="curve" smooth="yes"/>
      <point x="76.13199999999999" y="-0.666"/>
      <point x="78.89600000000002" y="3.754"/>
      <point x="78.89600000000002" y="25.307" type="curve" smooth="yes"/>
      <point x="78.89600000000002" y="46.949999999999996"/>
      <point x="76.13199999999999" y="51.37"/>
      <point x="56.883" y="51.37" type="curve" smooth="yes"/>
      <point x="37.634" y="51.37"/>
      <point x="34.87" y="46.949999999999996"/>
    </contour>
  </outline>
</glyph>
<glyph name="zero" format="2">
  <advance width="342.314"/>
  <unicode hex="0030"/>
  <outline>
    <contour>
      <point x="18.692" y="350.0" type="curve" smooth="yes"/>
      <point x="18.692" y="71.034"/>
      <point x="71.69699999999999" y="-10.0"/>
      <point x="171.157" y="-10.0" type="curve" smooth="yes"/>
      <point x="270.39200000000005" y="-10.0"/>
      <point x="323.622" y="71.358"/>
      <point x="323.622" y="350.0" type="curve" smooth="yes"/>
      <point x="323.622" y="629.542"/>
      <point x="271.607" y="710.0"/>
      <point x="171.157" y="710.0" type="curve" smooth="yes"/>
      <point x="71.454" y="710.0"/>
      <point x="18.692" y="630.19"/>
    </contour>
    <contour>
      <point x="54.07299999999999" y="348.947" type="curve" smooth="yes"/>
      <point x="54.07299999999999" y="607.953"/>
      <point x="96.259" y="676.59"/>
      <point x="171.157" y="676.59" type="curve" smooth="yes"/>
      <point x="246.073" y="676.59"/>
      <point x="288.259" y="608.034"/>
      <point x="288.259" y="348.947" type="curve" smooth="yes"/>
      <point x="288.259" y="93.35200000000002"/>
      <point x="246.316" y="23.41"/>
      <point x="171.157" y="23.41" type="curve" smooth="yes"/>
      <point x="96.016" y="23.41"/>
      <point x="54.07299999999999" y="93.27100000000002"/>
    </contour>
  </outline>
</glyph>
<glyph name="one" format="2">
  <advance width="342.314"/>
  <unicode hex="0031"/>
  <outline>
    <contour>
      <point x="27.793" y="0.0" type="line"/>
      <point x="329.16700000000003" y="0.0" type="line"/>
      <point x="329.16700000000003" y="33.050000000000004" type="line"/>
      <point x="205.037" y="33.050000000000004" type="line"/>
      <point x="205.037" y="700.91" type="line"/>
      <point x="185.54" y="700.91" type="line"/>
      <point x="14.125" y="577.9929999999999" type="line"/>
      <point x="27.507" y="548.059" type="line"/>
      <point x="169.80900000000003" y="649.567" type="line"/>
      <point x="169.80900000000003" y="33.050000000000004" type="line"/>
      <point x="27.793" y="33.050000000000004" type="line"/>
    </contour>
  </outline>
</glyph>
<glyph name="two" format="2">
  <advance width="342.45"/>
  <unicode hex="0032"/>
  <outline>
    <contour>
      <point x="33.644999999999996" y="28.7" type="curve"/>
      <point x="38.2175" y="0.0" type="line"/>
      <point x="317.51249999999993" y="0.0" type="line"/>
      <point x="317.51249999999993" y="33.095000000000006" type="line"/>
      <point x="76.00750000000001" y="33.095000000000006" type="line"/>
      <point x="231.64249999999998" y="298.54249999999996"/>
      <point x="277.46250000000003" y="421.15250000000003"/>
      <point x="277.46250000000003" y="529.3500000000001" type="curve" smooth="yes"/>
      <point x="277.46250000000003" y="657.0525"/>
      <point x="230.2575" y="710.0"/>
      <point x="152.0625" y="710.0" type="curve" smooth="yes"/>
      <point x="106.8875" y="710.0"/>
      <point x="67.3475" y="695.0075"/>
      <point x="30.21" y="654.9625" type="curve"/>
      <point x="47.345" y="626.7575" type="line"/>
      <point x="78.29749999999999" y="659.9300000000001"/>
      <point x="109.575" y="672.7975"/>
      <point x="147.58499999999998" y="672.7975" type="curve" smooth="yes"/>
      <point x="205.2875" y="672.7975"/>
      <point x="242.5775" y="634.0300000000001"/>
      <point x="242.5775" y="526.55" type="curve" smooth="yes"/>
      <point x="242.5775" y="426.4625"/>
      <point x="196.95250000000001" y="298.9225"/>
    </contour>
  </outline>
</glyph>
<glyph name="three" format="2">
  <advance width="342.45000000000005"/>
  <unicode hex="0033"/>
  <outline>
    <contour>
      <point x="9.76" y="38.4775" type="line"/>
      <point x="44.6825" y="5.4350000000000005"/>
      <point x="84.33250000000001" y="-10.0"/>
      <point x="139.1075" y="-10.0" type="curve" smooth="yes"/>
      <point x="241.08999999999997" y="-10.0"/>
      <point x="300.90500000000003" y="67.77"/>
      <point x="300.90500000000003" y="199.88" type="curve" smooth="yes"/>
      <point x="300.90500000000003" y="288.145"/>
      <point x="270.0225" y="349.2375"/>
      <point x="209.705" y="370.3375" type="curve"/>
      <point x="256.175" y="393.935"/>
      <point x="281.6" y="454.4125"/>
      <point x="281.6" y="533.5225" type="curve" smooth="yes"/>
      <point x="281.6" y="641.34"/>
      <point x="235.96" y="710.0"/>
      <point x="141.6025" y="710.0" type="curve" smooth="yes"/>
      <point x="97.7075" y="710.0"/>
      <point x="56.052499999999995" y="696.735"/>
      <point x="26.505" y="673.5249999999999" type="curve"/>
      <point x="41.737500000000004" y="646.75" type="line"/>
      <point x="68.62" y="665.16"/>
      <point x="100.91000000000001" y="674.115"/>
      <point x="137.53" y="674.115" type="curve" smooth="yes"/>
      <point x="212.315" y="674.115"/>
      <point x="246.57" y="617.325"/>
      <point x="246.57" y="527.7625" type="curve" smooth="yes"/>
      <point x="246.57" y="442.04249999999996"/>
      <point x="213.57999999999998" y="383.34250000000003"/>
      <point x="161.615" y="383.34250000000003" type="curve" smooth="yes"/>
      <point x="88.4175" y="383.34250000000003" type="line"/>
      <point x="88.4175" y="351.26" type="line"/>
      <point x="147.24" y="351.26" type="line" smooth="yes"/>
      <point x="225.41000000000003" y="351.26"/>
      <point x="265.6725" y="300.95500000000004"/>
      <point x="265.6725" y="201.32" type="curve" smooth="yes"/>
      <point x="265.6725" y="90.55749999999999"/>
      <point x="217.875" y="24.85"/>
      <point x="137.405" y="24.85" type="curve" smooth="yes"/>
      <point x="90.03" y="24.85"/>
      <point x="58.7575" y="37.3325"/>
      <point x="28.2175" y="64.2525" type="curve"/>
    </contour>
  </outline>
</glyph>
<glyph name="four" format="2">
  <advance width="342.45"/>
  <unicode hex="0034"/>
  <outline>
    <contour>
      <point x="20.98" y="183.425" type="line"/>
      <point x="221.705" y="183.425" type="line"/>
      <point x="221.705" y="0.0" type="line"/>
      <point x="256.825" y="0.0" type="line"/>
      <point x="256.825" y="183.425" type="line"/>
      <point x="330.455" y="183.425" type="line"/>
      <point x="330.455" y="216.385" type="line"/>
      <point x="256.825" y="216.385" type="line"/>
      <point x="256.825" y="699.045" type="line"/>
      <point x="224.185" y="704.095" type="line"/>
      <point x="14.950000000000001" y="214.06" type="line"/>
    </contour>
    <contour>
      <point x="49.32" y="216.385" type="line"/>
      <point x="222.515" y="618.77" type="line"/>
      <point x="222.515" y="216.385" type="line"/>
    </contour>
  </outline>
</glyph>
<glyph name="five" format="2">
  <advance width="342.368"/>
  <unicode hex="0035"/>
  <outline>
    <contour>
      <point x="25.77" y="41.5455" type="line"/>
      <point x="58.61" y="8.370000000000001"/>
      <point x="97.563" y="-9.918000000000001"/>
      <point x="150.802" y="-9.918000000000001" type="curve" smooth="yes"/>
      <point x="253.6045" y="-9.918000000000001"/>
      <point x="314.17350000000005" y="65.937"/>
      <point x="314.17350000000005" y="198.825" type="curve" smooth="yes"/>
      <point x="314.17350000000005" y="321.307"/>
      <point x="266.118" y="386.7155"/>
      <point x="173.4065" y="387.188" type="curve" smooth="yes"/>
      <point x="87.18400000000001" y="387.323" type="line"/>
      <point x="103.3965" y="666.0725" type="line"/>
      <point x="290.16050000000007" y="666.0725" type="line"/>
      <point x="290.16050000000007" y="700.0" type="line"/>
      <point x="73.03249999999998" y="700.0" type="line"/>
      <point x="52.394999999999996" y="366.443" type="line"/>
      <point x="62.26" y="355.30799999999994" type="line"/>
      <point x="161.741" y="355.30799999999994" type="line" smooth="yes"/>
      <point x="240.021" y="355.30799999999994"/>
      <point x="278.6935" y="300.469"/>
      <point x="278.6935" y="198.105" type="curve" smooth="yes"/>
      <point x="278.6935" y="87.89800000000001"/>
      <point x="233.6525" y="24.977"/>
      <point x="148.7095" y="24.977" type="curve" smooth="yes"/>
      <point x="98.60650000000001" y="24.977"/>
      <point x="68.7835" y="44.538500000000006"/>
      <point x="43.280499999999996" y="67.9425" type="curve"/>
    </contour>
  </outline>
</glyph>
<glyph name="six" format="2">
  <advance width="342.368"/>
  <unicode hex="0036"/>
  <outline>
    <contour>
      <point x="177.8305" y="-10.0" type="curve" smooth="yes"/>
      <point x="265.899" y="-10.0"/>
      <point x="320.7425" y="73.328"/>
      <point x="320.7425" y="207.333" type="curve" smooth="yes"/>
      <point x="320.7425" y="333.35999999999996"/>
      <point x="270.9935" y="406.15549999999996"/>
      <point x="187.7465" y="406.15549999999996" type="curve" smooth="yes"/>
      <point x="126.2475" y="406.15549999999996"/>
      <point x="68.18549999999999" y="361.02399999999994"/>
      <point x="49.46249999999999" y="298.2445000000001" type="curve"/>
      <point x="54.175" y="259.55850000000004" type="line"/>
      <point x="74.91300000000001" y="331.4335000000001"/>
      <point x="124.52050000000001" y="375.306"/>
      <point x="180.8435" y="375.306" type="curve" smooth="yes"/>
      <point x="246.17299999999997" y="375.306"/>
      <point x="285.71250000000003" y="313.30949999999996"/>
      <point x="285.71250000000003" y="204.3765" type="curve" smooth="yes"/>
      <point x="285.71250000000003" y="91.952"/>
      <point x="242.848" y="21.5065"/>
      <point x="177.60999999999999" y="21.5065" type="curve" smooth="yes"/>
      <point x="94.836" y="21.5065"/>
      <point x="57.07950000000001" y="102.877"/>
      <point x="57.07950000000001" y="329.56800000000004" type="curve" smooth="yes"/>
      <point x="57.07950000000001" y="568.3700000000001"/>
      <point x="99.81250000000001" y="677.4585"/>
      <point x="198.9925" y="677.4585" type="curve" smooth="yes"/>
      <point x="234.5425" y="677.4585"/>
      <point x="259.1435" y="665.9745"/>
      <point x="288.5745" y="647.8199999999999" type="curve"/>
      <point x="304.3690000000001" y="675.6095" type="line"/>
      <point x="272.39" y="697.9455"/>
      <point x="238.996" y="710.0"/>
      <point x="197.6785" y="710.0" type="curve" smooth="yes"/>
      <point x="78.4875" y="710.0"/>
      <point x="21.1495" y="605.1940000000001"/>
      <point x="21.1495" y="328.931" type="curve" smooth="yes"/>
      <point x="21.1495" y="79.41900000000003"/>
      <point x="67.73200000000001" y="-10.0"/>
    </contour>
  </outline>
</glyph>
<glyph name="seven" format="2">
  <advance width="342.368"/>
  <unicode hex="0037"/>
  <outline>
    <contour>
      <point x="122.19850000000001" y="0.0" type="curve"/>
      <point x="158.28600000000003" y="0.0" type="line"/>
      <point x="159.18150000000003" y="139.668"/>
      <point x="178.569" y="252.666"/>
      <point x="216.45600000000002" y="368.40299999999996" type="curve" smooth="yes"/>
      <point x="315.9775" y="672.5825" type="line"/>
      <point x="315.9775" y="700.0" type="line"/>
      <point x="23.8855" y="700.0" type="line"/>
      <point x="23.8855" y="665.8475000000001" type="line"/>
      <point x="276.76149999999996" y="665.8475000000001" type="line"/>
      <point x="195.91400000000002" y="420.48299999999995" type="line" smooth="yes"/>
      <point x="141.51999999999998" y="254.04549999999998"/>
      <point x="122.19850000000001" y="139.25899999999996"/>
    </contour>
  </outline>
</glyph>
<glyph name="eight" format="2">
  <advance width="342.45"/>
  <unicode hex="0038"/>
  <outline>
    <contour>
      <point x="183.1175" y="366.97249999999997" type="curve"/>
      <point x="205.63000000000002" y="352.1625" type="line"/>
      <point x="282.8175" y="403.54249999999996"/>
      <point x="310.47249999999997" y="465.93"/>
      <point x="310.47249999999997" y="545.17" type="curve" smooth="yes"/>
      <point x="310.47249999999997" y="651.01"/>
      <point x="261.02250000000004" y="710.0"/>
      <point x="173.42499999999998" y="710.0" type="curve" smooth="yes"/>
      <point x="84.975" y="710.0"/>
      <point x="33.112500000000004" y="649.76"/>
      <point x="33.112500000000004" y="543.7150000000001" type="curve" smooth="yes"/>
      <point x="33.112500000000004" y="318.14"/>
      <point x="290.9425" y="388.92"/>
      <point x="290.9425" y="166.9825" type="curve" smooth="yes"/>
      <point x="290.9425" y="74.095"/>
      <point x="247.88750000000002" y="22.465000000000003"/>
      <point x="171.7425" y="22.465000000000003" type="curve" smooth="yes"/>
      <point x="94.24" y="22.465000000000003"/>
      <point x="51.82749999999999" y="77.3225"/>
      <point x="51.82749999999999" y="176.36499999999998" type="curve" smooth="yes"/>
      <point x="51.82749999999999" y="263.5025"/>
      <point x="83.7125" y="326.57"/>
      <point x="154.0325" y="368.7625" type="curve"/>
      <point x="130.02250000000004" y="386.2" type="line"/>
      <point x="49.675" y="333.6025"/>
      <point x="17.0675" y="262.54749999999996"/>
      <point x="17.0675" y="172.4875" type="curve" smooth="yes"/>
      <point x="17.0675" y="55.904999999999994"/>
      <point x="71.315" y="-10.0"/>
      <point x="170.16" y="-10.0" type="curve" smooth="yes"/>
      <point x="269.58500000000004" y="-10.0"/>
      <point x="325.9275" y="54.1075"/>
      <point x="325.9275" y="167.42750000000004" type="curve" smooth="yes"/>
      <point x="325.9275" y="412.33"/>
      <point x="67.3325" y="343.1125"/>
      <point x="67.3325" y="547.0799999999999" type="curve" smooth="yes"/>
      <point x="67.3325" y="629.8475"/>
      <point x="106.63499999999999" y="677.9724999999999"/>
      <point x="172.6825" y="677.9724999999999" type="curve" smooth="yes"/>
      <point x="240.3375" y="677.9724999999999"/>
      <point x="276.92749999999995" y="630.7824999999999"/>
      <point x="276.92749999999995" y="541.38" type="curve" smooth="yes"/>
      <point x="276.92749999999995" y="467.68499999999995"/>
      <point x="255.4125" y="414.06"/>
    </contour>
  </outline>
</glyph>
<glyph name="nine" format="2">
  <advance width="342.368"/>
  <unicode hex="0039"/>
  <outline>
    <contour>
      <point x="146.73449999999997" y="-10.0" type="curve" smooth="yes"/>
      <point x="265.9255" y="-10.0"/>
      <point x="319.99649999999997" y="94.761"/>
      <point x="319.99649999999997" y="370.934" type="curve" smooth="yes"/>
      <point x="319.99649999999997" y="620.491"/>
      <point x="273.99899999999997" y="710.0"/>
      <point x="166.86550000000003" y="710.0" type="curve" smooth="yes"/>
      <point x="77.44" y="710.0"/>
      <point x="20.4035" y="627.1640000000001"/>
      <point x="20.4035" y="492.749" type="curve" smooth="yes"/>
      <point x="20.4035" y="367.04200000000003"/>
      <point x="70.5255" y="293.8445000000001"/>
      <point x="153.6245" y="293.8445000000001" type="curve" smooth="yes"/>
      <point x="214.8535" y="293.8445000000001"/>
      <point x="272.8705" y="340.40700000000004"/>
      <point x="291.6835" y="403.18649999999997" type="curve"/>
      <point x="292.07399999999996" y="450.1524999999999" type="line"/>
      <point x="268.7395" y="367.536"/>
      <point x="216.58049999999997" y="324.694"/>
      <point x="160.30250000000004" y="324.694" type="curve" smooth="yes"/>
      <point x="96.211" y="324.694"/>
      <point x="55.38849999999999" y="387.1375"/>
      <point x="55.38849999999999" y="495.75049999999993" type="curve" smooth="yes"/>
      <point x="55.38849999999999" y="608.5849999999999"/>
      <point x="100.49099999999999" y="678.4934999999999"/>
      <point x="167.22100000000003" y="678.4934999999999" type="curve" smooth="yes"/>
      <point x="246.895" y="678.4934999999999"/>
      <point x="284.0665000000001" y="597.1229999999999"/>
      <point x="284.0665000000001" y="370.432" type="curve" smooth="yes"/>
      <point x="284.0665000000001" y="131.63"/>
      <point x="244.5555" y="22.541499999999996"/>
      <point x="145.42049999999998" y="22.541499999999996" type="curve" smooth="yes"/>
      <point x="109.8255" y="22.541499999999996"/>
      <point x="82.0025" y="34.025499999999994"/>
      <point x="52.57150000000001" y="52.18" type="curve"/>
      <point x="36.77700000000001" y="24.4805" type="line"/>
      <point x="68.756" y="2.1445000000000003"/>
      <point x="105.417" y="-10.0"/>
    </contour>
  </outline>
</glyph>
<glyph name="less" format="2">
  <advance width="395.048"/>
  <unicode hex="003C"/>
  <outline>
    <contour>
      <point x="354.31399999999996" y="88.107" type="line"/>
      <point x="354.31399999999996" y="123.184" type="line"/>
      <point x="74.614" y="291.943" type="line"/>
      <point x="354.31399999999996" y="461.77500000000003" type="line"/>
      <point x="354.31399999999996" y="495.06" type="line"/>
      <point x="40.733999999999995" y="308.351" type="line"/>
      <point x="40.733999999999995" y="275.508" type="line"/>
    </contour>
  </outline>
</glyph>
<glyph name="equal" format="2">
  <advance width="393.428"/>
  <unicode hex="003D"/>
  <outline>
    <contour>
      <point x="351.812" y="204.686" type="line"/>
      <point x="41.616" y="204.686" type="line"/>
      <point x="41.616" y="171.681" type="line"/>
      <point x="351.812" y="171.681" type="line"/>
    </contour>
    <contour>
      <point x="351.812" y="413.387" type="line"/>
      <point x="41.616" y="413.387" type="line"/>
      <point x="41.616" y="380.382" type="line"/>
      <point x="351.812" y="380.382" type="line"/>
    </contour>
  </outline>
</glyph>
<glyph name="greater" format="2">
  <advance width="395.048"/>
  <unicode hex="003E"/>
  <outline>
    <contour>
      <point x="354.31399999999996" y="274.689" type="line"/>
      <point x="354.31399999999996" y="307.532" type="line"/>
      <point x="40.733999999999995" y="495.06" type="line"/>
      <point x="40.733999999999995" y="460.046" type="line"/>
      <point x="320.434" y="291.12399999999997" type="line"/>
      <point x="40.733999999999995" y="121.546" type="line"/>
      <point x="40.733999999999995" y="88.107" type="line"/>
    </contour>
  </outline>
</glyph>
<glyph name="question" format="2">
  <advance width="285.81199999999995"/>
  <unicode hex="003F"/>
  <outline>
    <contour>
      <point x="112.807" y="263.277" type="line"/>
      <point x="145.659" y="263.277" type="line"/>
      <point x="145.677" y="339.47400000000005" type="line"/>
      <point x="227.934" y="413.09100000000007"/>
      <point x="269.023" y="461.16499999999996"/>
      <point x="269.023" y="572.09" type="curve" smooth="yes"/>
      <point x="269.023" y="695.29"/>
      <point x="204.419" y="749.919"/>
      <point x="132.16500000000002" y="749.919" type="curve" smooth="yes"/>
      <point x="86.79200000000002" y="749.919"/>
      <point x="41.92" y="728.5830000000001"/>
      <point x="8.328000000000001" y="694.534" type="curve"/>
      <point x="24.772" y="667.048" type="line"/>
      <point x="59.882999999999996" y="700.9509999999999"/>
      <point x="96.30000000000001" y="714.862"/>
      <point x="129.357" y="714.862" type="curve" smooth="yes"/>
      <point x="185.842" y="714.862"/>
      <point x="232.454" y="661.218"/>
      <point x="232.454" y="570.533" type="curve" smooth="yes"/>
      <point x="232.454" y="484.43800000000005"/>
      <point x="204.292" y="429.383"/>
      <point x="112.42" y="355.807" type="curve"/>
    </contour>
    <contour>
      <point x="107.065" y="25.064" type="curve" smooth="yes"/>
      <point x="107.065" y="3.511"/>
      <point x="112.296" y="-0.9089999999999999"/>
      <point x="129.897" y="-0.9089999999999999" type="curve" smooth="yes"/>
      <point x="148.246" y="-0.9089999999999999"/>
      <point x="151.91000000000003" y="3.511"/>
      <point x="151.91000000000003" y="25.064" type="curve" smooth="yes"/>
      <point x="151.91000000000003" y="46.706999999999994"/>
      <point x="148.246" y="51.126999999999995"/>
      <point x="129.897" y="51.126999999999995" type="curve" smooth="yes"/>
      <point x="110.56700000000001" y="51.126999999999995"/>
      <point x="107.065" y="46.706999999999994"/>
    </contour>
  </outline>
</glyph>
<glyph name="at" format="2">
  <advance width="487.28799999999995"/>
  <unicode hex="0040"/>
  <outline>
    <contour>
      <point x="253.07600000000002" y="-123.18" type="curve" smooth="yes"/>
      <point x="315.238" y="-123.18"/>
      <point x="369.674" y="-92.17"/>
      <point x="394.408" y="-60.04" type="curve"/>
      <point x="380.208" y="-43.965999999999994" type="line"/>
      <point x="352.804" y="-74.61"/>
      <point x="308.66" y="-98.644"/>
      <point x="253.346" y="-98.644" type="curve" smooth="yes"/>
      <point x="118.92200000000001" y="-98.644"/>
      <point x="52.918000000000006" y="-9.046000000000001"/>
      <point x="52.918000000000006" y="267.842" type="curve" smooth="yes"/>
      <point x="52.918000000000006" y="509.724"/>
      <point x="97.55" y="686.7420000000001"/>
      <point x="253.716" y="686.7420000000001" type="curve" smooth="yes"/>
      <point x="401.218" y="686.7420000000001"/>
      <point x="435.58000000000004" y="576.1959999999999"/>
      <point x="435.58000000000004" y="350.556" type="curve" smooth="yes"/>
      <point x="435.58000000000004" y="209.076"/>
      <point x="423.82000000000005" y="85.384"/>
      <point x="377.88" y="85.384" type="curve" smooth="yes"/>
      <point x="353.394" y="85.384"/>
      <point x="327.67" y="106.87599999999999"/>
      <point x="334.552" y="248.01600000000002" type="curve" smooth="yes"/>
      <point x="348.596" y="517.8539999999999" type="line"/>
      <point x="315.57800000000003" y="530.8580000000001"/>
      <point x="287.378" y="538.526"/>
      <point x="261.346" y="538.526" type="curve" smooth="yes"/>
      <point x="164.798" y="538.526"/>
      <point x="135.428" y="409.38199999999995"/>
      <point x="135.428" y="268.70200000000006" type="curve" smooth="yes"/>
      <point x="135.428" y="110.15799999999999"/>
      <point x="165.57000000000002" y="59.736000000000004"/>
      <point x="217.586" y="59.736000000000004" type="curve" smooth="yes"/>
      <point x="275.964" y="59.736000000000004"/>
      <point x="293.31399999999996" y="117.36"/>
      <point x="307.408" y="202.53599999999997" type="curve"/>
      <point x="308.134" y="85.72000000000001"/>
      <point x="328.394" y="56.322"/>
      <point x="374.45000000000005" y="56.322" type="curve" smooth="yes"/>
      <point x="444.218" y="56.322"/>
      <point x="462.302" y="194.512"/>
      <point x="462.302" y="352.014" type="curve" smooth="yes"/>
      <point x="462.302" y="601.616"/>
      <point x="414.604" y="709.918"/>
      <point x="255.24599999999998" y="709.918" type="curve" smooth="yes"/>
      <point x="80.14" y="709.918"/>
      <point x="25.412" y="523.81"/>
      <point x="25.412" y="268.94" type="curve" smooth="yes"/>
      <point x="25.412" y="-23.332"/>
      <point x="102.12400000000001" y="-123.18"/>
    </contour>
    <contour>
      <point x="225.92000000000002" y="93.33399999999999" type="curve" smooth="yes"/>
      <point x="194.63400000000001" y="93.33399999999999"/>
      <point x="170.58400000000003" y="132.52599999999998"/>
      <point x="170.58400000000003" y="268.234" type="curve" smooth="yes"/>
      <point x="170.58400000000003" y="383.516"/>
      <point x="194.404" y="509.72400000000005"/>
      <point x="260.40000000000003" y="509.72400000000005" type="curve" smooth="yes"/>
      <point x="275.97200000000004" y="509.72400000000005"/>
      <point x="294.284" y="505.15"/>
      <point x="314.682" y="496.58" type="curve"/>
      <point x="308.64" y="404.71999999999997" type="line" smooth="yes"/>
      <point x="289.51199999999994" y="125.71400000000001"/>
      <point x="267.868" y="93.33399999999999"/>
    </contour>
  </outline>
</glyph>
<glyph name="A" format="2">
  <advance width="365.047"/>
  <unicode hex="0041"/>
  <anchor x="347.559" y="0.0" name="ogonek"/>
  <anchor x="183.086" y="0.0" name="bottom"/>
  <anchor x="183.248" y="700.0" name="top"/>
  <outline>
    <contour>
      <point x="17.506" y="0.0" type="line"/>
      <point x="53.24" y="0.0" type="line"/>
      <point x="95.918" y="209.38200000000003" type="line"/>
      <point x="269.208" y="209.38200000000003" type="line"/>
      <point x="311.329" y="0.0" type="line"/>
      <point x="347.559" y="0.0" type="line"/>
      <point x="201.827" y="709.1" type="line"/>
      <point x="164.28899999999996" y="709.1" type="line"/>
    </contour>
    <contour>
      <point x="101.61000000000001" y="243.961" type="line"/>
      <point x="182.94" y="649.274" type="line"/>
      <point x="263.59799999999996" y="243.961" type="line"/>
    </contour>
  </outline>
</glyph>
<glyph name="B" format="2">
  <advance width="360.91"/>
  <unicode hex="0042"/>
  <anchor x="171.38" y="700.0" name="top"/>
  <anchor x="171.38" y="0.0" name="bottom"/>
  <outline>
    <contour>
      <point x="50.6005" y="-3.9954999999999994" type="line"/>
      <point x="98.75999999999999" y="-8.723500000000001"/>
      <point x="123.764" y="-10.0"/>
      <point x="162.86199999999997" y="-10.0" type="curve" smooth="yes"/>
      <point x="283.06600000000003" y="-10.0"/>
      <point x="336.0735" y="51.099500000000006"/>
      <point x="336.0735" y="185.036" type="curve" smooth="yes"/>
      <point x="336.0735" y="278.7665"/>
      <point x="297.33700000000005" y="343.0285"/>
      <point x="231.22899999999998" y="361.3575" type="curve"/>
      <point x="231.22899999999998" y="362.552" type="line"/>
      <point x="281.972" y="384.341"/>
      <point x="314.9965" y="451.89950000000005"/>
      <point x="314.9965" y="534.852" type="curve" smooth="yes"/>
      <point x="314.9965" y="655.9100000000001"/>
      <point x="268.56149999999997" y="710.0"/>
      <point x="160.95999999999998" y="710.0" type="curve" smooth="yes"/>
      <point x="130.231" y="710.0"/>
      <point x="97.4945" y="707.5435"/>
      <point x="50.6005" y="702.3395" type="curve"/>
    </contour>
    <contour>
      <point x="85.99050000000001" y="371.072" type="line"/>
      <point x="85.99050000000001" y="672.8555" type="line"/>
      <point x="118.279" y="676.6835"/>
      <point x="131.55899999999997" y="677.6835"/>
      <point x="160.04350000000002" y="677.6835" type="curve" smooth="yes"/>
      <point x="243.9715" y="677.6835"/>
      <point x="281.384" y="629.8545000000001"/>
      <point x="281.384" y="529.2945000000001" type="curve" smooth="yes"/>
      <point x="281.384" y="438.66549999999995"/>
      <point x="240.772" y="371.072"/>
      <point x="177.7995" y="371.072" type="curve" smooth="yes"/>
    </contour>
    <contour>
      <point x="85.99050000000001" y="27.0915" type="curve"/>
      <point x="85.99050000000001" y="339.07950000000005" type="line"/>
      <point x="181.0425" y="339.07950000000005" type="line" smooth="yes"/>
      <point x="257.364" y="339.07950000000005"/>
      <point x="300.75100000000003" y="279.28049999999996"/>
      <point x="300.75100000000003" y="186.24" type="curve" smooth="yes"/>
      <point x="300.75100000000003" y="70.599"/>
      <point x="260.7355" y="22.9725"/>
      <point x="160.53549999999998" y="22.9725" type="curve" smooth="yes"/>
      <point x="141.712" y="22.9725"/>
      <point x="125.953" y="24.1815"/>
    </contour>
  </outline>
</glyph>
<glyph name="C" format="2">
  <advance width="332.959"/>
  <unicode hex="0043"/>
  <anchor x="200.788" y="700.0" name="top"/>
  <anchor x="200.51799999999997" y="0.0" name="bottom"/>
  <outline>
    <contour>
      <point x="32.357" y="337.144" type="curve" smooth="yes"/>
      <point x="32.357" y="62.537"/>
      <point x="99.36" y="-10.0"/>
      <point x="209.195" y="-10.0" type="curve" smooth="yes"/>
      <point x="243.069" y="-10.0"/>
      <point x="286.15200000000004" y="-5.679"/>
      <point x="315.8" y="4.293" type="curve"/>
      <point x="309.04400000000004" y="37.010000000000005" type="line"/>
      <point x="284.12100000000004" y="28.729999999999997"/>
      <point x="239.969" y="23.032"/>
      <point x="213.272" y="23.032" type="curve" smooth="yes"/>
      <point x="122.917" y="23.032"/>
      <point x="67.855" y="91.755"/>
      <point x="67.855" y="336.838" type="curve" smooth="yes"/>
      <point x="67.855" y="606.001"/>
      <point x="124.026" y="676.1850000000001"/>
      <point x="218.27" y="676.1850000000001" type="curve" smooth="yes"/>
      <point x="246.549" y="676.1850000000001"/>
      <point x="270.78200000000004" y="673.0419999999999"/>
      <point x="299.84700000000004" y="664.354" type="curve"/>
      <point x="307.062" y="696.18" type="line"/>
      <point x="276.11600000000004" y="706.3710000000001"/>
      <point x="246.89600000000002" y="710.0"/>
      <point x="215.129" y="710.0" type="curve" smooth="yes"/>
      <point x="94.214" y="710.0"/>
      <point x="32.357" y="616.418"/>
    </contour>
  </outline>
</glyph>
<glyph name="D" format="2">
  <advance width="385.425"/>
  <unicode hex="0044"/>
  <anchor x="180.057" y="700.0" name="top"/>
  <outline>
    <contour>
      <point x="164.97199999999998" y="-10.0" type="curve" smooth="yes"/>
      <point x="297.536" y="-10.0"/>
      <point x="353.0545" y="92.2105"/>
      <point x="353.0545" y="349.569" type="curve" smooth="yes"/>
      <point x="353.0545" y="608.6320000000002"/>
      <point x="300.69800000000004" y="710.0"/>
      <point x="163.96550000000002" y="710.0" type="curve" smooth="yes"/>
      <point x="128.81750000000002" y="710.0"/>
      <point x="92.471" y="707.8054999999999"/>
      <point x="50.6005" y="703.087" type="curve"/>
      <point x="50.6005" y="-4.923" type="line"/>
      <point x="85.57400000000001" y="-8.32"/>
      <point x="126.34" y="-10.0"/>
    </contour>
    <contour>
      <point x="156.376" y="22.0915" type="curve" smooth="yes"/>
      <point x="138.294" y="22.0915"/>
      <point x="109.171" y="23.4645"/>
      <point x="85.92300000000002" y="25.688" type="curve"/>
      <point x="85.92300000000002" y="673.3040000000002" type="line"/>
      <point x="109.60199999999999" y="675.6320000000001"/>
      <point x="138.39999999999998" y="676.923"/>
      <point x="156.9275" y="676.923" type="curve" smooth="yes"/>
      <point x="273.22300000000007" y="676.923"/>
      <point x="316.192" y="596.2620000000001"/>
      <point x="316.192" y="349.336" type="curve" smooth="yes"/>
      <point x="316.192" y="104.9065"/>
      <point x="273.125" y="22.0915"/>
    </contour>
  </outline>
</glyph>
<glyph name="E" format="2">
  <advance width="321.27750000000003"/>
  <unicode hex="0045"/>
  <anchor x="306.046" y="0.0" name="ogonek"/>
  <anchor x="178.6995" y="0.0" name="bottom"/>
  <anchor x="173.725" y="700.0" name="top"/>
  <outline>
    <contour>
      <point x="50.6005" y="0.0" type="line"/>
      <point x="306.091" y="0.0" type="line"/>
      <point x="306.091" y="34.805" type="line"/>
      <point x="86.03550000000001" y="34.805" type="line"/>
      <point x="86.03550000000001" y="347.27799999999996" type="line"/>
      <point x="276.76650000000006" y="347.27799999999996" type="line"/>
      <point x="276.76650000000006" y="380.5575" type="line"/>
      <point x="86.03550000000001" y="380.5575" type="line"/>
      <point x="86.03550000000001" y="664.8575" type="line"/>
      <point x="294.1055" y="664.8575" type="line"/>
      <point x="294.1055" y="700.0" type="line"/>
      <point x="50.6005" y="700.0" type="line"/>
    </contour>
  </outline>
</glyph>
<glyph name="F" format="2">
  <advance width="301.898"/>
  <unicode hex="0046"/>
  <outline>
    <contour>
      <point x="50.6005" y="0.0" type="line"/>
      <point x="86.10300000000001" y="0.0" type="line"/>
      <point x="86.10300000000001" y="332.55600000000004" type="line"/>
      <point x="257.02" y="332.55600000000004" type="line"/>
      <point x="257.02" y="366.803" type="line"/>
      <point x="85.92300000000002" y="366.803" type="line"/>
      <point x="85.92300000000002" y="664.7675000000002" type="line"/>
      <point x="293.9030000000001" y="664.7675000000002" type="line"/>
      <point x="293.9030000000001" y="700.0" type="line"/>
      <point x="50.6005" y="700.0" type="line"/>
    </contour>
  </outline>
</glyph>
<glyph name="G" format="2">
  <advance width="359.94800000000004"/>
  <unicode hex="0047"/>
  <anchor x="199.355" y="700.0" name="top"/>
  <anchor x="201.595" y="0.0" name="bottom"/>
  <outline>
    <contour>
      <point x="32.357" y="337.30600000000004" type="curve" smooth="yes"/>
      <point x="32.357" y="97.696"/>
      <point x="85.21900000000001" y="-10.0"/>
      <point x="205.289" y="-10.0" type="curve" smooth="yes"/>
      <point x="251.97599999999997" y="-10.0"/>
      <point x="295.924" y="-3.7030000000000003"/>
      <point x="320.584" y="8.05" type="curve"/>
      <point x="320.584" y="343.372" type="line"/>
      <point x="183.85500000000002" y="343.372" type="line"/>
      <point x="183.85500000000002" y="310.43" type="line"/>
      <point x="286.823" y="310.43" type="line"/>
      <point x="286.823" y="31.707" type="line"/>
      <point x="266.374" y="24.987000000000002"/>
      <point x="240.917" y="22.078"/>
      <point x="207.089" y="22.078" type="curve" smooth="yes"/>
      <point x="112.23200000000001" y="22.078"/>
      <point x="67.693" y="118.481"/>
      <point x="67.693" y="336.271" type="curve" smooth="yes"/>
      <point x="67.693" y="576.802"/>
      <point x="114.005" y="676.347"/>
      <point x="215.105" y="676.347" type="curve" smooth="yes"/>
      <point x="243.65300000000002" y="676.347"/>
      <point x="272.378" y="672.352"/>
      <point x="301.83799999999997" y="663.0899999999999" type="curve"/>
      <point x="308.702" y="694.896" type="line"/>
      <point x="280.114" y="704.68"/>
      <point x="246.062" y="710.0"/>
      <point x="212.369" y="710.0" type="curve" smooth="yes"/>
      <point x="88.415" y="710.0"/>
      <point x="32.357" y="598.621"/>
    </contour>
  </outline>
</glyph>
<glyph name="H" format="2">
  <advance width="405.928"/>
  <unicode hex="0048"/>
  <anchor x="203.04999999999998" y="700.0" name="top"/>
  <outline>
    <contour>
      <point x="50.596" y="0.0" type="line"/>
      <point x="85.85100000000001" y="0.0" type="line"/>
      <point x="85.85100000000001" y="285.08599999999996" type="line"/>
      <point x="320.077" y="285.08599999999996" type="line"/>
      <point x="320.077" y="0.0" type="line"/>
      <point x="355.332" y="0.0" type="line"/>
      <point x="355.332" y="700.0" type="line"/>
      <point x="320.077" y="700.0" type="line"/>
      <point x="320.077" y="319.61199999999997" type="line"/>
      <point x="85.85100000000001" y="319.61199999999997" type="line"/>
      <point x="85.85100000000001" y="700.0" type="line"/>
      <point x="50.596" y="700.0" type="line"/>
    </contour>
  </outline>
</glyph>
<glyph name="I" format="2">
  <advance width="136.447"/>
  <unicode hex="0049"/>
  <anchor x="85.85100000000001" y="0.0" name="ogonek"/>
  <anchor x="68.264" y="0.0" name="bottom"/>
  <anchor x="68.264" y="700.0" name="top"/>
  <outline>
    <contour>
      <point x="50.596" y="0.0" type="line"/>
      <point x="85.85100000000001" y="0.0" type="line"/>
      <point x="85.85100000000001" y="700.0" type="line"/>
      <point x="50.596" y="700.0" type="line"/>
    </contour>
  </outline>
</glyph>
<glyph name="J" format="2">
  <advance width="269.298"/>
  <unicode hex="004A"/>
  <anchor x="130.331" y="700.0" name="top"/>
  <outline>
    <contour>
      <point x="6.8420000000000005" y="3.4959999999999996" type="line"/>
      <point x="34.816" y="-5.311000000000001"/>
      <point x="67.48500000000001" y="-10.091"/>
      <point x="94.471" y="-10.091" type="curve" smooth="yes"/>
      <point x="196.704" y="-10.091"/>
      <point x="225.752" y="47.794"/>
      <point x="225.752" y="132.936" type="curve" smooth="yes"/>
      <point x="225.752" y="700.0" type="line"/>
      <point x="26.134" y="700.0" type="line"/>
      <point x="26.134" y="665.78" type="line"/>
      <point x="190.497" y="665.78" type="line"/>
      <point x="190.497" y="136.68900000000002" type="line" smooth="yes"/>
      <point x="190.497" y="53.766"/>
      <point x="156.498" y="23.561999999999998"/>
      <point x="88.243" y="23.561999999999998" type="curve" smooth="yes"/>
      <point x="66.219" y="23.561999999999998"/>
      <point x="39.017" y="26.659000000000002"/>
      <point x="14.399000000000001" y="34.305" type="curve"/>
    </contour>
  </outline>
</glyph>
<glyph name="K" format="2">
  <advance width="352.175"/>
  <unicode hex="004B"/>
  <anchor x="176.89" y="700.0" name="top"/>
  <anchor x="186.16000000000003" y="0.0" name="bottom"/>
  <outline>
    <contour>
      <point x="336.85" y="-10.0" type="curve" smooth="yes"/>
      <point x="340.435" y="-10.0"/>
      <point x="345.25" y="-10.0"/>
      <point x="351.79" y="-8.0" type="curve"/>
      <point x="351.79" y="31.605" type="line"/>
      <point x="349.11" y="30.785"/>
      <point x="345.77" y="30.785"/>
      <point x="343.34" y="30.785" type="curve" smooth="yes"/>
      <point x="322.315" y="30.99"/>
      <point x="306.945" y="42.2"/>
      <point x="254.46499999999997" y="132.04500000000002" type="curve" smooth="yes"/>
      <point x="86.14" y="420.605" type="line"/>
      <point x="86.14" y="700.0" type="line"/>
      <point x="50.75" y="700.0" type="line"/>
      <point x="50.75" y="0.0" type="line"/>
      <point x="86.14" y="0.0" type="line"/>
      <point x="86.14" y="353.335" type="line"/>
      <point x="234.045" y="101.095" type="line" smooth="yes"/>
      <point x="279.625" y="23.535"/>
      <point x="303.715" y="-10.0"/>
    </contour>
    <contour>
      <point x="142.435" y="297.87" type="line"/>
      <point x="204.70499999999998" y="375.975"/>
      <point x="288.05" y="507.645"/>
      <point x="327.58500000000004" y="693.45" type="curve"/>
      <point x="296.1" y="702.455" type="line"/>
      <point x="256.745" y="523.15"/>
      <point x="179.37" y="402.235"/>
      <point x="123.25" y="328.555" type="curve"/>
    </contour>
  </outline>
</glyph>
<glyph name="L" format="2">
  <advance width="286.07"/>
  <unicode hex="004C"/>
  <anchor x="143.121" y="350.0" name="center"/>
  <anchor x="68.264" y="700.0" name="top"/>
  <anchor x="192.125" y="700.0" name="topright"/>
  <anchor x="165.491" y="0.0" name="bottom"/>
  <outline>
    <contour>
      <point x="50.596" y="0.0" type="line"/>
      <point x="279.03" y="0.0" type="line"/>
      <point x="279.03" y="33.959" type="line"/>
      <point x="85.93200000000002" y="33.959" type="line"/>
      <point x="85.93200000000002" y="700.0" type="line"/>
      <point x="50.596" y="700.0" type="line"/>
    </contour>
  </outline>
</glyph>
<glyph name="M" format="2">
  <advance width="443.123"/>
  <unicode hex="004D"/>
  <outline>
    <contour>
      <point x="50.696" y="0.0" type="line"/>
      <point x="84.268" y="0.0" type="line"/>
      <point x="84.268" y="619.396" type="line"/>
      <point x="210.57199999999997" y="264.775" type="line"/>
      <point x="231.38899999999998" y="264.775" type="line"/>
      <point x="358.85499999999996" y="619.094" type="line"/>
      <point x="358.85499999999996" y="0.0" type="line"/>
      <point x="392.427" y="0.0" type="line"/>
      <point x="392.427" y="700.0" type="line"/>
      <point x="355.99" y="700.0" type="line"/>
      <point x="222.318" y="328.39099999999996" type="line"/>
      <point x="88.468" y="700.0" type="line"/>
      <point x="50.696" y="700.0" type="line"/>
    </contour>
  </outline>
</glyph>
<glyph name="N" format="2">
  <advance width="402.7075"/>
  <unicode hex="004E"/>
  <anchor x="201.695" y="700.0" name="top"/>
  <anchor x="201.695" y="0.0" name="bottom"/>
  <outline>
    <contour>
      <point x="50.6825" y="0.0" type="line"/>
      <point x="83.95750000000001" y="0.0" type="line"/>
      <point x="83.95750000000001" y="610.8675000000001" type="line"/>
      <point x="315.84000000000003" y="-0.09" type="line"/>
      <point x="352.025" y="-0.09" type="line"/>
      <point x="352.025" y="700.0" type="line"/>
      <point x="318.75" y="700.0" type="line"/>
      <point x="318.75" y="84.4725" type="line"/>
      <point x="86.73" y="700.91" type="line"/>
      <point x="50.6825" y="700.91" type="line"/>
    </contour>
  </outline>
</glyph>
<glyph name="O" format="2">
  <advance width="404.02250000000004"/>
  <unicode hex="004F"/>
  <anchor x="234.935" y="0.9450000000000001" name="ogonek"/>
  <anchor x="201.29500000000002" y="700.0" name="top"/>
  <anchor x="290.4925" y="687.8299999999999" name="topright"/>
  <anchor x="201.31750000000002" y="0.0" name="bottom"/>
  <outline>
    <contour>
      <point x="201.29500000000002" y="22.335" type="curve" smooth="yes"/>
      <point x="119.6325" y="22.335"/>
      <point x="68.2475" y="87.575"/>
      <point x="68.2475" y="349.0225" type="curve" smooth="yes"/>
      <point x="68.2475" y="613.5625"/>
      <point x="119.58749999999999" y="677.845"/>
      <point x="201.29500000000002" y="677.845" type="curve" smooth="yes"/>
      <point x="284.0475" y="677.845"/>
      <point x="335.5475" y="613.88"/>
      <point x="335.5475" y="349.18" type="curve" smooth="yes"/>
      <point x="335.5475" y="86.48"/>
      <point x="284.0475" y="22.335"/>
    </contour>
    <contour>
      <point x="201.31750000000002" y="-10.0" type="curve" smooth="yes"/>
      <point x="308.6275" y="-10.0"/>
      <point x="371.47999999999996" y="61.64"/>
      <point x="371.47999999999996" y="349.83750000000003" type="curve" smooth="yes"/>
      <point x="371.47999999999996" y="638.45"/>
      <point x="307.8275" y="710.0"/>
      <point x="201.29500000000002" y="710.0" type="curve" smooth="yes"/>
      <point x="95.3075" y="710.0"/>
      <point x="32.5425" y="638.0649999999999"/>
      <point x="32.5425" y="349.045" type="curve" smooth="yes"/>
      <point x="32.5425" y="63.074999999999996"/>
      <point x="95.51" y="-10.0"/>
    </contour>
  </outline>
</glyph>
<glyph name="P" format="2">
  <advance width="343.065"/>
  <unicode hex="0050"/>
  <outline>
    <contour>
      <point x="50.596" y="0.0" type="line"/>
      <point x="85.93200000000002" y="0.0" type="line"/>
      <point x="85.93200000000002" y="278.575" type="line"/>
      <point x="112.581" y="277.032"/>
      <point x="132.331" y="276.94100000000003"/>
      <point x="160.195" y="276.94100000000003" type="curve" smooth="yes"/>
      <point x="270.84299999999996" y="276.94100000000003"/>
      <point x="322.80100000000004" y="340.739"/>
      <point x="322.80100000000004" y="502.701" type="curve" smooth="yes"/>
      <point x="322.80100000000004" y="657.453"/>
      <point x="285.32199999999995" y="710.0"/>
      <point x="156.336" y="710.0" type="curve" smooth="yes"/>
      <point x="132.359" y="710.0"/>
      <point x="100.831" y="708.072"/>
      <point x="50.596" y="703.4380000000001" type="curve"/>
    </contour>
    <contour>
      <point x="86.013" y="673.5200000000001" type="line"/>
      <point x="119.762" y="676.984"/>
      <point x="139.881" y="677.9849999999999"/>
      <point x="158.36999999999998" y="677.9849999999999" type="curve" smooth="yes"/>
      <point x="263.124" y="677.9849999999999"/>
      <point x="287.402" y="628.282"/>
      <point x="287.402" y="501.207" type="curve" smooth="yes"/>
      <point x="287.402" y="362.644"/>
      <point x="248.781" y="310.37800000000004"/>
      <point x="157.072" y="310.37800000000004" type="curve" smooth="yes"/>
      <point x="129.67399999999998" y="310.37800000000004"/>
      <point x="111.69000000000001" y="310.65999999999997"/>
      <point x="86.013" y="311.95" type="curve"/>
    </contour>
  </outline>
</glyph>
<glyph name="Q" format="2">
  <advance width="404.036"/>
  <unicode hex="0051"/>
  <outline>
    <contour>
      <point x="230.144" y="8.288" type="curve"/>
      <point x="200.43" y="0.974" type="line"/>
      <point x="221.412" y="-152.18"/>
      <point x="245.70800000000003" y="-205.727"/>
      <point x="300.085" y="-205.727" type="curve" smooth="yes"/>
      <point x="317.093" y="-205.727"/>
      <point x="337.412" y="-200.272"/>
      <point x="359.973" y="-191.371" type="curve"/>
      <point x="352.535" y="-159.53900000000002" type="line"/>
      <point x="334.919" y="-167.794"/>
      <point x="318.995" y="-172.222"/>
      <point x="306.105" y="-172.222" type="curve" smooth="yes"/>
      <point x="267.29900000000004" y="-172.222"/>
      <point x="249.485" y="-128.467"/>
    </contour>
    <component base="O"/>
  </outline>
</glyph>
<glyph name="R" format="2">
  <advance width="365.46"/>
  <unicode hex="0052"/>
  <anchor x="175.345" y="700.0" name="top"/>
  <anchor x="184.4" y="0.0" name="bottom"/>
  <outline>
    <contour>
      <point x="345.78499999999997" y="-10.0" type="curve" smooth="yes"/>
      <point x="353.425" y="-10.0"/>
      <point x="359.53" y="-7.25"/>
      <point x="363.635" y="-5.5" type="curve"/>
      <point x="360.315" y="28.919999999999998" type="line"/>
      <point x="357.335" y="28.099999999999998"/>
      <point x="350.975" y="27.235"/>
      <point x="349.065" y="27.235" type="curve" smooth="yes"/>
      <point x="323.895" y="27.235"/>
      <point x="294.57000000000005" y="54.56"/>
      <point x="220.73000000000002" y="307.8" type="curve"/>
      <point x="286.12" y="329.285"/>
      <point x="320.80500000000006" y="392.785"/>
      <point x="320.80500000000006" y="513.215" type="curve" smooth="yes"/>
      <point x="320.80500000000006" y="661.8449999999999"/>
      <point x="270.71999999999997" y="710.0"/>
      <point x="154.57500000000002" y="710.0" type="curve" smooth="yes"/>
      <point x="119.64" y="710.0"/>
      <point x="89.275" y="707.82"/>
      <point x="50.75" y="703.39" type="curve"/>
      <point x="50.75" y="0.0" type="line"/>
      <point x="85.86999999999999" y="0.0" type="line"/>
      <point x="85.86999999999999" y="296.075" type="line"/>
      <point x="105.89" y="294.87"/>
      <point x="129.34" y="294.66499999999996"/>
      <point x="152.74999999999997" y="294.66499999999996" type="curve" smooth="yes"/>
      <point x="164.74" y="294.66499999999996"/>
      <point x="176.9" y="295.62"/>
      <point x="188.275" y="297.23499999999996" type="curve"/>
      <point x="269.78000000000003" y="19.21"/>
      <point x="297.90999999999997" y="-10.0"/>
    </contour>
    <contour>
      <point x="155.865" y="328.075" type="curve" smooth="yes"/>
      <point x="131.465" y="328.075"/>
      <point x="109.54" y="328.46000000000004"/>
      <point x="85.86999999999999" y="329.71000000000004" type="curve"/>
      <point x="85.86999999999999" y="673.685" type="line"/>
      <point x="112.375" y="676.935"/>
      <point x="130.27" y="677.89"/>
      <point x="155.12499999999997" y="677.89" type="curve" smooth="yes"/>
      <point x="252.935" y="677.89"/>
      <point x="285.1" y="630.37"/>
      <point x="285.1" y="508.24" type="curve" smooth="yes"/>
      <point x="285.1" y="376.13"/>
      <point x="242.23" y="328.075"/>
    </contour>
  </outline>
</glyph>
<glyph name="S" format="2">
  <advance width="325.175"/>
  <unicode hex="0053"/>
  <anchor x="170.45749999999998" y="700.0" name="top"/>
  <anchor x="161.935" y="0.0" name="bottom"/>
  <outline>
    <contour>
      <point x="276.78749999999997" y="690.79" type="line"/>
      <point x="253.34500000000003" y="701.2375000000001"/>
      <point x="212.8875" y="710.0"/>
      <point x="175.85499999999996" y="710.0" type="curve" smooth="yes"/>
      <point x="90.095" y="710.0"/>
      <point x="33.0" y="651.8475"/>
      <point x="33.0" y="561.4725000000001" type="curve" smooth="yes"/>
      <point x="33.0" y="468.37499999999994"/>
      <point x="78.08" y="404.075"/>
      <point x="149.6325" y="340.23" type="curve" smooth="yes"/>
      <point x="218.87499999999997" y="277.63999999999993"/>
      <point x="264.28749999999997" y="218.6875"/>
      <point x="264.28749999999997" y="136.8475" type="curve" smooth="yes"/>
      <point x="264.28749999999997" y="59.09"/>
      <point x="208.8" y="23.59"/>
      <point x="143.1225" y="23.59" type="curve" smooth="yes"/>
      <point x="106.8375" y="23.59"/>
      <point x="63.89500000000001" y="30.5625"/>
      <point x="30.8575" y="44.395" type="curve"/>
      <point x="20.2925" y="13.275" type="line"/>
      <point x="48.045" y="0.11250000000000004"/>
      <point x="101.3225" y="-10.0"/>
      <point x="143.415" y="-10.0" type="curve" smooth="yes"/>
      <point x="231.10000000000002" y="-10.0"/>
      <point x="299.7025" y="41.482499999999995"/>
      <point x="299.7025" y="140.2275" type="curve" smooth="yes"/>
      <point x="299.7025" y="234.56750000000002"/>
      <point x="252.8575" y="297.44"/>
      <point x="180.10999999999999" y="362.13" type="curve" smooth="yes"/>
      <point x="110.9725" y="424.23"/>
      <point x="68.685" y="480.11"/>
      <point x="68.685" y="561.4949999999999" type="curve" smooth="yes"/>
      <point x="68.685" y="633.13"/>
      <point x="112.0925" y="677.4850000000001"/>
      <point x="177.2725" y="677.4850000000001" type="curve" smooth="yes"/>
      <point x="211.38" y="677.4850000000001"/>
      <point x="241.0875" y="671.4850000000001"/>
      <point x="266.405" y="660.9925" type="curve"/>
    </contour>
  </outline>
</glyph>
<glyph name="T" format="2">
  <advance width="309.55400000000003"/>
  <unicode hex="0054"/>
  <anchor x="154.77700000000002" y="700.0" name="top"/>
  <anchor x="154.77700000000002" y="0.0" name="bottom"/>
  <outline>
    <contour>
      <point x="303.788" y="665.808" type="line"/>
      <point x="303.788" y="700.0" type="line"/>
      <point x="5.766" y="700.0" type="line"/>
      <point x="5.766" y="665.808" type="line"/>
      <point x="137.19" y="665.808" type="line"/>
      <point x="137.19" y="0.0" type="line"/>
      <point x="172.445" y="0.0" type="line"/>
      <point x="172.445" y="665.808" type="line"/>
    </contour>
  </outline>
</glyph>
<glyph name="U" format="2">
  <advance width="391.01"/>
  <unicode hex="0055"/>
  <anchor x="227.33400000000003" y="0.162" name="ogonek"/>
  <anchor x="195.95499999999998" y="700.0" name="top"/>
  <anchor x="347.464" y="700.0" name="topright"/>
  <anchor x="195.95499999999998" y="0.0" name="bottom"/>
  <outline>
    <contour>
      <point x="43.546" y="157.108" type="line"/>
      <point x="43.546" y="21.66"/>
      <point x="119.354" y="-10.0"/>
      <point x="195.79299999999998" y="-10.0" type="curve" smooth="yes"/>
      <point x="272.79900000000004" y="-10.0"/>
      <point x="347.464" y="21.66"/>
      <point x="347.464" y="157.108" type="curve" smooth="yes"/>
      <point x="347.464" y="700.0" type="line"/>
      <point x="312.11899999999997" y="700.0" type="line"/>
      <point x="312.11899999999997" y="155.371" type="line" smooth="yes"/>
      <point x="312.11899999999997" y="44.599"/>
      <point x="252.359" y="23.599"/>
      <point x="195.82" y="23.599" type="curve" smooth="yes"/>
      <point x="139.425" y="23.599"/>
      <point x="78.729" y="44.518"/>
      <point x="78.729" y="155.371" type="curve" smooth="yes"/>
      <point x="78.729" y="700.0" type="line"/>
      <point x="43.546" y="700.0" type="line"/>
    </contour>
  </outline>
</glyph>
<glyph name="V" format="2">
  <advance width="347.047"/>
  <unicode hex="0056"/>
  <outline>
    <contour>
      <point x="153.47899999999998" y="0.0" type="line"/>
      <point x="194.225" y="0.0" type="line"/>
      <point x="337.717" y="698.7249999999999" type="line"/>
      <point x="302.594" y="702.2840000000001" type="line"/>
      <point x="173.87" y="61.85" type="line"/>
      <point x="44.48" y="702.2840000000001" type="line"/>
      <point x="9.33" y="698.7249999999999" type="line"/>
    </contour>
  </outline>
</glyph>
<glyph name="W" format="2">
  <advance width="476.62"/>
  <unicode hex="0057"/>
  <anchor x="238.185" y="700.0" name="top"/>
  <anchor x="238.185" y="0.0" name="bottom"/>
  <outline>
    <contour>
      <point x="374.96799999999996" y="0.0" type="line"/>
      <point x="468.074" y="698.957" type="line"/>
      <point x="431.323" y="702.052" type="line"/>
      <point x="353.38399999999996" y="67.157" type="line"/>
      <point x="256.389" y="691.714" type="line"/>
      <point x="221.04999999999998" y="691.714" type="line"/>
      <point x="123.90199999999999" y="67.121" type="line"/>
      <point x="45.242999999999995" y="702.052" type="line"/>
      <point x="8.546" y="698.957" type="line"/>
      <point x="102.132" y="0.0" type="line"/>
      <point x="139.99" y="0.0" type="line"/>
      <point x="237.18300000000002" y="617.8349999999999" type="line"/>
      <point x="334.451" y="0.0" type="line"/>
    </contour>
  </outline>
</glyph>
<glyph name="X" format="2">
  <advance width="355.74"/>
  <unicode hex="0058"/>
  <outline>
    <contour>
      <point x="22.12" y="2.2750000000000004" type="line"/>
      <point x="58.43" y="-4.095000000000001" type="line"/>
      <point x="176.2775" y="324.3275" type="line"/>
      <point x="296.49499999999995" y="-4.095000000000001" type="line"/>
      <point x="332.7575" y="2.2750000000000004" type="line"/>
      <point x="200.16000000000003" y="358.7975" type="line"/>
      <point x="324.5525" y="696.8375" type="line"/>
      <point x="288.8975" y="703.1625" type="line"/>
      <point x="179.2075" y="396.18499999999995" type="line"/>
      <point x="66.79" y="703.1625" type="line"/>
      <point x="30.7525" y="696.8375" type="line"/>
      <point x="156.1" y="359.96" type="line"/>
    </contour>
  </outline>
</glyph>
<glyph name="Y" format="2">
  <advance width="338.11999999999995"/>
  <unicode hex="0059"/>
  <anchor x="169.879" y="700.0" name="top"/>
  <anchor x="169.697" y="0.0" name="bottom"/>
  <outline>
    <contour>
      <point x="152.84799999999998" y="0.0" type="line"/>
      <point x="188.103" y="0.0" type="line"/>
      <point x="188.103" y="305.35" type="line"/>
      <point x="326.43300000000005" y="696.8149999999999" type="line"/>
      <point x="291.11400000000003" y="703.1850000000001" type="line"/>
      <point x="170.53400000000002" y="342.394" type="line"/>
      <point x="43.766" y="703.1850000000001" type="line"/>
      <point x="8.411" y="696.8149999999999" type="line"/>
      <point x="152.84799999999998" y="305.35" type="line"/>
    </contour>
  </outline>
</glyph>
<glyph name="Z" format="2">
  <advance width="332.132"/>
  <unicode hex="005A"/>
  <anchor x="173.05899999999997" y="350.0" name="center"/>
  <anchor x="173.05899999999997" y="0.0" name="bottom"/>
  <anchor x="171.65200000000002" y="700.0" name="top"/>
  <outline>
    <contour>
      <point x="17.595" y="0.0" type="line"/>
      <point x="320.89899999999994" y="0.0" type="line"/>
      <point x="320.89899999999994" y="33.302" type="line"/>
      <point x="56.199000000000005" y="33.302" type="line"/>
      <point x="56.199000000000005" y="35.167" type="line"/>
      <point x="304.418" y="670.06" type="line"/>
      <point x="304.418" y="700.0" type="line"/>
      <point x="37.144" y="700.0" type="line"/>
      <point x="37.144" y="666.8330000000001" type="line"/>
      <point x="265.544" y="666.8330000000001" type="line"/>
      <point x="265.544" y="664.8330000000001" type="line"/>
      <point x="17.595" y="30.075" type="line"/>
    </contour>
  </outline>
</glyph>
<glyph name="bracketleft" format="2">
  <advance width="206.314"/>
  <unicode hex="005B"/>
  <outline>
    <contour>
      <point x="87.028" y="-178.39" type="line"/>
      <point x="87.028" y="708.39" type="line"/>
      <point x="196.224" y="708.39" type="line"/>
      <point x="196.224" y="740.0" type="line"/>
      <point x="55.985" y="740.0" type="line"/>
      <point x="55.985" y="-210.0" type="line"/>
      <point x="196.224" y="-210.0" type="line"/>
      <point x="196.224" y="-178.39" type="line"/>
    </contour>
  </outline>
</glyph>
<glyph name="backslash" format="2">
  <advance width="233.22699999999998"/>
  <unicode hex="005C"/>
  <outline>
    <contour>
      <point x="33.566" y="740.0" type="line"/>
      <point x="1.8279999999999998" y="740.0" type="line"/>
      <point x="199.742" y="-210.0" type="line"/>
      <point x="231.399" y="-210.0" type="line"/>
    </contour>
  </outline>
</glyph>
<glyph name="bracketright" format="2">
  <advance width="206.314"/>
  <unicode hex="005D"/>
  <outline>
    <contour>
      <point x="10.09" y="-178.39" type="line"/>
      <point x="10.09" y="-210.0" type="line"/>
      <point x="150.329" y="-210.0" type="line"/>
      <point x="150.329" y="740.0" type="line"/>
      <point x="10.09" y="740.0" type="line"/>
      <point x="10.09" y="708.39" type="line"/>
      <point x="119.28599999999999" y="708.39" type="line"/>
      <point x="119.28599999999999" y="-178.39" type="line"/>
    </contour>
  </outline>
</glyph>
<glyph name="asciicircum" format="2">
  <advance width="395.048"/>
  <unicode hex="005E"/>
  <outline>
    <contour>
      <point x="36.905" y="275.037" type="line"/>
      <point x="68.437" y="275.037" type="line"/>
      <point x="197.524" y="671.357" type="line"/>
      <point x="326.701" y="275.037" type="line"/>
      <point x="358.143" y="275.037" type="line"/>
      <point x="214.913" y="709.1" type="line"/>
      <point x="180.135" y="709.1" type="line"/>
    </contour>
  </outline>
</glyph>
<glyph name="underscore" format="2">
  <advance width="649.018"/>
  <unicode hex="005F"/>
  <outline>
    <contour>
      <point x="1.7999999999999998" y="-142.57899999999998" type="line"/>
      <point x="647.2180000000001" y="-142.57899999999998" type="line"/>
      <point x="647.2180000000001" y="-109.259" type="line"/>
      <point x="1.7999999999999998" y="-109.259" type="line"/>
    </contour>
  </outline>
</glyph>
<glyph name="a" format="2">
  <advance width="319.88"/>
  <unicode hex="0061"/>
  <anchor x="321.17999999999995" y="0.6199999999999999" name="ogonek"/>
  <anchor x="148.73499999999999" y="0.0" name="bottom"/>
  <anchor x="150.495" y="531.8" name="top"/>
  <outline>
    <contour>
      <point x="15.190000000000001" y="112.63" type="curve" smooth="yes"/>
      <point x="15.190000000000001" y="34.62"/>
      <point x="52.255" y="-10.0"/>
      <point x="113.7" y="-10.0" type="curve" smooth="yes"/>
      <point x="161.26500000000001" y="-10.0"/>
      <point x="198.915" y="14.695"/>
      <point x="228.45499999999998" y="44.695" type="curve"/>
      <point x="230.525" y="10.235"/>
      <point x="248.83" y="-10.0"/>
      <point x="279.59999999999997" y="-10.0" type="curve" smooth="yes"/>
      <point x="293.42999999999995" y="-10.0"/>
      <point x="306.29999999999995" y="-7.055"/>
      <point x="321.17999999999995" y="0.6649999999999999" type="curve"/>
      <point x="313.935" y="30.805" type="line"/>
      <point x="303.405" y="25.985"/>
      <point x="294.425" y="24.165"/>
      <point x="286.195" y="24.165" type="curve" smooth="yes"/>
      <point x="271.185" y="24.165"/>
      <point x="262.25" y="33.625"/>
      <point x="262.25" y="64.11" type="curve" smooth="yes"/>
      <point x="262.25" y="408.76" type="line" smooth="yes"/>
      <point x="262.25" y="494.39500000000004"/>
      <point x="225.34" y="541.8"/>
      <point x="144.72" y="541.8" type="curve" smooth="yes"/>
      <point x="115.515" y="541.8"/>
      <point x="80.02999999999999" y="535.99"/>
      <point x="42.86" y="522.3599999999999" type="curve"/>
      <point x="52.309999999999995" y="491.045" type="line"/>
      <point x="88.22500000000001" y="503.33500000000004"/>
      <point x="118.715" y="506.95000000000005"/>
      <point x="142.945" y="506.95000000000005" type="curve" smooth="yes"/>
      <point x="200.42999999999998" y="506.95000000000005"/>
      <point x="227.38" y="471.105"/>
      <point x="227.38" y="408.17499999999995" type="curve" smooth="yes"/>
      <point x="227.38" y="285.69" type="line"/>
      <point x="101.845" y="261.59"/>
      <point x="15.190000000000001" y="227.045"/>
    </contour>
    <contour>
      <point x="50.175" y="118.575" type="curve" smooth="yes"/>
      <point x="50.175" y="210.78500000000003"/>
      <point x="134.16" y="240.63500000000002"/>
      <point x="227.38" y="257.15" type="curve"/>
      <point x="227.38" y="79.8" type="line"/>
      <point x="202.815" y="50.415"/>
      <point x="164.39999999999998" y="20.745"/>
      <point x="121.705" y="20.745" type="curve" smooth="yes"/>
      <point x="77.64999999999999" y="20.745"/>
      <point x="50.175" y="55.405"/>
    </contour>
  </outline>
</glyph>
<glyph name="b" format="2">
  <advance width="329.991"/>
  <unicode hex="0062"/>
  <outline>
    <contour>
      <point x="49.345" y="6.933" type="line"/>
      <point x="89.115" y="-4.742999999999999"/>
      <point x="119.315" y="-10.0"/>
      <point x="147.204" y="-10.0" type="curve" smooth="yes"/>
      <point x="255.166" y="-10.0"/>
      <point x="298.435" y="69.50699999999999"/>
      <point x="298.435" y="278.304" type="curve" smooth="yes"/>
      <point x="298.435" y="449.309"/>
      <point x="256.915" y="541.8"/>
      <point x="180.07999999999998" y="541.8" type="curve" smooth="yes"/>
      <point x="148.304" y="541.8"/>
      <point x="112.204" y="529.9820000000001"/>
      <point x="84.42" y="510.835" type="curve"/>
      <point x="84.42" y="740.0" type="line"/>
      <point x="49.345" y="740.0" type="line"/>
    </contour>
    <contour>
      <point x="84.42" y="28.585" type="curve"/>
      <point x="84.42" y="478.71" type="line"/>
      <point x="118.18100000000001" y="501.764"/>
      <point x="140.15900000000002" y="509.56"/>
      <point x="170.04500000000002" y="509.56" type="curve" smooth="yes"/>
      <point x="229.478" y="509.56"/>
      <point x="262.43300000000005" y="428.407"/>
      <point x="262.43300000000005" y="276.477" type="curve" smooth="yes"/>
      <point x="262.43300000000005" y="84.26899999999999"/>
      <point x="230.116" y="19.107"/>
      <point x="144.432" y="19.107" type="curve" smooth="yes"/>
      <point x="127.82199999999999" y="19.107"/>
      <point x="112.095" y="21.689999999999998"/>
    </contour>
  </outline>
</glyph>
<glyph name="c" format="2">
  <advance width="278.959"/>
  <unicode hex="0063"/>
  <anchor x="168.63500000000002" y="531.8" name="top"/>
  <anchor x="169.99399999999997" y="0.0" name="bottom"/>
  <outline>
    <contour>
      <point x="31.646" y="260.432" type="curve" smooth="yes"/>
      <point x="31.646" y="70.06800000000001"/>
      <point x="77.99300000000001" y="-10.0"/>
      <point x="175.05900000000003" y="-10.0" type="curve" smooth="yes"/>
      <point x="203.113" y="-10.0"/>
      <point x="239.67200000000003" y="-4.915"/>
      <point x="261.576" y="1.157" type="curve"/>
      <point x="254.579" y="32.145999999999994" type="line"/>
      <point x="233.869" y="27.694"/>
      <point x="200.804" y="23.311"/>
      <point x="179.653" y="23.311" type="curve" smooth="yes"/>
      <point x="105.999" y="23.311"/>
      <point x="67.28800000000001" y="90.897"/>
      <point x="67.28800000000001" y="256.10299999999995" type="curve" smooth="yes"/>
      <point x="67.28800000000001" y="436.50100000000003"/>
      <point x="104.69699999999999" y="508.453"/>
      <point x="183.04399999999998" y="508.453" type="curve" smooth="yes"/>
      <point x="205.205" y="508.453"/>
      <point x="228.004" y="505.125"/>
      <point x="249.129" y="499.46999999999997" type="curve"/>
      <point x="255.45999999999995" y="531.053" type="line"/>
      <point x="232.93999999999997" y="538.1300000000001"/>
      <point x="204.57800000000003" y="541.8"/>
      <point x="182.13500000000002" y="541.8" type="curve" smooth="yes"/>
      <point x="79.26899999999999" y="541.8"/>
      <point x="31.646" y="459.70599999999996"/>
    </contour>
  </outline>
</glyph>
<glyph name="d" format="2">
  <advance width="330.09"/>
  <unicode hex="0064"/>
  <anchor x="164.95100000000002" y="275.0" name="center"/>
  <anchor x="167.4095" y="740.0" name="top"/>
  <anchor x="346.78000000000003" y="740.0" name="topright"/>
  <anchor x="164.95100000000002" y="0.0" name="bottom"/>
  <outline>
    <contour>
      <point x="251.221" y="-0.045" type="line"/>
      <point x="280.7675" y="-0.045" type="line"/>
      <point x="280.7675" y="740.0" type="line"/>
      <point x="245.5575" y="740.0" type="line"/>
      <point x="245.5575" y="532.4815000000001" type="line"/>
      <point x="221.20499999999998" y="539.1809999999999"/>
      <point x="199.81100000000004" y="541.8"/>
      <point x="179.27700000000002" y="541.8" type="curve" smooth="yes"/>
      <point x="75.122" y="541.8"/>
      <point x="31.542499999999997" y="460.349"/>
      <point x="31.542499999999997" y="254.2295" type="curve" smooth="yes"/>
      <point x="31.542499999999997" y="80.93400000000001"/>
      <point x="74.039" y="-10.0"/>
      <point x="152.66049999999998" y="-10.0" type="curve" smooth="yes"/>
      <point x="185.17" y="-10.0"/>
      <point x="217.247" y="0.17999999999999988"/>
      <point x="245.94" y="21.0225" type="curve"/>
    </contour>
    <contour>
      <point x="245.55750000000003" y="52.631" type="line"/>
      <point x="212.04850000000002" y="29.865"/>
      <point x="189.89049999999997" y="22.046499999999998"/>
      <point x="159.298" y="22.046499999999998" type="curve" smooth="yes"/>
      <point x="100.63900000000001" y="22.046499999999998"/>
      <point x="67.675" y="102.69"/>
      <point x="67.675" y="256.6820000000001" type="curve" smooth="yes"/>
      <point x="67.675" y="447.531"/>
      <point x="99.96050000000001" y="512.396"/>
      <point x="185.53199999999998" y="512.396" type="curve" smooth="yes"/>
      <point x="202.259" y="512.396"/>
      <point x="218.67899999999997" y="509.84450000000004"/>
      <point x="245.55750000000003" y="502.71100000000007" type="curve"/>
    </contour>
  </outline>
</glyph>
<glyph name="e" format="2">
  <advance width="317.746"/>
  <unicode hex="0065"/>
  <anchor x="256.923" y="3.1910000000000003" name="ogonek"/>
  <anchor x="171.67" y="0.0" name="bottom"/>
  <anchor x="168.898" y="531.8" name="top"/>
  <outline>
    <contour>
      <point x="170.837" y="-10.0" type="curve" smooth="yes"/>
      <point x="209.059" y="-10.0"/>
      <point x="248.412" y="-2.6029999999999998"/>
      <point x="281.845" y="10.337" type="curve"/>
      <point x="275.262" y="40.965999999999994" type="line"/>
      <point x="242.91199999999998" y="29.502999999999997"/>
      <point x="208.41400000000002" y="22.897000000000002"/>
      <point x="175.94000000000003" y="22.897000000000002" type="curve" smooth="yes"/>
      <point x="100.91700000000002" y="22.897000000000002"/>
      <point x="67.22500000000001" y="75.215"/>
      <point x="67.22500000000001" y="256.218" type="curve" smooth="yes"/>
      <point x="67.22500000000001" y="263.395"/>
      <point x="67.307" y="271.18300000000005"/>
      <point x="67.43400000000001" y="278.27799999999996" type="curve"/>
      <point x="172.225" y="278.50300000000004"/>
      <point x="251.854" y="288.728"/>
      <point x="290.789" y="294.572" type="curve"/>
      <point x="290.91599999999994" y="299.66299999999995"/>
      <point x="291.834" y="315.84200000000004"/>
      <point x="291.834" y="322.52500000000003" type="curve" smooth="yes"/>
      <point x="291.834" y="479.62200000000007"/>
      <point x="252.93600000000004" y="541.8"/>
      <point x="175.52499999999998" y="541.8" type="curve" smooth="yes"/>
      <point x="91.254" y="541.8"/>
      <point x="31.61" y="480.42299999999994"/>
      <point x="31.61" y="251.40300000000002" type="curve" smooth="yes"/>
      <point x="31.61" y="59.090999999999994"/>
      <point x="74.72300000000001" y="-10.0"/>
    </contour>
    <contour>
      <point x="67.72500000000001" y="306.882" type="curve"/>
      <point x="76.55" y="474.94000000000005"/>
      <point x="122.62699999999998" y="511.936"/>
      <point x="174.445" y="511.936" type="curve" smooth="yes"/>
      <point x="229.612" y="511.936"/>
      <point x="256.72200000000004" y="461.954"/>
      <point x="256.812" y="319.511" type="curve"/>
      <point x="233.823" y="314.2970000000001"/>
      <point x="148.512" y="306.927"/>
    </contour>
  </outline>
</glyph>
<glyph name="f" format="2">
  <advance width="233.28200000000004"/>
  <unicode hex="0066"/>
  <outline>
    <contour>
      <point x="79.93400000000001" y="0.0" type="line"/>
      <point x="114.649" y="0.0" type="line"/>
      <point x="114.649" y="456.503" type="line"/>
      <point x="220.84" y="456.503" type="line"/>
      <point x="220.84" y="487.64500000000004" type="line"/>
      <point x="114.73" y="487.64500000000004" type="line"/>
      <point x="114.73" y="515.5419999999999" type="line" smooth="yes"/>
      <point x="114.73" y="658.613"/>
      <point x="145.912" y="717.8960000000001"/>
      <point x="213.04500000000002" y="717.8960000000001" type="curve" smooth="yes"/>
      <point x="230.996" y="717.8960000000001"/>
      <point x="248.40800000000002" y="715.751"/>
      <point x="269.56399999999996" y="709.087" type="curve"/>
      <point x="275.77" y="738.6179999999999" type="line"/>
      <point x="250.16899999999998" y="746.878"/>
      <point x="229.159" y="750.091"/>
      <point x="208.001" y="750.091" type="curve" smooth="yes"/>
      <point x="122.354" y="750.091"/>
      <point x="79.93400000000001" y="680.024"/>
      <point x="79.93400000000001" y="515.758" type="curve" smooth="yes"/>
      <point x="79.93400000000001" y="487.64500000000004" type="line"/>
      <point x="13.635000000000002" y="481.529" type="line"/>
      <point x="13.635000000000002" y="456.503" type="line"/>
      <point x="79.93400000000001" y="456.503" type="line"/>
    </contour>
  </outline>
</glyph>
<glyph name="g" format="2">
  <advance width="331.51899999999995"/>
  <unicode hex="0067"/>
  <anchor x="170.288" y="531.8" name="top"/>
  <anchor x="172.564" y="-211.0" name="bottom"/>
  <outline>
    <contour>
      <point x="172.39299999999997" y="-220.0" type="curve" smooth="yes"/>
      <point x="268.051" y="-220.0"/>
      <point x="323.238" y="-162.81900000000002"/>
      <point x="323.238" y="-68.981" type="curve" smooth="yes"/>
      <point x="323.238" y="15.155"/>
      <point x="283.00700000000006" y="61.66400000000001"/>
      <point x="207.974" y="61.66400000000001" type="curve" smooth="yes"/>
      <point x="139.96400000000003" y="61.66400000000001" type="line" smooth="yes"/>
      <point x="89.786" y="61.66400000000001"/>
      <point x="73.053" y="88.128"/>
      <point x="73.053" y="124.775" type="curve" smooth="yes"/>
      <point x="73.053" y="161.988"/>
      <point x="89.145" y="192.224"/>
      <point x="119.274" y="215.665" type="curve"/>
      <point x="99.33800000000001" y="227.976" type="line"/>
      <point x="62.01" y="198.76199999999997"/>
      <point x="42.586" y="161.76500000000001"/>
      <point x="42.586" y="118.48899999999999" type="curve" smooth="yes"/>
      <point x="42.586" y="64.202"/>
      <point x="69.09099999999998" y="28.407"/>
      <point x="137.558" y="28.407" type="curve" smooth="yes"/>
      <point x="204.25699999999998" y="28.407" type="line" smooth="yes"/>
      <point x="258.91400000000004" y="28.407"/>
      <point x="289.468" y="-8.136"/>
      <point x="289.468" y="-70.797" type="curve" smooth="yes"/>
      <point x="289.468" y="-145.35699999999997"/>
      <point x="248.583" y="-188.363"/>
      <point x="173.74300000000002" y="-188.363" type="curve" smooth="yes"/>
      <point x="98.179" y="-188.363"/>
      <point x="59.077000000000005" y="-149.54999999999998"/>
      <point x="59.077000000000005" y="-72.28099999999999" type="curve" smooth="yes"/>
      <point x="59.077000000000005" y="-23.528999999999996"/>
      <point x="73.048" y="13.551000000000002"/>
      <point x="107.568" y="42.227" type="curve"/>
      <point x="83.39099999999999" y="51.98" type="line"/>
      <point x="43.039" y="19.166"/>
      <point x="27.062" y="-22.249"/>
      <point x="27.062" y="-76.72800000000001" type="curve" smooth="yes"/>
      <point x="27.062" y="-170.77"/>
      <point x="77.64" y="-220.0"/>
    </contour>
    <contour>
      <point x="166.773" y="201.10100000000003" type="curve" smooth="yes"/>
      <point x="245.223" y="201.10100000000003"/>
      <point x="284.43899999999996" y="257.72600000000006"/>
      <point x="284.43899999999996" y="371.1" type="curve" smooth="yes"/>
      <point x="284.43899999999996" y="484.519"/>
      <point x="245.223" y="541.8"/>
      <point x="166.773" y="541.8" type="curve" smooth="yes"/>
      <point x="88.18800000000002" y="541.8"/>
      <point x="48.972" y="484.519"/>
      <point x="48.972" y="371.1" type="curve" smooth="yes"/>
      <point x="48.972" y="257.72600000000006"/>
      <point x="88.18800000000002" y="201.10100000000003"/>
    </contour>
    <contour>
      <point x="166.773" y="231.57600000000002" type="curve" smooth="yes"/>
      <point x="109.72800000000001" y="231.57600000000002"/>
      <point x="83.417" y="274.6929999999999"/>
      <point x="83.417" y="371.1" type="curve" smooth="yes"/>
      <point x="83.417" y="468.33500000000004"/>
      <point x="109.72800000000001" y="511.37"/>
      <point x="166.773" y="511.37" type="curve" smooth="yes"/>
      <point x="223.818" y="511.37"/>
      <point x="249.99399999999997" y="468.33500000000004"/>
      <point x="249.99399999999997" y="371.1" type="curve" smooth="yes"/>
      <point x="249.99399999999997" y="274.6929999999999"/>
      <point x="223.818" y="231.57600000000002"/>
    </contour>
    <contour>
      <point x="254.717" y="473.66200000000003" type="line"/>
      <point x="269.497" y="504.349"/>
      <point x="285.547" y="517.4809999999999"/>
      <point x="306.40099999999995" y="517.4809999999999" type="curve" smooth="yes"/>
      <point x="313.351" y="517.4809999999999"/>
      <point x="316.56300000000005" y="517.219"/>
      <point x="320.23" y="515.965" type="curve"/>
      <point x="323.65200000000004" y="548.6550000000001" type="line"/>
      <point x="318.826" y="550.4940000000001"/>
      <point x="314.64500000000004" y="551.0709999999999"/>
      <point x="306.221" y="551.0709999999999" type="curve" smooth="yes"/>
      <point x="276.916" y="551.0709999999999"/>
      <point x="251.085" y="532.354"/>
      <point x="238.878" y="501.935" type="curve"/>
    </contour>
  </outline>
</glyph>
<glyph name="h" format="2">
  <advance width="336.7865"/>
  <unicode hex="0068"/>
  <anchor x="168.7245" y="395.0" name="center"/>
  <anchor x="168.8145" y="0.0" name="bottom"/>
  <anchor x="172.57649999999998" y="740.0" name="top"/>
  <outline>
    <contour>
      <point x="49.3225" y="0.0" type="line"/>
      <point x="84.465" y="0.0" type="line"/>
      <point x="84.465" y="477.33000000000004" type="line"/>
      <point x="112.784" y="496.02500000000003"/>
      <point x="149.0905" y="509.2585"/>
      <point x="179.826" y="509.2585" type="curve" smooth="yes"/>
      <point x="228.903" y="509.2585"/>
      <point x="252.389" y="480.047"/>
      <point x="252.389" y="427.80150000000003" type="curve" smooth="yes"/>
      <point x="252.389" y="0.0" type="line"/>
      <point x="287.599" y="0.0" type="line"/>
      <point x="287.599" y="432.8415" type="line" smooth="yes"/>
      <point x="287.599" y="511.20399999999995"/>
      <point x="247.6185" y="541.8"/>
      <point x="193.272" y="541.8" type="curve" smooth="yes"/>
      <point x="154.3185" y="541.8"/>
      <point x="116.243" y="528.2404999999999"/>
      <point x="84.465" y="508.88250000000005" type="curve"/>
      <point x="84.465" y="740.0" type="line"/>
      <point x="49.3225" y="740.0" type="line"/>
    </contour>
  </outline>
</glyph>
<glyph name="i" format="2">
  <advance width="133.765"/>
  <unicode hex="0069"/>
  <anchor x="84.32900000000001" y="0.0" name="ogonek"/>
  <anchor x="66.923" y="0.0" name="bottom"/>
  <outline>
    <contour>
      <point x="66.923" y="667.289" type="curve" smooth="yes"/>
      <point x="86.199" y="667.289"/>
      <point x="89.494" y="671.538"/>
      <point x="89.494" y="692.659" type="curve" smooth="yes"/>
      <point x="89.494" y="713.942"/>
      <point x="86.037" y="718.11"/>
      <point x="66.923" y="718.11" type="curve" smooth="yes"/>
      <point x="47.727999999999994" y="718.11"/>
      <point x="44.271" y="713.942"/>
      <point x="44.271" y="692.659" type="curve" smooth="yes"/>
      <point x="44.271" y="671.457"/>
      <point x="48.638000000000005" y="667.289"/>
    </contour>
    <contour>
      <point x="49.345" y="0.0" type="line"/>
      <point x="84.42" y="0.0" type="line"/>
      <point x="84.42" y="531.8" type="line"/>
      <point x="49.345" y="531.8" type="line"/>
    </contour>
  </outline>
</glyph>
<glyph name="j" format="2">
  <advance width="133.38"/>
  <unicode hex="006A"/>
  <outline>
    <contour>
      <point x="84.126" y="531.8" type="line"/>
      <point x="49.051" y="531.8" type="line"/>
      <point x="49.051" y="15.206000000000001" type="line" smooth="yes"/>
      <point x="49.051" y="-77.751"/>
      <point x="30.205000000000002" y="-136.706"/>
      <point x="-4.858" y="-165.826" type="curve" smooth="yes"/>
      <point x="-10.879999999999999" y="-170.467"/>
      <point x="-16.74" y="-173.955"/>
      <point x="-23.915000000000003" y="-176.371" type="curve"/>
      <point x="-17.910999999999998" y="-208.214" type="line"/>
      <point x="-7.0809999999999995" y="-204.745"/>
      <point x="2.849" y="-199.798"/>
      <point x="12.183000000000002" y="-194.33800000000002" type="curve" smooth="yes"/>
      <point x="60.552" y="-160.85"/>
      <point x="84.126" y="-94.75200000000001"/>
      <point x="84.126" y="13.847" type="curve" smooth="yes"/>
    </contour>
    <contour>
      <point x="66.447" y="667.289" type="curve" smooth="yes"/>
      <point x="84.904" y="667.289"/>
      <point x="89.018" y="671.538"/>
      <point x="89.018" y="692.659" type="curve" smooth="yes"/>
      <point x="89.018" y="713.942"/>
      <point x="84.74199999999999" y="718.11"/>
      <point x="66.447" y="718.11" type="curve" smooth="yes"/>
      <point x="47.252" y="718.11"/>
      <point x="43.795" y="713.942"/>
      <point x="43.795" y="692.659" type="curve" smooth="yes"/>
      <point x="43.795" y="671.457"/>
      <point x="48.162" y="667.289"/>
    </contour>
  </outline>
</glyph>
<glyph name="k" format="2">
  <advance width="309.92999999999995"/>
  <unicode hex="006B"/>
  <anchor x="66.455" y="740.0" name="top"/>
  <anchor x="174.07999999999998" y="0.0" name="bottom"/>
  <outline>
    <contour>
      <point x="300.32000000000005" y="-6.815" type="curve" smooth="yes"/>
      <point x="306.96999999999997" y="-6.815"/>
      <point x="313.69" y="-4.995"/>
      <point x="318.975" y="-3.065" type="curve"/>
      <point x="316.90500000000003" y="33.150000000000006" type="line"/>
      <point x="312.745" y="32.33"/>
      <point x="307.88" y="31.33"/>
      <point x="304.22" y="31.33" type="curve" smooth="yes"/>
      <point x="284.935" y="31.33"/>
      <point x="272.79" y="41.0"/>
      <point x="203.555" y="152.095" type="curve" smooth="yes"/>
      <point x="83.52" y="344.635" type="line"/>
      <point x="83.52" y="740.0" type="line"/>
      <point x="49.39" y="740.0" type="line"/>
      <point x="49.39" y="0.0" type="line"/>
      <point x="83.52" y="0.0" type="line"/>
      <point x="83.52" y="282.38" type="line"/>
      <point x="187.88" y="117.23" type="line" smooth="yes"/>
      <point x="260.70500000000004" y="2.7199999999999998"/>
      <point x="271.82" y="-6.815"/>
    </contour>
    <contour>
      <point x="135.10999999999999" y="236.77" type="line"/>
      <point x="191.13500000000002" y="311.03499999999997"/>
      <point x="262.985" y="407.57"/>
      <point x="289.82" y="533.165" type="curve"/>
      <point x="256.86" y="540.8" type="line"/>
      <point x="230.085" y="410.76"/>
      <point x="165.68" y="330.925"/>
      <point x="114.24000000000001" y="263.235" type="curve"/>
    </contour>
  </outline>
</glyph>
<glyph name="l" format="2">
  <advance width="165.01700000000002"/>
  <unicode hex="006C"/>
  <anchor x="82.995" y="395.0" name="center"/>
  <anchor x="66.923" y="740.0" name="top"/>
  <anchor x="150.45499999999998" y="740.0" name="topright"/>
  <anchor x="106.72500000000001" y="0.0" name="bottom"/>
  <outline>
    <contour>
      <point x="84.42" y="740.0" type="line"/>
      <point x="49.345" y="740.0" type="line"/>
      <point x="49.345" y="100.253" type="line" smooth="yes"/>
      <point x="49.345" y="10.51"/>
      <point x="73.577" y="-10.0"/>
      <point x="119.483" y="-10.0" type="curve" smooth="yes"/>
      <point x="133.621" y="-10.0"/>
      <point x="149.639" y="-6.465"/>
      <point x="163.678" y="-0.39" type="curve"/>
      <point x="158.922" y="31.139" type="line"/>
      <point x="143.533" y="26.063"/>
      <point x="133.258" y="24.480999999999998"/>
      <point x="124.919" y="24.480999999999998" type="curve" smooth="yes"/>
      <point x="100.272" y="24.480999999999998"/>
      <point x="84.42" y="36.959"/>
      <point x="84.42" y="102.56599999999999" type="curve" smooth="yes"/>
    </contour>
  </outline>
</glyph>
<glyph name="m" format="2">
  <advance width="515.771"/>
  <unicode hex="006D"/>
  <outline>
    <contour>
      <point x="49.345" y="0.0" type="line"/>
      <point x="84.50099999999999" y="0.0" type="line"/>
      <point x="84.50099999999999" y="479.98699999999997" type="line"/>
      <point x="110.456" y="497.154"/>
      <point x="142.763" y="508.826"/>
      <point x="170.455" y="508.826" type="curve" smooth="yes"/>
      <point x="221.907" y="508.826"/>
      <point x="240.61599999999999" y="474.242"/>
      <point x="240.61599999999999" y="427.36899999999997" type="curve" smooth="yes"/>
      <point x="240.61599999999999" y="0.0" type="line"/>
      <point x="275.772" y="0.0" type="line"/>
      <point x="275.772" y="428.32300000000004" type="line" smooth="yes"/>
      <point x="275.772" y="446.75800000000004"/>
      <point x="273.133" y="462.91700000000003"/>
      <point x="268.028" y="476.61999999999995" type="curve"/>
      <point x="294.88300000000004" y="495.534"/>
      <point x="329.538" y="509.29"/>
      <point x="360.943" y="509.29" type="curve" smooth="yes"/>
      <point x="412.74999999999994" y="509.29"/>
      <point x="431.432" y="474.624"/>
      <point x="431.432" y="427.733" type="curve" smooth="yes"/>
      <point x="431.432" y="0.0" type="line"/>
      <point x="466.588" y="0.0" type="line"/>
      <point x="466.588" y="433.16" type="line" smooth="yes"/>
      <point x="466.588" y="504.204"/>
      <point x="432.64" y="541.8"/>
      <point x="374.55100000000004" y="541.8" type="curve" smooth="yes"/>
      <point x="324.915" y="541.8"/>
      <point x="283.78700000000003" y="520.88"/>
      <point x="258.741" y="502.73900000000003" type="curve"/>
      <point x="243.299" y="527.831"/>
      <point x="217.55" y="541.3449999999999"/>
      <point x="183.964" y="541.3449999999999" type="curve" smooth="yes"/>
      <point x="147.285" y="541.3449999999999"/>
      <point x="112.592" y="528.579"/>
      <point x="82.845" y="510.83600000000007" type="curve"/>
      <point x="82.845" y="531.8" type="line"/>
      <point x="49.345" y="531.8" type="line"/>
    </contour>
  </outline>
</glyph>
<glyph name="n" format="2">
  <advance width="336.827"/>
  <unicode hex="006E"/>
  <anchor x="171.64000000000001" y="531.8" name="top"/>
  <anchor x="173.46" y="0.0" name="bottom"/>
  <outline>
    <contour>
      <point x="49.345" y="0.0" type="line"/>
      <point x="84.50099999999999" y="0.0" type="line"/>
      <point x="84.50099999999999" y="477.348" type="line"/>
      <point x="112.757" y="495.989"/>
      <point x="149.149" y="509.326"/>
      <point x="179.91600000000003" y="509.326" type="curve" smooth="yes"/>
      <point x="228.993" y="509.326"/>
      <point x="252.488" y="480.083"/>
      <point x="252.488" y="427.824" type="curve" smooth="yes"/>
      <point x="252.488" y="0.0" type="line"/>
      <point x="287.644" y="0.0" type="line"/>
      <point x="287.644" y="433.251" type="line" smooth="yes"/>
      <point x="287.644" y="510.439"/>
      <point x="248.25300000000001" y="541.8"/>
      <point x="193.317" y="541.8" type="curve" smooth="yes"/>
      <point x="153.81900000000002" y="541.8"/>
      <point x="115.57600000000001" y="528.4789999999999"/>
      <point x="82.845" y="508.743" type="curve"/>
      <point x="82.845" y="531.8" type="line"/>
      <point x="49.345" y="531.8" type="line"/>
    </contour>
  </outline>
</glyph>
<glyph name="o" format="2">
  <advance width="331.46599999999995"/>
  <unicode hex="006F"/>
  <anchor x="203.81699999999998" y="0.828" name="ogonek"/>
  <anchor x="165.73299999999998" y="531.8" name="top"/>
  <anchor x="235.55599999999998" y="522.7099999999999" name="topright"/>
  <anchor x="165.733" y="0.0" name="bottom"/>
  <outline>
    <contour>
      <point x="31.564999999999998" y="266.181" type="curve" smooth="yes"/>
      <point x="31.564999999999998" y="54.111"/>
      <point x="68.87899999999999" y="-10.0"/>
      <point x="165.733" y="-10.0" type="curve" smooth="yes"/>
      <point x="262.587" y="-10.0"/>
      <point x="299.901" y="54.111"/>
      <point x="299.901" y="266.181" type="curve" smooth="yes"/>
      <point x="299.901" y="476.951"/>
      <point x="264.287" y="541.8"/>
      <point x="165.733" y="541.8" type="curve" smooth="yes"/>
      <point x="67.161" y="541.8"/>
      <point x="31.564999999999998" y="476.951"/>
    </contour>
    <contour>
      <point x="67.405" y="266.18100000000004" type="curve" smooth="yes"/>
      <point x="67.405" y="457.42300000000006"/>
      <point x="93.94500000000001" y="510.01000000000005"/>
      <point x="165.73299999999998" y="510.01000000000005" type="curve" smooth="yes"/>
      <point x="237.44" y="510.01000000000005"/>
      <point x="264.04299999999995" y="457.42300000000006"/>
      <point x="264.04299999999995" y="266.18100000000004" type="curve" smooth="yes"/>
      <point x="264.04299999999995" y="73.957"/>
      <point x="235.84799999999998" y="21.871"/>
      <point x="165.73299999999998" y="21.871" type="curve" smooth="yes"/>
      <point x="95.537" y="21.871"/>
      <point x="67.405" y="73.957"/>
    </contour>
  </outline>
</glyph>
<glyph name="p" format="2">
  <advance width="330.072"/>
  <unicode hex="0070"/>
  <outline>
    <contour>
      <point x="49.345" y="-210.0" type="line"/>
      <point x="84.50999999999999" y="-210.0" type="line"/>
      <point x="84.50999999999999" y="-0.5589999999999998" type="line"/>
      <point x="110.294" y="-7.372"/>
      <point x="131.497" y="-10.0"/>
      <point x="150.768" y="-10.0" type="curve" smooth="yes"/>
      <point x="254.923" y="-10.0"/>
      <point x="298.516" y="71.532"/>
      <point x="298.516" y="277.65599999999995" type="curve" smooth="yes"/>
      <point x="298.516" y="448.499"/>
      <point x="256.834" y="541.8"/>
      <point x="180.647" y="541.8" type="curve" smooth="yes"/>
      <point x="147.971" y="541.8"/>
      <point x="112.29400000000001" y="530.171"/>
      <point x="83.81700000000001" y="510.5469999999999" type="curve"/>
      <point x="82.845" y="539.99" type="line"/>
      <point x="49.345" y="539.99" type="line"/>
    </contour>
    <contour>
      <point x="144.513" y="19.430999999999997" type="curve" smooth="yes"/>
      <point x="127.82199999999999" y="19.430999999999997"/>
      <point x="112.095" y="22.095"/>
      <point x="84.50099999999999" y="29.151999999999997" type="curve"/>
      <point x="84.50099999999999" y="479.277" type="line"/>
      <point x="118.10000000000001" y="502.169"/>
      <point x="140.15900000000002" y="509.884"/>
      <point x="169.964" y="509.884" type="curve" smooth="yes"/>
      <point x="229.478" y="509.884"/>
      <point x="262.43300000000005" y="428.569"/>
      <point x="262.43300000000005" y="275.181" type="curve" smooth="yes"/>
      <point x="262.43300000000005" y="84.43100000000001"/>
      <point x="230.116" y="19.430999999999997"/>
    </contour>
  </outline>
</glyph>
<glyph name="q" format="2">
  <advance width="330.153"/>
  <unicode hex="0071"/>
  <outline>
    <contour>
      <point x="280.808" y="526.0100000000001" type="line"/>
      <point x="239.229" y="537.5239999999999"/>
      <point x="211.405" y="541.8"/>
      <point x="182.949" y="541.8" type="curve" smooth="yes"/>
      <point x="75.79700000000001" y="541.8"/>
      <point x="31.555999999999997" y="461.726"/>
      <point x="31.555999999999997" y="255.76399999999998" type="curve" smooth="yes"/>
      <point x="31.555999999999997" y="83.715"/>
      <point x="73.814" y="-10.0"/>
      <point x="150.073" y="-10.0" type="curve" smooth="yes"/>
      <point x="182.01100000000002" y="-10.0"/>
      <point x="218.111" y="1.8180000000000003"/>
      <point x="245.733" y="20.884" type="curve"/>
      <point x="245.733" y="-210.0" type="line"/>
      <point x="280.808" y="-210.0" type="line"/>
    </contour>
    <contour>
      <point x="245.652" y="502.234" type="curve"/>
      <point x="245.652" y="52.928" type="line"/>
      <point x="212.05300000000003" y="29.955000000000002"/>
      <point x="189.994" y="22.078"/>
      <point x="160.108" y="22.078" type="curve" smooth="yes"/>
      <point x="101.49400000000001" y="22.078"/>
      <point x="67.72" y="104.869"/>
      <point x="67.72" y="255.16099999999997" type="curve" smooth="yes"/>
      <point x="67.72" y="447.369"/>
      <point x="100.037" y="512.531"/>
      <point x="185.72099999999998" y="512.531" type="curve" smooth="yes"/>
      <point x="201.44" y="512.531"/>
      <point x="218.05800000000002" y="509.94800000000004"/>
    </contour>
  </outline>
</glyph>
<glyph name="r" format="2">
  <advance width="238.692"/>
  <unicode hex="0072"/>
  <anchor x="140.87699999999998" y="531.8" name="top"/>
  <anchor x="66.84200000000001" y="0.0" name="bottom"/>
  <outline>
    <contour>
      <point x="82.764" y="531.8" type="line"/>
      <point x="49.345" y="531.8" type="line"/>
      <point x="49.345" y="0.0" type="line"/>
      <point x="84.339" y="0.0" type="line"/>
      <point x="84.339" y="450.93699999999995" type="line"/>
      <point x="119.545" y="491.54"/>
      <point x="151.872" y="507.49899999999997"/>
      <point x="186.198" y="507.49899999999997" type="curve" smooth="yes"/>
      <point x="200.767" y="507.49899999999997"/>
      <point x="217.02" y="505.07899999999995"/>
      <point x="232.656" y="500.488" type="curve"/>
      <point x="239.98600000000002" y="533.583" type="line"/>
      <point x="223.827" y="539.217"/>
      <point x="206.069" y="541.8"/>
      <point x="188.408" y="541.8" type="curve" smooth="yes"/>
      <point x="149.103" y="541.8"/>
      <point x="112.43099999999998" y="523.2520000000001"/>
      <point x="82.764" y="489.261" type="curve"/>
    </contour>
  </outline>
</glyph>
<glyph name="s" format="2">
  <advance width="269.675"/>
  <unicode hex="0073"/>
  <anchor x="132.25" y="531.8" name="top"/>
  <anchor x="129.29" y="0.0" name="bottom"/>
  <outline>
    <contour>
      <point x="8.38" y="13.015" type="line"/>
      <point x="36.71999999999999" y="-2.3200000000000003"/>
      <point x="78.875" y="-10.0"/>
      <point x="118.51" y="-10.0" type="curve" smooth="yes"/>
      <point x="198.48499999999999" y="-10.0"/>
      <point x="253.165" y="34.39"/>
      <point x="253.165" y="119.62" type="curve" smooth="yes"/>
      <point x="253.165" y="204.76000000000002"/>
      <point x="204.22000000000003" y="246.14"/>
      <point x="147.28" y="287.25" type="curve" smooth="yes"/>
      <point x="100.715" y="322.365"/>
      <point x="58.6" y="357.765"/>
      <point x="58.6" y="420.335" type="curve" smooth="yes"/>
      <point x="58.6" y="473.83"/>
      <point x="93.10499999999999" y="508.52500000000003"/>
      <point x="150.665" y="508.52500000000003" type="curve" smooth="yes"/>
      <point x="177.82999999999998" y="508.52500000000003"/>
      <point x="203.02" y="502.55"/>
      <point x="224.34" y="494.26" type="curve"/>
      <point x="233.575" y="525.085" type="line"/>
      <point x="211.045" y="535.51"/>
      <point x="180.575" y="541.8"/>
      <point x="150.26" y="541.8" type="curve" smooth="yes"/>
      <point x="69.33" y="541.8"/>
      <point x="24.424999999999997" y="491.72999999999996"/>
      <point x="24.424999999999997" y="418.35499999999996" type="curve" smooth="yes"/>
      <point x="24.424999999999997" y="342.32"/>
      <point x="70.485" y="297.75"/>
      <point x="124.055" y="258.825" type="curve" smooth="yes"/>
      <point x="178.51" y="220.64000000000001"/>
      <point x="218.855" y="184.175"/>
      <point x="218.855" y="118.54" type="curve" smooth="yes"/>
      <point x="218.855" y="56.849999999999994"/>
      <point x="177.775" y="23.005000000000003"/>
      <point x="118.06" y="23.005000000000003" type="curve" smooth="yes"/>
      <point x="84.045" y="23.005000000000003"/>
      <point x="44.045" y="30.025"/>
      <point x="18.644999999999996" y="42.73" type="curve"/>
    </contour>
  </outline>
</glyph>
<glyph name="t" format="2">
  <advance width="242.492"/>
  <unicode hex="0074"/>
  <anchor x="120.89099999999999" y="275.0" name="center"/>
  <anchor x="92.94800000000001" y="664.109" name="top"/>
  <anchor x="202.314" y="747.48" name="topright"/>
  <anchor x="149.624" y="0.0" name="bottom"/>
  <outline>
    <contour>
      <point x="173.43599999999998" y="-10.0" type="curve" smooth="yes"/>
      <point x="192.89100000000002" y="-10.0"/>
      <point x="216.921" y="-6.819000000000001"/>
      <point x="242.882" y="1.7770000000000006" type="curve"/>
      <point x="236.648" y="31.999999999999996" type="line"/>
      <point x="217.278" y="25.56"/>
      <point x="198.89000000000001" y="23.05"/>
      <point x="180.226" y="23.05" type="curve" smooth="yes"/>
      <point x="127.471" y="23.05"/>
      <point x="106.78" y="52.407999999999994"/>
      <point x="106.78" y="123.574" type="curve" smooth="yes"/>
      <point x="106.78" y="500.65799999999996" type="line"/>
      <point x="234.177" y="500.65799999999996" type="line"/>
      <point x="234.177" y="531.8" type="line"/>
      <point x="106.78" y="531.8" type="line"/>
      <point x="106.78" y="664.109" type="line"/>
      <point x="78.297" y="664.109" type="line"/>
      <point x="71.705" y="531.8" type="line"/>
      <point x="8.085" y="525.765" type="line"/>
      <point x="8.085" y="500.739" type="line"/>
      <point x="71.705" y="500.739" type="line"/>
      <point x="71.705" y="121.666" type="line" smooth="yes"/>
      <point x="71.705" y="43.754"/>
      <point x="92.885" y="-10.0"/>
    </contour>
  </outline>
</glyph>
<glyph name="u" format="2">
  <advance width="342.798"/>
  <unicode hex="0075"/>
  <anchor x="342.727" y="0.6379999999999999" name="ogonek"/>
  <anchor x="166.043" y="531.8" name="top"/>
  <anchor x="283.488" y="531.8" name="topright"/>
  <anchor x="171.858" y="0.0" name="bottom"/>
  <outline>
    <contour>
      <point x="142.783" y="-10.0" type="curve" smooth="yes"/>
      <point x="181.92900000000003" y="-10.0"/>
      <point x="219.481" y="3.888000000000001"/>
      <point x="252.942" y="24.507" type="curve"/>
      <point x="258.225" y="2.666"/>
      <point x="277.41499999999996" y="-10.0"/>
      <point x="300.14599999999996" y="-10.0" type="curve" smooth="yes"/>
      <point x="314.012" y="-10.0"/>
      <point x="327.44599999999997" y="-6.928"/>
      <point x="342.727" y="0.6379999999999999" type="curve"/>
      <point x="335.341" y="30.497999999999998" type="line"/>
      <point x="325.826" y="25.830999999999996"/>
      <point x="316.723" y="23.830000000000002"/>
      <point x="307.85499999999996" y="23.830000000000002" type="curve" smooth="yes"/>
      <point x="292.49300000000005" y="23.830000000000002"/>
      <point x="283.488" y="33.435"/>
      <point x="283.488" y="58.621" type="curve" smooth="yes"/>
      <point x="283.488" y="531.8" type="line"/>
      <point x="248.413" y="531.8" type="line"/>
      <point x="248.413" y="54.307" type="line"/>
      <point x="221.20399999999998" y="35.74"/>
      <point x="185.194" y="22.438"/>
      <point x="155.48200000000003" y="22.438" type="curve" smooth="yes"/>
      <point x="107.843" y="22.438"/>
      <point x="84.339" y="51.226"/>
      <point x="84.339" y="102.03" type="curve" smooth="yes"/>
      <point x="84.339" y="531.8" type="line"/>
      <point x="49.183" y="531.8" type="line"/>
      <point x="49.183" y="98.75399999999999" type="line" smooth="yes"/>
      <point x="49.183" y="20.470000000000002"/>
      <point x="89.61300000000001" y="-10.0"/>
    </contour>
  </outline>
</glyph>
<glyph name="v" format="2">
  <advance width="306.5795"/>
  <unicode hex="0076"/>
  <outline>
    <contour>
      <point x="134.56199999999998" y="0.0" type="line"/>
      <point x="171.7915" y="0.0" type="line"/>
      <point x="293.77299999999997" y="529.616" type="line"/>
      <point x="257.75699999999995" y="533.984" type="line"/>
      <point x="153.4815" y="54.521" type="line"/>
      <point x="48.934999999999995" y="533.984" type="line"/>
      <point x="12.784" y="529.616" type="line"/>
    </contour>
  </outline>
</glyph>
<glyph name="w" format="2">
  <advance width="453.983"/>
  <unicode hex="0077"/>
  <anchor x="226.871" y="531.8" name="top"/>
  <anchor x="226.871" y="0.0" name="bottom"/>
  <outline>
    <contour>
      <point x="107.01599999999999" y="0.0" type="line"/>
      <point x="143.827" y="0.0" type="line"/>
      <point x="226.934" y="468.699" type="line"/>
      <point x="310.807" y="0.0" type="line"/>
      <point x="347.39300000000003" y="0.0" type="line"/>
      <point x="443.692" y="528.8380000000001" type="line"/>
      <point x="408.786" y="533.1740000000001" type="line"/>
      <point x="328.573" y="57.025" type="line"/>
      <point x="245.07899999999998" y="531.8" type="line"/>
      <point x="208.654" y="531.8" type="line"/>
      <point x="126.47999999999999" y="56.802" type="line"/>
      <point x="45.367999999999995" y="533.1740000000001" type="line"/>
      <point x="10.041" y="528.8380000000001" type="line"/>
    </contour>
  </outline>
</glyph>
<glyph name="x" format="2">
  <advance width="324.04499999999996"/>
  <unicode hex="0078"/>
  <outline>
    <contour>
      <point x="8.165000000000001" y="-4.095000000000001" type="line"/>
      <point x="43.8525" y="-8.85" type="line"/>
      <point x="161.305" y="243.41" type="line"/>
      <point x="281.0775" y="-8.85" type="line"/>
      <point x="316.9025" y="-4.095000000000001" type="line"/>
      <point x="184.7375" y="270.96999999999997" type="line"/>
      <point x="305.48749999999995" y="529.525" type="line"/>
      <point x="270.315" y="534.325" type="line"/>
      <point x="163.14499999999998" y="301.50249999999994" type="line"/>
      <point x="54.655" y="535.0075" type="line"/>
      <point x="19.099999999999998" y="528.6375" type="line"/>
      <point x="139.57750000000001" y="274.52" type="line"/>
    </contour>
  </outline>
</glyph>
<glyph name="y" format="2">
  <advance width="307.0395"/>
  <unicode hex="0079"/>
  <anchor x="152.2565" y="531.8" name="top"/>
  <anchor x="249.5875" y="0.0" name="bottom"/>
  <outline>
    <contour>
      <point x="106.148" y="-207.916" type="line"/>
      <point x="143.02100000000002" y="-213.00199999999998" type="line"/>
      <point x="292.6985" y="530.08" type="line"/>
      <point x="256.3295" y="534.2660000000001" type="line"/>
      <point x="163.59199999999998" y="49.894" type="line"/>
      <point x="50.177" y="534.348" type="line"/>
      <point x="13.603" y="529.98" type="line"/>
      <point x="143.1535" y="0.0" type="line"/>
      <point x="148.048" y="0.0" type="line"/>
    </contour>
  </outline>
</glyph>
<glyph name="z" format="2">
  <advance width="297.8545"/>
  <unicode hex="007A"/>
  <anchor x="150.01399999999998" y="531.8" name="top"/>
  <outline>
    <contour>
      <point x="20.810500000000005" y="0.0" type="line"/>
      <point x="283.369" y="0.0" type="line"/>
      <point x="283.369" y="32.312000000000005" type="line"/>
      <point x="60.647" y="32.312000000000005" type="line"/>
      <point x="267.113" y="502.21250000000003" type="line"/>
      <point x="267.113" y="531.8" type="line"/>
      <point x="30.6885" y="531.8" type="line"/>
      <point x="30.6885" y="499.66799999999995" type="line"/>
      <point x="228.26200000000003" y="499.66799999999995" type="line"/>
      <point x="20.810500000000005" y="29.835" type="line"/>
    </contour>
  </outline>
</glyph>
<glyph name="braceleft" format="2">
  <advance width="225.151"/>
  <unicode hex="007B"/>
  <outline>
    <contour>
      <point x="77.38399999999999" y="-69.11699999999999" type="curve" smooth="yes"/>
      <point x="77.38399999999999" y="-146.97400000000002"/>
      <point x="104.50599999999999" y="-210.08100000000002"/>
      <point x="167.615" y="-210.08100000000002" type="curve" smooth="yes"/>
      <point x="195.314" y="-210.08100000000002" type="line"/>
      <point x="195.314" y="-178.471" type="line"/>
      <point x="171.935" y="-178.471" type="line" smooth="yes"/>
      <point x="126.09499999999998" y="-178.471"/>
      <point x="109.462" y="-126.984"/>
      <point x="109.462" y="-66.957" type="curve" smooth="yes"/>
      <point x="109.462" y="14.626999999999999"/>
      <point x="141.661" y="77.646"/>
      <point x="141.661" y="164.044" type="curve" smooth="yes"/>
      <point x="141.661" y="199.213"/>
      <point x="131.483" y="247.50300000000001"/>
      <point x="101.913" y="265.0" type="curve"/>
      <point x="131.392" y="286.73100000000005"/>
      <point x="141.661" y="330.52399999999994"/>
      <point x="141.661" y="365.693" type="curve" smooth="yes"/>
      <point x="141.661" y="446.72200000000004"/>
      <point x="109.462" y="509.28600000000006"/>
      <point x="109.462" y="596.6940000000001" type="curve" smooth="yes"/>
      <point x="109.462" y="656.721"/>
      <point x="126.09499999999998" y="708.39"/>
      <point x="171.935" y="708.39" type="curve" smooth="yes"/>
      <point x="195.314" y="708.39" type="line"/>
      <point x="195.314" y="740.0" type="line"/>
      <point x="167.615" y="740.0" type="line" smooth="yes"/>
      <point x="104.50599999999999" y="740.0"/>
      <point x="77.38399999999999" y="676.711"/>
      <point x="77.38399999999999" y="598.8539999999999" type="curve" smooth="yes"/>
      <point x="77.38399999999999" y="502.39"/>
      <point x="110.34800000000001" y="443.92100000000005"/>
      <point x="110.34800000000001" y="364.793" type="curve" smooth="yes"/>
      <point x="110.34800000000001" y="327.515"/>
      <point x="100.37100000000001" y="281.12"/>
      <point x="75.73400000000001" y="281.12" type="curve" smooth="yes"/>
      <point x="55.166" y="281.12" type="line"/>
      <point x="55.166" y="248.79899999999998" type="line"/>
      <point x="75.73400000000001" y="248.79899999999998" type="line" smooth="yes"/>
      <point x="100.37100000000001" y="248.79899999999998"/>
      <point x="110.34800000000001" y="203.04099999999997"/>
      <point x="110.34800000000001" y="164.94400000000002" type="curve" smooth="yes"/>
      <point x="110.34800000000001" y="83.54100000000001"/>
      <point x="77.38399999999999" y="21.432"/>
    </contour>
  </outline>
</glyph>
<glyph name="bar" format="2">
  <advance width="133.126"/>
  <unicode hex="007C"/>
  <outline>
    <contour>
      <point x="82.773" y="790.081" type="line"/>
      <point x="50.352999999999994" y="790.081" type="line"/>
      <point x="50.352999999999994" y="-210.0" type="line"/>
      <point x="82.773" y="-210.0" type="line"/>
    </contour>
  </outline>
</glyph>
<glyph name="braceright" format="2">
  <advance width="225.151"/>
  <unicode hex="007D"/>
  <outline>
    <contour>
      <point x="29.837" y="-178.471" type="line"/>
      <point x="29.837" y="-210.08100000000002" type="line"/>
      <point x="58.355" y="-210.08100000000002" type="line" smooth="yes"/>
      <point x="121.464" y="-210.08100000000002"/>
      <point x="148.586" y="-146.97400000000002"/>
      <point x="148.586" y="-69.11699999999999" type="curve" smooth="yes"/>
      <point x="148.586" y="21.432"/>
      <point x="115.622" y="83.54100000000001"/>
      <point x="115.622" y="164.94400000000002" type="curve" smooth="yes"/>
      <point x="115.622" y="203.04099999999997"/>
      <point x="125.599" y="248.79899999999998"/>
      <point x="150.236" y="248.79899999999998" type="curve" smooth="yes"/>
      <point x="169.98499999999999" y="248.79899999999998" type="line"/>
      <point x="169.98499999999999" y="281.12" type="line"/>
      <point x="150.236" y="281.12" type="line" smooth="yes"/>
      <point x="124.78" y="281.12"/>
      <point x="115.622" y="327.515"/>
      <point x="115.622" y="364.793" type="curve" smooth="yes"/>
      <point x="115.622" y="443.92100000000005"/>
      <point x="148.586" y="502.39"/>
      <point x="148.586" y="598.8539999999999" type="curve" smooth="yes"/>
      <point x="148.586" y="676.711"/>
      <point x="121.464" y="740.0"/>
      <point x="58.355" y="740.0" type="curve" smooth="yes"/>
      <point x="29.837" y="740.0" type="line"/>
      <point x="29.837" y="708.39" type="line"/>
      <point x="52.658" y="708.39" type="line" smooth="yes"/>
      <point x="97.679" y="708.39"/>
      <point x="115.131" y="656.721"/>
      <point x="115.131" y="596.6940000000001" type="curve" smooth="yes"/>
      <point x="115.131" y="509.28600000000006"/>
      <point x="82.932" y="446.72200000000004"/>
      <point x="82.932" y="365.693" type="curve" smooth="yes"/>
      <point x="82.932" y="330.52399999999994"/>
      <point x="92.382" y="286.73100000000005"/>
      <point x="122.68" y="265.0" type="curve"/>
      <point x="92.29100000000001" y="247.50300000000001"/>
      <point x="82.932" y="199.213"/>
      <point x="82.932" y="164.044" type="curve" smooth="yes"/>
      <point x="82.932" y="77.646"/>
      <point x="115.131" y="14.626999999999999"/>
      <point x="115.131" y="-66.957" type="curve" smooth="yes"/>
      <point x="115.131" y="-126.984"/>
      <point x="97.679" y="-178.471"/>
      <point x="52.658" y="-178.471" type="curve" smooth="yes"/>
    </contour>
  </outline>
</glyph>
<glyph name="asciitilde" format="2">
  <advance width="395.048"/>
  <unicode hex="007E"/>
  <outline>
    <contour>
      <point x="339.245" y="251.371" type="curve"/>
      <point x="339.245" y="288.5199999999999" type="line"/>
      <point x="320.562" y="263.20099999999996"/>
      <point x="304.856" y="250.97"/>
      <point x="281.117" y="250.97" type="curve" smooth="yes"/>
      <point x="218.376" y="250.97"/>
      <point x="183.012" y="365.291"/>
      <point x="115.82600000000001" y="365.291" type="curve" smooth="yes"/>
      <point x="88.846" y="365.291"/>
      <point x="71.713" y="353.57800000000003"/>
      <point x="56.631" y="332.38200000000006" type="curve"/>
      <point x="56.631" y="295.14200000000005" type="line"/>
      <point x="73.32100000000001" y="318.848"/>
      <point x="90.091" y="332.565"/>
      <point x="115.08999999999999" y="332.565" type="curve" smooth="yes"/>
      <point x="172.638" y="332.565"/>
      <point x="208.929" y="218.235"/>
      <point x="280.489" y="218.235" type="curve" smooth="yes"/>
      <point x="306.74" y="218.235"/>
      <point x="322.427" y="228.63600000000002"/>
    </contour>
  </outline>
</glyph>
<glyph name="exclamdown" format="2">
  <advance width="143.652"/>
  <unicode hex="00A1"/>
  <outline>
    <contour>
      <point x="88.324" y="268.241" type="line"/>
      <point x="55.553000000000004" y="268.241" type="line"/>
      <point x="54.077" y="-208.20899999999997" type="line"/>
      <point x="89.55699999999999" y="-208.20899999999997" type="line"/>
    </contour>
    <contour>
      <point x="93.83900000000001" y="506.727" type="curve" smooth="yes"/>
      <point x="93.83900000000001" y="528.28"/>
      <point x="91.07499999999999" y="532.7"/>
      <point x="71.826" y="532.7" type="curve" smooth="yes"/>
      <point x="53.486999999999995" y="532.7"/>
      <point x="49.813" y="528.28"/>
      <point x="49.813" y="506.727" type="curve" smooth="yes"/>
      <point x="49.813" y="485.08399999999995"/>
      <point x="52.577" y="480.664"/>
      <point x="71.826" y="480.664" type="curve" smooth="yes"/>
      <point x="91.07499999999999" y="480.664"/>
      <point x="93.83900000000001" y="485.08399999999995"/>
    </contour>
  </outline>
</glyph>
<glyph name="cent" format="2">
  <advance width="342.314"/>
  <unicode hex="00A2"/>
  <outline>
    <contour>
      <point x="197.743" y="-10.081" type="curve" smooth="yes"/>
      <point x="222.09300000000002" y="-10.081"/>
      <point x="249.27100000000002" y="-6.16"/>
      <point x="273.783" y="1.4300000000000004" type="curve"/>
      <point x="266.88500000000005" y="33.04" type="line"/>
      <point x="244.48999999999998" y="27.233"/>
      <point x="222.908" y="24.661"/>
      <point x="202.399" y="24.661" type="curve" smooth="yes"/>
      <point x="135.817" y="24.661"/>
      <point x="105.937" y="96.83999999999999"/>
      <point x="105.937" y="255.34699999999998" type="curve" smooth="yes"/>
      <point x="105.937" y="429.106"/>
      <point x="140.452" y="507.013"/>
      <point x="205.245" y="507.013" type="curve" smooth="yes"/>
      <point x="225.759" y="507.013"/>
      <point x="242.00000000000003" y="504.15999999999997"/>
      <point x="260.53499999999997" y="498.75899999999996" type="curve"/>
      <point x="267.76599999999996" y="531.053" type="line"/>
      <point x="246.573" y="538.1890000000001"/>
      <point x="223.888" y="541.962"/>
      <point x="200.862" y="541.962" type="curve" smooth="yes"/>
      <point x="109.24600000000001" y="541.962"/>
      <point x="70.061" y="444.17499999999995"/>
      <point x="70.061" y="254.807" type="curve" smooth="yes"/>
      <point x="70.061" y="74.80199999999999"/>
      <point x="108.41300000000001" y="-10.081"/>
    </contour>
    <contour>
      <point x="170.58800000000002" y="-105.081" type="line"/>
      <point x="203.638" y="-105.081" type="line"/>
      <point x="203.638" y="-3.253" type="line"/>
      <point x="170.58800000000002" y="-0.10400000000000004" type="line"/>
    </contour>
    <contour>
      <point x="170.58800000000002" y="530.787" type="line"/>
      <point x="203.638" y="535.396" type="line"/>
      <point x="203.638" y="636.719" type="line"/>
      <point x="170.58800000000002" y="636.719" type="line"/>
    </contour>
  </outline>
</glyph>
<glyph name="sterling" format="2">
  <advance width="342.368"/>
  <unicode hex="00A3"/>
  <outline>
    <contour>
      <point x="57.336000000000006" y="0.0" type="line"/>
      <point x="306.09700000000004" y="0.0" type="line"/>
      <point x="306.09700000000004" y="33.005" type="line"/>
      <point x="95.15" y="33.005" type="line"/>
      <point x="140.268" y="108.33"/>
      <point x="167.44299999999998" y="157.964"/>
      <point x="167.44299999999998" y="243.867" type="curve" smooth="yes"/>
      <point x="167.44299999999998" y="345.886"/>
      <point x="108.07900000000001" y="408.22999999999996"/>
      <point x="108.07900000000001" y="520.2819999999999" type="curve" smooth="yes"/>
      <point x="108.07900000000001" y="633.26"/>
      <point x="155.95600000000002" y="675.375"/>
      <point x="217.023" y="675.375" type="curve" smooth="yes"/>
      <point x="239.256" y="675.375"/>
      <point x="263.92499999999995" y="670.838"/>
      <point x="284.774" y="664.047" type="curve"/>
      <point x="292.635" y="693.2900000000001" type="line"/>
      <point x="271.43300000000005" y="703.8409999999999"/>
      <point x="238.366" y="710.0"/>
      <point x="213.243" y="710.0" type="curve" smooth="yes"/>
      <point x="120.62400000000001" y="710.0"/>
      <point x="72.149" y="634.246"/>
      <point x="72.149" y="525.96" type="curve" smooth="yes"/>
      <point x="72.149" y="397.37600000000003"/>
      <point x="133.268" y="345.48"/>
      <point x="133.268" y="241.813" type="curve" smooth="yes"/>
      <point x="133.268" y="158.60399999999998"/>
      <point x="108.535" y="117.87299999999999"/>
      <point x="57.336000000000006" y="29.314999999999998" type="curve"/>
    </contour>
    <contour>
      <point x="39.075" y="358.26000000000005" type="line"/>
      <point x="261.49000000000007" y="358.26000000000005" type="line"/>
      <point x="261.49000000000007" y="387.485" type="line"/>
      <point x="39.075" y="387.485" type="line"/>
    </contour>
  </outline>
</glyph>
<glyph name="currency" format="2">
  <advance width="420.89"/>
  <unicode hex="00A4"/>
  <outline>
    <contour>
      <point x="32.946999999999996" y="444.44800000000004" type="line"/>
      <point x="104.373" y="372.022" type="line"/>
      <point x="86.858" y="350.02099999999996"/>
      <point x="75.821" y="321.641"/>
      <point x="75.821" y="289.603" type="curve" smooth="yes"/>
      <point x="75.821" y="257.47499999999997"/>
      <point x="86.858" y="228.924"/>
      <point x="105.373" y="206.842" type="curve"/>
      <point x="32.946999999999996" y="134.416" type="line"/>
      <point x="55.884" y="111.479" type="line"/>
      <point x="129.05700000000002" y="184.643" type="line"/>
      <point x="150.833" y="166.26299999999998"/>
      <point x="179.15" y="156.253"/>
      <point x="210.206" y="156.253" type="curve" smooth="yes"/>
      <point x="241.118" y="156.253"/>
      <point x="270.111" y="166.272"/>
      <point x="291.82399999999996" y="184.571" type="curve"/>
      <point x="365.006" y="111.479" type="line"/>
      <point x="387.943" y="134.416" type="line"/>
      <point x="315.796" y="206.482" type="line"/>
      <point x="334.374" y="228.71699999999998"/>
      <point x="345.49199999999996" y="257.331"/>
      <point x="345.49199999999996" y="289.603" type="curve" smooth="yes"/>
      <point x="345.49199999999996" y="321.704"/>
      <point x="334.38300000000004" y="350.228"/>
      <point x="315.877" y="372.382" type="curve"/>
      <point x="387.943" y="444.44800000000004" type="line"/>
      <point x="365.006" y="467.385" type="line"/>
      <point x="292.14799999999997" y="394.527" type="line"/>
      <point x="270.354" y="412.835"/>
      <point x="242.109" y="423.84499999999997"/>
      <point x="210.206" y="423.84499999999997" type="curve" smooth="yes"/>
      <point x="178.078" y="423.84499999999997"/>
      <point x="149.761" y="412.75399999999996"/>
      <point x="127.823" y="394.455" type="curve"/>
      <point x="55.884" y="467.385" type="line"/>
    </contour>
    <contour>
      <point x="210.197" y="184.93800000000002" type="curve" smooth="yes"/>
      <point x="152.058" y="184.93800000000002"/>
      <point x="105.613" y="231.374"/>
      <point x="105.613" y="289.522" type="curve" smooth="yes"/>
      <point x="105.613" y="348.391"/>
      <point x="152.049" y="395.079"/>
      <point x="210.197" y="395.079" type="curve" smooth="yes"/>
      <point x="269.255" y="395.079"/>
      <point x="315.70000000000005" y="348.391"/>
      <point x="315.70000000000005" y="289.522" type="curve" smooth="yes"/>
      <point x="315.70000000000005" y="231.374"/>
      <point x="269.246" y="184.93800000000002"/>
    </contour>
  </outline>
</glyph>
<glyph name="yen" format="2">
  <advance width="342.45"/>
  <unicode hex="00A5"/>
  <outline>
    <contour>
      <point x="56.330000000000005" y="357.09" type="line"/>
      <point x="156.715" y="357.09" type="line"/>
      <point x="156.715" y="230.55499999999998" type="line"/>
      <point x="56.330000000000005" y="230.55499999999998" type="line"/>
      <point x="56.330000000000005" y="202.095" type="line"/>
      <point x="156.715" y="202.095" type="line"/>
      <point x="156.715" y="0.0" type="line"/>
      <point x="192.15" y="0.0" type="line"/>
      <point x="192.15" y="202.095" type="line"/>
      <point x="292.625" y="202.095" type="line"/>
      <point x="292.625" y="230.55499999999998" type="line"/>
      <point x="192.15" y="230.55499999999998" type="line"/>
      <point x="192.15" y="357.09" type="line"/>
      <point x="292.625" y="357.09" type="line"/>
      <point x="292.625" y="385.415" type="line"/>
      <point x="192.15" y="385.415" type="line"/>
      <point x="302.16" y="696.77" type="line"/>
      <point x="265.78999999999996" y="703.2750000000001" type="line"/>
      <point x="174.41" y="422.69500000000005" type="line"/>
      <point x="76.705" y="703.2750000000001" type="line"/>
      <point x="40.335" y="696.77" type="line"/>
      <point x="156.715" y="385.415" type="line"/>
      <point x="56.330000000000005" y="385.415" type="line"/>
    </contour>
  </outline>
</glyph>
<glyph name="brokenbar" format="2">
  <advance width="133.04500000000002"/>
  <unicode hex="00A6"/>
  <outline>
    <contour>
      <point x="82.692" y="391.0" type="line"/>
      <point x="82.692" y="790.081" type="line"/>
      <point x="50.352999999999994" y="790.081" type="line"/>
      <point x="50.352999999999994" y="391.0" type="line"/>
    </contour>
    <contour>
      <point x="50.352999999999994" y="190.08100000000002" type="line"/>
      <point x="50.352999999999994" y="-210.0" type="line"/>
      <point x="82.692" y="-210.0" type="line"/>
      <point x="82.692" y="190.08100000000002" type="line"/>
    </contour>
  </outline>
</glyph>
<glyph name="section" format="2">
  <advance width="347.8885"/>
  <unicode hex="00A7"/>
  <outline>
    <contour>
      <point x="136.57" y="-220.1125" type="curve" smooth="yes"/>
      <point x="251.85000000000002" y="-220.1125"/>
      <point x="326.32" y="-103.40849999999999"/>
      <point x="326.32" y="52.6345" type="curve" smooth="yes"/>
      <point x="326.32" y="139.6835"/>
      <point x="308.513" y="219.752"/>
      <point x="244.45449999999997" y="413.0545" type="curve" smooth="yes"/>
      <point x="193.607" y="568.7270000000001"/>
      <point x="185.97400000000002" y="592.6940000000001"/>
      <point x="185.97400000000002" y="633.077" type="curve" smooth="yes"/>
      <point x="185.97400000000002" y="684.0215000000001"/>
      <point x="210.57399999999998" y="713.8515000000001"/>
      <point x="250.6805" y="713.8515000000001" type="curve" smooth="yes"/>
      <point x="265.47" y="713.8515000000001"/>
      <point x="279.0955" y="711.3965000000001"/>
      <point x="297.0555" y="703.4045000000001" type="curve"/>
      <point x="307.43399999999997" y="733.7029999999999" type="line"/>
      <point x="283.6545" y="744.7059999999999"/>
      <point x="257.8435" y="749.1945000000001"/>
      <point x="231.80100000000002" y="749.1945000000001" type="curve" smooth="yes"/>
      <point x="110.11949999999999" y="749.1945000000001"/>
      <point x="35.78" y="650.333"/>
      <point x="35.455" y="484.2285" type="curve" smooth="yes"/>
      <point x="35.70249999999999" y="394.28249999999997"/>
      <point x="54.055" y="307.3735"/>
      <point x="115.251" y="132.0025" type="curve" smooth="yes"/>
      <point x="162.0325" y="-8.7065"/>
      <point x="178.07250000000002" y="-60.2375"/>
      <point x="178.15449999999998" y="-104.30199999999999" type="curve" smooth="yes"/>
      <point x="178.2365" y="-155.57600000000002"/>
      <point x="153.6045" y="-183.98649999999998"/>
      <point x="112.982" y="-183.98649999999998" type="curve" smooth="yes"/>
      <point x="87.62800000000001" y="-183.98649999999998"/>
      <point x="65.10050000000001" y="-174.586"/>
      <point x="35.2945" y="-148.608" type="curve"/>
      <point x="21.568500000000004" y="-177.802" type="line"/>
      <point x="59.3515" y="-209.2895"/>
      <point x="90.04650000000001" y="-220.1125"/>
    </contour>
    <contour>
      <point x="137.14600000000002" y="-197.013" type="curve" smooth="yes"/>
      <point x="118.154" y="-197.013"/>
      <point x="105.9115" y="-194.63850000000002"/>
      <point x="95.4135" y="-190.41850000000002" type="curve"/>
      <point x="113.9945" y="-204.418" type="line"/>
      <point x="169.333" y="-203.70749999999998"/>
      <point x="206.114" y="-163.95250000000001"/>
      <point x="206.114" y="-104.70249999999999" type="curve" smooth="yes"/>
      <point x="206.114" y="-59.2495"/>
      <point x="192.4935" y="-4.5729999999999995"/>
      <point x="142.815" y="143.47500000000002" type="curve" smooth="yes"/>
      <point x="80.784" y="329.72049999999996"/>
      <point x="64.8645" y="396.29799999999994"/>
      <point x="64.8645" y="485.93850000000003" type="curve" smooth="yes"/>
      <point x="64.8645" y="627.282"/>
      <point x="127.2835" y="721.136"/>
      <point x="216.5505" y="721.136" type="curve" smooth="yes"/>
      <point x="223.30399999999997" y="721.136"/>
      <point x="228.56900000000002" y="720.6265"/>
      <point x="236.7745" y="718.4870000000001" type="curve"/>
      <point x="224.7235" y="730.7384999999999" type="line"/>
      <point x="182.815" y="720.224"/>
      <point x="156.11100000000002" y="681.9285"/>
      <point x="155.984" y="633.8805" type="curve" smooth="yes"/>
      <point x="155.984" y="589.286"/>
      <point x="166.4855" y="547.7995"/>
      <point x="215.7925" y="404.0075" type="curve" smooth="yes"/>
      <point x="281.1385" y="206.97600000000003"/>
      <point x="298.166" y="134.05100000000002"/>
      <point x="298.166" y="50.9695" type="curve" smooth="yes"/>
      <point x="298.248" y="-91.2655"/>
      <point x="236.82800000000003" y="-196.931"/>
    </contour>
  </outline>
</glyph>
<glyph name="copyright" format="2">
  <advance width="402.44199999999995"/>
  <unicode hex="00A9"/>
  <outline>
    <contour>
      <point x="201.23" y="11.206000000000001" type="curve" smooth="yes"/>
      <point x="110.607" y="11.206000000000001"/>
      <point x="58.125" y="94.108"/>
      <point x="58.125" y="350.063" type="curve" smooth="yes"/>
      <point x="58.125" y="606.855"/>
      <point x="110.625" y="688.884"/>
      <point x="201.23" y="688.884" type="curve" smooth="yes"/>
      <point x="292.06" y="688.884"/>
      <point x="344.236" y="606.855"/>
      <point x="344.236" y="350.063" type="curve" smooth="yes"/>
      <point x="344.236" y="94.108"/>
      <point x="292.078" y="11.206000000000001"/>
    </contour>
    <contour>
      <point x="201.23" y="710.0" type="curve" smooth="yes"/>
      <point x="94.94600000000001" y="710.0"/>
      <point x="36.64" y="623.656"/>
      <point x="36.64" y="350.063" type="curve" smooth="yes"/>
      <point x="36.64" y="77.36999999999999"/>
      <point x="94.92800000000001" y="-10.0"/>
      <point x="201.23" y="-10.0" type="curve" smooth="yes"/>
      <point x="307.51399999999995" y="-10.0"/>
      <point x="365.80199999999996" y="77.36999999999999"/>
      <point x="365.80199999999996" y="350.063" type="curve" smooth="yes"/>
      <point x="365.80199999999996" y="623.656"/>
      <point x="307.51399999999995" y="710.0"/>
    </contour>
    <contour>
      <point x="116.54" y="337.51" type="curve" smooth="yes"/>
      <point x="116.54" y="220.563"/>
      <point x="148.04999999999998" y="163.14200000000002"/>
      <point x="210.13100000000003" y="163.14200000000002" type="curve" smooth="yes"/>
      <point x="229.226" y="163.14200000000002"/>
      <point x="251.979" y="166.515"/>
      <point x="266.921" y="170.565" type="curve"/>
      <point x="261.326" y="197.738" type="line"/>
      <point x="249.54200000000003" y="194.43400000000003"/>
      <point x="227.76500000000001" y="191.935"/>
      <point x="211.79600000000002" y="191.935" type="curve" smooth="yes"/>
      <point x="164.552" y="191.935"/>
      <point x="147.22299999999998" y="247.26"/>
      <point x="147.22299999999998" y="337.01500000000004" type="curve" smooth="yes"/>
      <point x="147.22299999999998" y="453.124"/>
      <point x="170.36399999999998" y="494.99399999999997"/>
      <point x="216.697" y="494.99399999999997" type="curve" smooth="yes"/>
      <point x="230.22200000000004" y="494.99399999999997"/>
      <point x="243.276" y="493.91799999999995"/>
      <point x="256.90000000000003" y="489.77299999999997" type="curve"/>
      <point x="262.774" y="516.694" type="line"/>
      <point x="247.34099999999998" y="521.9100000000001"/>
      <point x="230.287" y="523.805"/>
      <point x="214.501" y="523.805" type="curve" smooth="yes"/>
      <point x="153.978" y="523.805"/>
      <point x="116.54" y="475.934"/>
    </contour>
  </outline>
</glyph>
<glyph name="ordfeminine" format="2">
  <advance width="232.08599999999998"/>
  <unicode hex="00AA"/>
  <outline>
    <contour>
      <point x="28.391000000000002" y="293.153" type="line"/>
      <point x="208.07799999999997" y="293.153" type="line"/>
      <point x="208.07799999999997" y="317.70300000000003" type="line"/>
      <point x="28.391000000000002" y="317.70300000000003" type="line"/>
    </contour>
    <component base="a.superior" xOffset="11.913000000000002"/>
  </outline>
</glyph>
<glyph name="logicalnot" format="2">
  <advance width="395.048"/>
  <unicode hex="00AC"/>
  <outline>
    <contour>
      <point x="44.891999999999996" y="375.216" type="line"/>
      <point x="317.96999999999997" y="375.216" type="line"/>
      <point x="317.96999999999997" y="176.937" type="line"/>
      <point x="350.97499999999997" y="176.937" type="line"/>
      <point x="350.97499999999997" y="408.221" type="line"/>
      <point x="44.891999999999996" y="408.221" type="line"/>
    </contour>
  </outline>
</glyph>
<glyph name="registered" format="2">
  <advance width="386.0365"/>
  <unicode hex="00AE"/>
  <outline>
    <contour>
      <point x="193.27700000000002" y="208.0595" type="curve" smooth="yes"/>
      <point x="294.283" y="208.0595"/>
      <point x="349.3965" y="291.01099999999997"/>
      <point x="349.3965" y="550.1585" type="curve" smooth="yes"/>
      <point x="349.3965" y="810.1295"/>
      <point x="294.29200000000003" y="892.1225000000001"/>
      <point x="193.27700000000002" y="892.1225000000001" type="curve" smooth="yes"/>
      <point x="92.4645" y="892.1225000000001"/>
      <point x="36.64" y="810.1295"/>
      <point x="36.64" y="550.1585" type="curve" smooth="yes"/>
      <point x="36.64" y="291.10549999999995"/>
      <point x="92.43299999999999" y="208.0595"/>
    </contour>
    <contour>
      <point x="193.27700000000002" y="228.06300000000002" type="curve" smooth="yes"/>
      <point x="107.04" y="228.06300000000002"/>
      <point x="57.72350000000001" y="306.83450000000005"/>
      <point x="57.72350000000001" y="550.1585" type="curve" smooth="yes"/>
      <point x="57.72350000000001" y="794.3240000000001"/>
      <point x="107.031" y="872.191"/>
      <point x="193.27700000000002" y="872.191" type="curve" smooth="yes"/>
      <point x="279.946" y="872.191"/>
      <point x="329.042" y="794.3330000000001"/>
      <point x="329.042" y="550.1585" type="curve" smooth="yes"/>
      <point x="329.042" y="306.803"/>
      <point x="279.9235" y="228.06300000000002"/>
    </contour>
    <contour>
      <point x="274.1295" y="394.97950000000003" type="curve" smooth="yes"/>
      <point x="277.368" y="394.97950000000003"/>
      <point x="279.19699999999995" y="394.97950000000003"/>
      <point x="284.051" y="395.866" type="curve"/>
      <point x="281.59399999999994" y="423.78499999999997" type="line"/>
      <point x="279.6255" y="422.966"/>
      <point x="278.36799999999994" y="422.966"/>
      <point x="276.36799999999994" y="422.966" type="curve" smooth="yes"/>
      <point x="259.78450000000004" y="422.97950000000003"/>
      <point x="248.46949999999998" y="453.61249999999995"/>
      <point x="223.9145" y="536.6525000000001" type="curve"/>
      <point x="256.205" y="551.764"/>
      <point x="264.34549999999996" y="586.9839999999999"/>
      <point x="264.34549999999996" y="631.7959999999999" type="curve" smooth="yes"/>
      <point x="264.34549999999996" y="695.6290000000001"/>
      <point x="240.99050000000003" y="720.8325"/>
      <point x="186.3785" y="720.8325" type="curve" smooth="yes"/>
      <point x="167.86950000000002" y="720.8325"/>
      <point x="149.627" y="718.938"/>
      <point x="126.962" y="715.1054999999999" type="curve"/>
      <point x="126.962" y="397.226" type="line"/>
      <point x="154.7235" y="397.226" type="line"/>
      <point x="154.7235" y="529.854" type="line"/>
      <point x="165.6715" y="528.953"/>
      <point x="175.194" y="528.034"/>
      <point x="184.622" y="528.034" type="curve" smooth="yes"/>
      <point x="188.888" y="528.034"/>
      <point x="193.05050000000003" y="528.034"/>
      <point x="197.294" y="528.853" type="curve"/>
      <point x="230.4855" y="413.0855"/>
      <point x="246.51500000000001" y="395.002"/>
    </contour>
    <contour>
      <point x="182.55199999999996" y="551.6600000000001" type="curve" smooth="yes"/>
      <point x="173.57850000000002" y="551.6600000000001"/>
      <point x="164.677" y="551.751"/>
      <point x="154.7235" y="552.7420000000001" type="curve"/>
      <point x="154.7235" y="691.8069999999999" type="line"/>
      <point x="168.15000000000003" y="693.898"/>
      <point x="176.325" y="694.799"/>
      <point x="186.995" y="694.799" type="curve" smooth="yes"/>
      <point x="232.11400000000003" y="694.799"/>
      <point x="236.215" y="666.9465"/>
      <point x="236.215" y="628.34" type="curve" smooth="yes"/>
      <point x="236.215" y="583.6550000000001"/>
      <point x="228.89300000000003" y="551.6600000000001"/>
    </contour>
  </outline>
</glyph>
<glyph name="degree" format="2">
  <advance width="233.35"/>
  <unicode hex="00B0"/>
  <outline>
    <contour>
      <point x="115.774" y="506.14" type="curve" smooth="yes"/>
      <point x="172.72899999999998" y="506.14"/>
      <point x="204.08800000000002" y="554.849"/>
      <point x="204.08800000000002" y="615.35" type="curve" smooth="yes"/>
      <point x="204.08800000000002" y="675.23"/>
      <point x="173.287" y="726.38"/>
      <point x="115.774" y="726.38" type="curve" smooth="yes"/>
      <point x="58.243" y="726.38"/>
      <point x="29.262" y="675.23"/>
      <point x="29.262" y="615.35" type="curve" smooth="yes"/>
      <point x="29.262" y="554.849"/>
      <point x="58.819" y="506.14"/>
    </contour>
    <contour>
      <point x="115.774" y="535.986" type="curve" smooth="yes"/>
      <point x="76.51500000000001" y="535.986"/>
      <point x="58.298" y="571.087"/>
      <point x="58.298" y="615.269" type="curve" smooth="yes"/>
      <point x="58.298" y="659.2529999999999"/>
      <point x="76.41600000000001" y="696.192"/>
      <point x="115.774" y="696.192" type="curve" smooth="yes"/>
      <point x="155.114" y="696.192"/>
      <point x="175.07000000000002" y="659.2529999999999"/>
      <point x="175.07000000000002" y="615.269" type="curve" smooth="yes"/>
      <point x="175.07000000000002" y="571.087"/>
      <point x="155.03300000000002" y="535.986"/>
    </contour>
  </outline>
</glyph>
<glyph name="plusminus" format="2">
  <advance width="421.25600000000003"/>
  <unicode hex="00B1"/>
  <outline>
    <contour>
      <point x="41.616" y="65.511" type="line"/>
      <point x="379.64" y="65.511" type="line"/>
      <point x="379.64" y="98.516" type="line"/>
      <point x="227.306" y="98.516" type="line"/>
      <point x="227.306" y="293.482" type="line"/>
      <point x="379.64" y="293.482" type="line"/>
      <point x="379.64" y="326.487" type="line"/>
      <point x="227.306" y="326.487" type="line"/>
      <point x="227.306" y="504.3" type="line"/>
      <point x="193.941" y="504.3" type="line"/>
      <point x="193.941" y="326.487" type="line"/>
      <point x="41.616" y="326.487" type="line"/>
      <point x="41.616" y="293.482" type="line"/>
      <point x="193.941" y="293.482" type="line"/>
      <point x="193.941" y="98.516" type="line"/>
      <point x="41.616" y="98.516" type="line"/>
    </contour>
  </outline>
</glyph>
<glyph name="uni00B2" format="2">
  <advance width="266.931"/>
  <unicode hex="00B2"/>
  <outline>
    <contour>
      <point x="54.31400000000001" y="370.0" type="line"/>
      <point x="220.008" y="370.0" type="line"/>
      <point x="220.008" y="393.056" type="line"/>
      <point x="84.36200000000001" y="393.056" type="line"/>
      <point x="168.039" y="535.471"/>
      <point x="195.593" y="609.171"/>
      <point x="195.593" y="670.337" type="curve" smooth="yes"/>
      <point x="195.593" y="736.853"/>
      <point x="168.65000000000003" y="775.3459999999999"/>
      <point x="120.85499999999999" y="775.3459999999999" type="curve" smooth="yes"/>
      <point x="94.965" y="775.3459999999999"/>
      <point x="70.18900000000001" y="767.888"/>
      <point x="48.92400000000001" y="744.0150000000001" type="curve"/>
      <point x="59.703" y="723.2459999999999" type="line"/>
      <point x="78.39100000000002" y="744.975"/>
      <point x="96.386" y="749.02"/>
      <point x="117.253" y="749.02" type="curve" smooth="yes"/>
      <point x="148.79200000000003" y="749.02"/>
      <point x="167.94299999999998" y="716.1850000000001"/>
      <point x="167.94299999999998" y="664.9440000000001" type="curve" smooth="yes"/>
      <point x="167.94299999999998" y="609.532"/>
      <point x="134.74699999999999" y="524.607"/>
      <point x="51.584" y="390.453" type="curve"/>
    </contour>
  </outline>
</glyph>
<glyph name="uni00B3" format="2">
  <advance width="263.37800000000004"/>
  <unicode hex="00B3"/>
  <outline>
    <contour>
      <point x="41.684999999999995" y="387.51199999999994" type="line"/>
      <point x="63.791" y="369.124"/>
      <point x="88.49300000000001" y="360.51300000000003"/>
      <point x="121.855" y="360.51300000000003" type="curve" smooth="yes"/>
      <point x="182.389" y="360.51300000000003"/>
      <point x="218.833" y="405.659"/>
      <point x="218.833" y="481.265" type="curve" smooth="yes"/>
      <point x="218.833" y="532.765"/>
      <point x="200.891" y="568.4120000000001"/>
      <point x="163.601" y="578.5840000000001" type="curve"/>
      <point x="192.07" y="590.893"/>
      <point x="206.946" y="625.748"/>
      <point x="206.946" y="669.6109999999999" type="curve" smooth="yes"/>
      <point x="206.946" y="733.468"/>
      <point x="174.198" y="774.0519999999999"/>
      <point x="121.122" y="774.0519999999999" type="curve" smooth="yes"/>
      <point x="92.37100000000001" y="774.0519999999999"/>
      <point x="68.054" y="765.882"/>
      <point x="51.979" y="752.5269999999999" type="curve"/>
      <point x="61.980999999999995" y="733.6360000000001" type="line"/>
      <point x="75.34899999999999" y="743.1310000000001"/>
      <point x="90.861" y="748.2760000000001"/>
      <point x="116.57600000000001" y="748.2760000000001" type="curve" smooth="yes"/>
      <point x="156.806" y="748.2760000000001"/>
      <point x="180.475" y="717.445"/>
      <point x="180.475" y="665.855" type="curve" smooth="yes"/>
      <point x="180.475" y="622.1429999999999"/>
      <point x="165.015" y="587.563"/>
      <point x="125.86200000000001" y="587.563" type="curve" smooth="yes"/>
      <point x="89.49699999999999" y="587.563" type="line"/>
      <point x="89.49699999999999" y="565.1469999999999" type="line"/>
      <point x="125.76200000000001" y="565.1469999999999" type="line" smooth="yes"/>
      <point x="174.35399999999998" y="565.1469999999999"/>
      <point x="190.544" y="533.462"/>
      <point x="190.544" y="482.34499999999997" type="curve" smooth="yes"/>
      <point x="190.544" y="421.28399999999993"/>
      <point x="164.13299999999998" y="385.46799999999996"/>
      <point x="119.389" y="385.46799999999996" type="curve" smooth="yes"/>
      <point x="90.187" y="385.46799999999996"/>
      <point x="71.902" y="392.15299999999996"/>
      <point x="53.886" y="407.08500000000004" type="curve"/>
    </contour>
  </outline>
</glyph>
<glyph name="uni00B5" format="2">
  <advance width="342.96000000000004"/>
  <unicode hex="00B5"/>
  <outline>
    <contour>
      <point x="49.345" y="-210.0" type="line"/>
      <point x="83.691" y="-210.0" type="line"/>
      <point x="83.691" y="22.291" type="line"/>
      <point x="98.446" y="-1.3859999999999997"/>
      <point x="121.644" y="-9.838000000000001"/>
      <point x="149.371" y="-9.838000000000001" type="curve" smooth="yes"/>
      <point x="186.312" y="-9.838000000000001"/>
      <point x="222.469" y="3.888000000000001"/>
      <point x="253.99500000000003" y="23.534999999999997" type="curve"/>
      <point x="259.19699999999995" y="2.2609999999999997"/>
      <point x="276.92900000000003" y="-10.0"/>
      <point x="300.308" y="-10.0" type="curve" smooth="yes"/>
      <point x="314.174" y="-10.0"/>
      <point x="327.60800000000006" y="-6.928"/>
      <point x="342.88899999999995" y="0.6379999999999999" type="curve"/>
      <point x="335.50300000000004" y="29.607" type="line"/>
      <point x="325.988" y="24.939999999999998"/>
      <point x="316.885" y="22.939"/>
      <point x="308.017" y="22.939" type="curve" smooth="yes"/>
      <point x="292.655" y="22.939"/>
      <point x="283.65" y="32.544"/>
      <point x="283.65" y="57.73" type="curve" smooth="yes"/>
      <point x="283.65" y="531.8" type="line"/>
      <point x="248.57500000000002" y="531.8" type="line"/>
      <point x="248.57500000000002" y="53.902" type="line"/>
      <point x="221.366" y="35.335"/>
      <point x="185.356" y="22.032999999999998"/>
      <point x="155.644" y="22.032999999999998" type="curve" smooth="yes"/>
      <point x="108.005" y="22.032999999999998"/>
      <point x="84.50099999999999" y="50.821"/>
      <point x="84.50099999999999" y="101.62499999999999" type="curve" smooth="yes"/>
      <point x="84.50099999999999" y="531.8" type="line"/>
      <point x="49.345" y="531.8" type="line"/>
    </contour>
  </outline>
</glyph>
<glyph name="paragraph" format="2">
  <advance width="435.519"/>
  <unicode hex="00B6"/>
  <outline>
    <contour>
      <point x="353.803" y="-210.0" type="line"/>
      <point x="385.089" y="-210.0" type="line"/>
      <point x="385.089" y="740.0" type="line"/>
      <point x="353.803" y="740.0" type="line"/>
    </contour>
    <contour>
      <point x="180.063" y="212.021" type="line"/>
      <point x="93.622" y="229.988"/>
      <point x="54.958" y="322.848"/>
      <point x="54.958" y="459.01" type="curve" smooth="yes"/>
      <point x="54.958" y="598.943"/>
      <point x="106.52499999999999" y="704.1030000000001"/>
      <point x="224.971" y="708.4709999999999" type="curve"/>
      <point x="224.971" y="-210.0" type="line"/>
      <point x="256.257" y="-210.0" type="line"/>
      <point x="256.257" y="740.0" type="line"/>
      <point x="234.455" y="740.0" type="line" smooth="yes"/>
      <point x="84.112" y="740.0"/>
      <point x="21.881" y="615.1829999999999"/>
      <point x="21.881" y="459.72099999999995" type="curve" smooth="yes"/>
      <point x="21.881" y="310.848"/>
      <point x="68.83100000000002" y="205.48999999999998"/>
      <point x="177.14499999999998" y="182.91299999999998" type="curve"/>
    </contour>
  </outline>
</glyph>
<glyph name="periodcentered" format="2">
  <advance width="113.56700000000001"/>
  <unicode hex="00B7"/>
  <outline>
    <contour>
      <point x="34.771" y="290.645" type="curve" smooth="yes"/>
      <point x="34.771" y="269.065"/>
      <point x="38.553" y="264.645"/>
      <point x="56.892" y="264.645" type="curve" smooth="yes"/>
      <point x="76.09599999999999" y="264.645"/>
      <point x="78.87800000000001" y="269.065"/>
      <point x="78.87800000000001" y="290.645" type="curve" smooth="yes"/>
      <point x="78.87800000000001" y="312.27000000000004"/>
      <point x="76.09599999999999" y="316.69"/>
      <point x="56.892" y="316.69" type="curve" smooth="yes"/>
      <point x="37.553" y="316.69"/>
      <point x="34.771" y="312.27000000000004"/>
    </contour>
  </outline>
</glyph>
<glyph name="uni00B9" format="2">
  <advance width="246.752"/>
  <unicode hex="00B9"/>
  <outline>
    <contour>
      <point x="28.935000000000002" y="370.0" type="line"/>
      <point x="219.728" y="370.0" type="line"/>
      <point x="219.728" y="393.92" type="line"/>
      <point x="143.531" y="393.92" type="line"/>
      <point x="143.531" y="769.6829999999999" type="line"/>
      <point x="128.823" y="769.6829999999999" type="line"/>
      <point x="27.247999999999998" y="699.284" type="line"/>
      <point x="36.245" y="675.7689999999999" type="line"/>
      <point x="115.171" y="732.7509999999999" type="line"/>
      <point x="115.171" y="393.92" type="line"/>
      <point x="28.935000000000002" y="393.92" type="line"/>
    </contour>
  </outline>
</glyph>
<glyph name="ordmasculine" format="2">
  <advance width="253.548"/>
  <unicode hex="00BA"/>
  <outline>
    <contour>
      <point x="37.837" y="293.24399999999997" type="line"/>
      <point x="218.252" y="293.24399999999997" type="line"/>
      <point x="218.252" y="317.794" type="line"/>
      <point x="37.837" y="317.794" type="line"/>
    </contour>
    <component base="o.superior" xOffset="17.828000000000003"/>
  </outline>
</glyph>
<glyph name="questiondown" format="2">
  <advance width="288.759"/>
  <unicode hex="00BF"/>
  <outline>
    <contour>
      <point x="189.385" y="267.623" type="line"/>
      <point x="156.533" y="267.623" type="line"/>
      <point x="156.515" y="191.42600000000002" type="line"/>
      <point x="74.258" y="117.809"/>
      <point x="33.169000000000004" y="69.735"/>
      <point x="33.169000000000004" y="-41.19" type="curve" smooth="yes"/>
      <point x="33.169000000000004" y="-164.39"/>
      <point x="97.77300000000001" y="-219.019"/>
      <point x="170.02700000000002" y="-219.019" type="curve" smooth="yes"/>
      <point x="215.4" y="-219.019"/>
      <point x="260.272" y="-197.683"/>
      <point x="293.86400000000003" y="-163.63400000000001" type="curve"/>
      <point x="277.41999999999996" y="-136.14800000000002" type="line"/>
      <point x="242.309" y="-170.05100000000002"/>
      <point x="205.892" y="-183.962"/>
      <point x="172.835" y="-183.962" type="curve" smooth="yes"/>
      <point x="116.35" y="-183.962"/>
      <point x="69.738" y="-130.318"/>
      <point x="69.738" y="-39.633" type="curve" smooth="yes"/>
      <point x="69.738" y="46.461999999999996"/>
      <point x="97.9" y="101.517"/>
      <point x="189.772" y="175.09300000000002" type="curve"/>
    </contour>
    <contour>
      <point x="195.127" y="505.83599999999996" type="curve" smooth="yes"/>
      <point x="195.127" y="527.389"/>
      <point x="189.89600000000002" y="531.8090000000001"/>
      <point x="172.295" y="531.8090000000001" type="curve" smooth="yes"/>
      <point x="153.946" y="531.8090000000001"/>
      <point x="150.282" y="527.389"/>
      <point x="150.282" y="505.83599999999996" type="curve" smooth="yes"/>
      <point x="150.282" y="484.19300000000004"/>
      <point x="153.946" y="479.773"/>
      <point x="172.295" y="479.773" type="curve" smooth="yes"/>
      <point x="191.625" y="479.773"/>
      <point x="195.127" y="484.19300000000004"/>
    </contour>
  </outline>
</glyph>
<glyph name="AE" format="2">
  <advance width="565.1320000000001"/>
  <unicode hex="00C6"/>
  <anchor x="311.4495" y="700.0" name="top"/>
  <outline>
    <contour>
      <point x="16.596999999999998" y="0.0" type="line"/>
      <point x="54.600500000000004" y="-0.8505" type="line"/>
      <point x="166.0585" y="305.3785" type="line"/>
      <point x="294.81499999999994" y="305.3785" type="line"/>
      <point x="294.81499999999994" y="0.0" type="line"/>
      <point x="549.9454999999999" y="0.0" type="line"/>
      <point x="549.9454999999999" y="34.805" type="line"/>
      <point x="329.7325" y="34.805" type="line"/>
      <point x="329.7325" y="318.59049999999996" type="line"/>
      <point x="520.6659999999999" y="318.59049999999996" type="line"/>
      <point x="520.6659999999999" y="352.6755" type="line"/>
      <point x="329.7325" y="352.6755" type="line"/>
      <point x="329.7325" y="664.8575" type="line"/>
      <point x="538.0050000000001" y="664.8575" type="line"/>
      <point x="538.0050000000001" y="700.0" type="line"/>
      <point x="271.825" y="700.0" type="line"/>
    </contour>
    <contour>
      <point x="176.10549999999998" y="338.8155" type="line"/>
      <point x="294.63500000000005" y="670.3815000000001" type="line"/>
      <point x="294.63500000000005" y="338.8155" type="line"/>
    </contour>
  </outline>
</glyph>
<glyph name="multiply" format="2">
  <advance width="377.76800000000003"/>
  <unicode hex="00D7"/>
  <outline>
    <contour>
      <point x="80.00600000000001" y="83.005" type="line"/>
      <point x="188.156" y="263.749" type="line"/>
      <point x="297.671" y="84.09700000000001" type="line"/>
      <point x="324.00100000000003" y="103.335" type="line"/>
      <point x="209.87800000000001" y="292.563" type="line"/>
      <point x="323.364" y="483.62" type="line"/>
      <point x="297.03400000000005" y="502.858" type="line"/>
      <point x="188.156" y="322.19599999999997" type="line"/>
      <point x="79.915" y="503.03999999999996" type="line"/>
      <point x="53.585" y="483.802" type="line"/>
      <point x="167.244" y="292.563" type="line"/>
      <point x="53.675999999999995" y="102.243" type="line"/>
    </contour>
  </outline>
</glyph>
<glyph name="Oslash" format="2">
  <advance width="404.0"/>
  <unicode hex="00D8"/>
  <anchor x="200.975" y="700.0" name="top"/>
  <outline>
    <contour>
      <point x="61.415000000000006" y="-10.09" type="line"/>
      <point x="92.825" y="59.57" type="line"/>
      <point x="97.34" y="65.58500000000001" type="line"/>
      <point x="324.16" y="605.07" type="line"/>
      <point x="328.54" y="611.565" type="line"/>
      <point x="371.85" y="710.9" type="line"/>
      <point x="341.695" y="710.9" type="line"/>
      <point x="309.84" y="638.72" type="line"/>
      <point x="305.12" y="632.5" type="line"/>
      <point x="79.63" y="96.53" type="line"/>
      <point x="76.0" y="92.495" type="line"/>
      <point x="31.51" y="-10.09" type="line"/>
    </contour>
    <contour>
      <point x="200.975" y="21.345000000000002" type="curve" smooth="yes"/>
      <point x="118.615" y="21.345000000000002"/>
      <point x="67.23" y="86.765"/>
      <point x="67.23" y="349.045" type="curve" smooth="yes"/>
      <point x="67.23" y="614.26"/>
      <point x="118.615" y="678.655"/>
      <point x="200.975" y="678.655" type="curve" smooth="yes"/>
      <point x="284.29" y="678.655"/>
      <point x="335.92499999999995" y="614.6"/>
      <point x="335.92499999999995" y="349.18" type="curve" smooth="yes"/>
      <point x="335.92499999999995" y="85.58"/>
      <point x="284.29" y="21.345000000000002"/>
    </contour>
    <contour>
      <point x="200.975" y="-10.0" type="curve" smooth="yes"/>
      <point x="308.51" y="-10.0"/>
      <point x="371.15999999999997" y="61.64"/>
      <point x="371.15999999999997" y="349.815" type="curve" smooth="yes"/>
      <point x="371.15999999999997" y="638.45"/>
      <point x="307.71000000000004" y="710.0"/>
      <point x="200.975" y="710.0" type="curve" smooth="yes"/>
      <point x="94.74" y="710.0"/>
      <point x="32.2" y="638.0649999999999"/>
      <point x="32.2" y="349.045" type="curve" smooth="yes"/>
      <point x="32.2" y="63.074999999999996"/>
      <point x="94.92" y="-10.0"/>
    </contour>
  </outline>
</glyph>
<glyph name="Thorn" format="2">
  <advance width="344.191"/>
  <unicode hex="00DE"/>
  <outline>
    <contour>
      <point x="50.596" y="0.0" type="line"/>
      <point x="85.93200000000002" y="0.0" type="line"/>
      <point x="85.93200000000002" y="177.172" type="line"/>
      <point x="112.581" y="175.629"/>
      <point x="132.331" y="175.538"/>
      <point x="160.195" y="175.538" type="curve" smooth="yes"/>
      <point x="270.84299999999996" y="175.538"/>
      <point x="322.80100000000004" y="239.33599999999998"/>
      <point x="322.80100000000004" y="401.298" type="curve" smooth="yes"/>
      <point x="322.80100000000004" y="556.0500000000001"/>
      <point x="285.32199999999995" y="608.5970000000001"/>
      <point x="156.336" y="608.5970000000001" type="curve" smooth="yes"/>
      <point x="138.589" y="608.5970000000001"/>
      <point x="118.626" y="607.5870000000001"/>
      <point x="86.013" y="605.212" type="curve"/>
      <point x="86.013" y="700.0" type="line"/>
      <point x="50.596" y="700.0" type="line"/>
    </contour>
    <contour>
      <point x="157.072" y="209.78500000000003" type="curve" smooth="yes"/>
      <point x="129.83599999999998" y="209.78500000000003"/>
      <point x="111.933" y="210.067"/>
      <point x="86.013" y="211.35700000000003" type="curve"/>
      <point x="86.013" y="572.1170000000001" type="line"/>
      <point x="119.762" y="575.581"/>
      <point x="139.881" y="576.582"/>
      <point x="158.36999999999998" y="576.582" type="curve" smooth="yes"/>
      <point x="263.124" y="576.582"/>
      <point x="287.402" y="526.8790000000001"/>
      <point x="287.402" y="399.80400000000003" type="curve" smooth="yes"/>
      <point x="287.402" y="264.076"/>
      <point x="249.267" y="209.78500000000003"/>
    </contour>
  </outline>
</glyph>
<glyph name="germandbls" format="2">
  <advance width="400.41200000000003"/>
  <unicode hex="00DF"/>
  <outline>
    <contour>
      <point x="79.712" y="0.0" type="line"/>
      <point x="114.706" y="0.0" type="line"/>
      <point x="114.706" y="537.8960000000001" type="line" smooth="yes"/>
      <point x="114.706" y="658.1759999999999"/>
      <point x="152.10999999999999" y="717.392"/>
      <point x="232.81" y="717.392" type="curve" smooth="yes"/>
      <point x="290.106" y="717.392"/>
      <point x="322.72999999999996" y="689.904"/>
      <point x="322.72999999999996" y="639.2479999999999" type="curve" smooth="yes"/>
      <point x="322.72999999999996" y="594.7579999999999"/>
      <point x="305.354" y="571.822"/>
      <point x="254.686" y="534.6740000000001" type="curve" smooth="yes"/>
      <point x="207.696" y="500.284"/>
      <point x="183.172" y="459.092"/>
      <point x="183.172" y="410.214" type="curve" smooth="yes"/>
      <point x="183.172" y="348.428"/>
      <point x="202.17399999999998" y="316.476"/>
      <point x="274.33" y="258.11" type="curve" smooth="yes"/>
      <point x="341.686" y="202.15"/>
      <point x="361.73400000000004" y="170.798"/>
      <point x="361.73400000000004" y="119.72" type="curve" smooth="yes"/>
      <point x="361.73400000000004" y="60.382"/>
      <point x="321.438" y="22.726000000000003"/>
      <point x="261.502" y="22.726000000000003" type="curve" smooth="yes"/>
      <point x="225.864" y="22.726000000000003"/>
      <point x="192.462" y="30.514"/>
      <point x="165.396" y="42.406" type="curve"/>
      <point x="154.402" y="12.844000000000001" type="line"/>
      <point x="183.30800000000002" y="-1.7139999999999997"/>
      <point x="223.16" y="-10.0"/>
      <point x="262.888" y="-10.0" type="curve" smooth="yes"/>
      <point x="341.782" y="-10.0"/>
      <point x="395.39599999999996" y="38.94"/>
      <point x="395.39599999999996" y="120.908" type="curve" smooth="yes"/>
      <point x="395.39599999999996" y="184.362"/>
      <point x="369.15000000000003" y="226.54399999999998"/>
      <point x="296.528" y="284.604" type="curve" smooth="yes"/>
      <point x="231.886" y="338.276"/>
      <point x="217.14000000000001" y="364.216"/>
      <point x="217.14000000000001" y="411.51" type="curve" smooth="yes"/>
      <point x="217.14000000000001" y="451.882"/>
      <point x="237.578" y="483.82"/>
      <point x="278.748" y="514.5039999999999" type="curve" smooth="yes"/>
      <point x="333.248" y="553.4540000000001"/>
      <point x="358.22799999999995" y="587.1519999999999"/>
      <point x="358.22799999999995" y="639.77" type="curve" smooth="yes"/>
      <point x="358.22799999999995" y="710.6"/>
      <point x="311.36" y="750.0"/>
      <point x="232.304" y="750.0" type="curve" smooth="yes"/>
      <point x="130.162" y="750.0"/>
      <point x="79.908" y="682.286"/>
      <point x="79.712" y="549.952" type="curve" smooth="yes"/>
      <point x="79.712" y="488.31399999999996" type="line"/>
      <point x="13.744000000000002" y="482.02599999999995" type="line"/>
      <point x="13.744000000000002" y="456.36199999999997" type="line"/>
      <point x="79.712" y="456.36199999999997" type="line"/>
    </contour>
  </outline>
</glyph>
<glyph name="ae" format="2">
  <advance width="511.75750000000005"/>
  <unicode hex="00E6"/>
  <anchor x="258.40250000000003" y="531.8" name="top"/>
  <outline>
    <contour>
      <point x="114.535" y="-10.0" type="curve" smooth="yes"/>
      <point x="165.9575" y="-10.0"/>
      <point x="211.5075" y="20.127499999999998"/>
      <point x="252.0425" y="69.52" type="curve"/>
      <point x="253.0875" y="69.52" type="line"/>
      <point x="275.09" y="15.0975"/>
      <point x="310.3025" y="-10.0"/>
      <point x="367.31" y="-10.0" type="curve" smooth="yes"/>
      <point x="410.47249999999997" y="-10.0"/>
      <point x="445.4725" y="-3.1650000000000005"/>
      <point x="476.1225" y="10.005" type="curve"/>
      <point x="469.55" y="41.1925" type="line"/>
      <point x="439.9975" y="30.33"/>
      <point x="405.9725" y="23.604999999999997"/>
      <point x="371.1675" y="23.604999999999997" type="curve" smooth="yes"/>
      <point x="295.6675" y="23.604999999999997"/>
      <point x="262.74749999999995" y="75.8975"/>
      <point x="262.65749999999997" y="257.3075" type="curve" smooth="yes"/>
      <point x="262.61249999999995" y="263.265"/>
      <point x="262.61249999999995" y="270.47499999999997"/>
      <point x="262.8625" y="275.9325" type="curve"/>
      <point x="370.17250000000007" y="276.40500000000003"/>
      <point x="446.2325" y="289.7475"/>
      <point x="484.86" y="295.49750000000006" type="curve"/>
      <point x="484.92749999999995" y="300.57250000000005"/>
      <point x="485.9275" y="307.2075"/>
      <point x="485.9275" y="322.07000000000005" type="curve" smooth="yes"/>
      <point x="485.9275" y="470.75500000000005"/>
      <point x="443.96500000000003" y="541.8"/>
      <point x="361.6175" y="541.8" type="curve" smooth="yes"/>
      <point x="308.4525" y="541.8"/>
      <point x="268.0825" y="505.9125"/>
      <point x="250.6" y="434.90999999999997" type="curve"/>
      <point x="249.60000000000002" y="434.90999999999997" type="line"/>
      <point x="246.55" y="503.84"/>
      <point x="210.05" y="541.8"/>
      <point x="144.90249999999997" y="541.8" type="curve" smooth="yes"/>
      <point x="113.05749999999999" y="541.8"/>
      <point x="77.39" y="535.24"/>
      <point x="43.11" y="522.3599999999999" type="curve"/>
      <point x="52.31" y="491.18" type="line"/>
      <point x="85.445" y="502.78749999999997"/>
      <point x="116.0025" y="507.0175"/>
      <point x="143.6225" y="507.0175" type="curve" smooth="yes"/>
      <point x="199.46500000000003" y="507.0175"/>
      <point x="228.02" y="473.6775"/>
      <point x="228.02" y="408.1075" type="curve" smooth="yes"/>
      <point x="228.02" y="299.955" type="line"/>
      <point x="78.8075" y="263.7025"/>
      <point x="15.1225" y="217.59"/>
      <point x="15.1225" y="112.585" type="curve" smooth="yes"/>
      <point x="15.1225" y="34.5925"/>
      <point x="52.9025" y="-10.0"/>
    </contour>
    <contour>
      <point x="121.63749999999999" y="20.43" type="curve" smooth="yes"/>
      <point x="77.14999999999999" y="20.43"/>
      <point x="49.9725" y="56.019999999999996"/>
      <point x="49.9725" y="118.6425" type="curve" smooth="yes"/>
      <point x="49.9725" y="202.9175"/>
      <point x="113.0275" y="246.26500000000001"/>
      <point x="227.8825" y="272.6975" type="curve"/>
      <point x="227.8825" y="263.49500000000006"/>
      <point x="227.8825" y="254.5225"/>
      <point x="227.8825" y="245.275" type="curve" smooth="yes"/>
      <point x="227.8825" y="182.115"/>
      <point x="233.57" y="132.65249999999997"/>
      <point x="240.4175" y="96.975" type="curve"/>
      <point x="208.525" y="52.685"/>
      <point x="162.3075" y="20.43"/>
    </contour>
    <contour>
      <point x="262.93250000000006" y="302.64250000000004" type="curve"/>
      <point x="262.82" y="454.33250000000004"/>
      <point x="302.58000000000004" y="511.82750000000004"/>
      <point x="359.66999999999996" y="511.82750000000004" type="curve" smooth="yes"/>
      <point x="420.1475" y="511.82750000000004"/>
      <point x="450.5825" y="448.4875"/>
      <point x="450.8975" y="318.565" type="curve"/>
      <point x="422.1075" y="311.40000000000003"/>
      <point x="336.8375" y="302.64250000000004"/>
    </contour>
  </outline>
</glyph>
<glyph name="eth" format="2">
  <advance width="327.39500000000004"/>
  <unicode hex="00F0"/>
  <outline>
    <contour>
      <point x="268.35" y="482.295" type="curve"/>
      <point x="270.77500000000003" y="512.51" type="line"/>
      <point x="249.35" y="530.36"/>
      <point x="220.44" y="537.885"/>
      <point x="186.73" y="537.885" type="curve" smooth="yes"/>
      <point x="78.08500000000001" y="537.885"/>
      <point x="31.564999999999998" y="453.805"/>
      <point x="31.564999999999998" y="255.69" type="curve" smooth="yes"/>
      <point x="31.564999999999998" y="63.035"/>
      <point x="70.265" y="-10.0"/>
      <point x="160.19" y="-10.0" type="curve" smooth="yes"/>
      <point x="261.21" y="-10.0"/>
      <point x="295.78" y="66.485"/>
      <point x="295.78" y="324.31" type="curve" smooth="yes"/>
      <point x="295.78" y="598.8149999999999"/>
      <point x="257.29499999999996" y="713.78"/>
      <point x="119.50500000000001" y="713.78" type="curve" smooth="yes"/>
      <point x="88.775" y="713.78"/>
      <point x="65.825" y="709.47"/>
      <point x="32.855000000000004" y="700.225" type="curve"/>
      <point x="39.705" y="673.4350000000001" type="line"/>
      <point x="66.66" y="680.98"/>
      <point x="86.11" y="685.2950000000001"/>
      <point x="113.725" y="685.2950000000001" type="curve" smooth="yes"/>
      <point x="224.31" y="685.2950000000001"/>
      <point x="261.14" y="600.115"/>
      <point x="261.14" y="324.74" type="curve" smooth="yes"/>
      <point x="261.14" y="89.485"/>
      <point x="236.005" y="19.229999999999997"/>
      <point x="161.92999999999998" y="19.229999999999997" type="curve" smooth="yes"/>
      <point x="94.11" y="19.229999999999997"/>
      <point x="67.31500000000001" y="83.02000000000001"/>
      <point x="67.31500000000001" y="255.94" type="curve" smooth="yes"/>
      <point x="67.31500000000001" y="439.395"/>
      <point x="107.67" y="508.995"/>
      <point x="189.42499999999998" y="508.995" type="curve" smooth="yes"/>
      <point x="218.08" y="508.995"/>
      <point x="244.5" y="503.88"/>
    </contour>
    <contour>
      <point x="99.07" y="567.02" type="line"/>
      <point x="218.08" y="652.0600000000001" type="line"/>
      <point x="221.83" y="654.525" type="line"/>
      <point x="311.35999999999996" y="719.6949999999999" type="line"/>
      <point x="272.56" y="719.6949999999999" type="line"/>
      <point x="207.42499999999998" y="673.1800000000001" type="line"/>
      <point x="204.35000000000002" y="670.89" type="line"/>
      <point x="59.61" y="567.02" type="line"/>
    </contour>
  </outline>
</glyph>
<glyph name="divide" format="2">
  <advance width="395.075"/>
  <unicode hex="00F7"/>
  <outline>
    <contour>
      <point x="176.159" y="97.468" type="curve" smooth="yes"/>
      <point x="176.159" y="77.643"/>
      <point x="178.978" y="73.988"/>
      <point x="197.60500000000002" y="73.988" type="curve" smooth="yes"/>
      <point x="216.224" y="73.988"/>
      <point x="219.05100000000002" y="77.643"/>
      <point x="219.05100000000002" y="97.468" type="curve" smooth="yes"/>
      <point x="219.05100000000002" y="117.248"/>
      <point x="215.48600000000002" y="120.94800000000001"/>
      <point x="197.60500000000002" y="120.94800000000001" type="curve" smooth="yes"/>
      <point x="178.85100000000003" y="120.94800000000001"/>
      <point x="176.159" y="117.248"/>
    </contour>
    <contour>
      <point x="176.159" y="487.732" type="curve" smooth="yes"/>
      <point x="176.159" y="467.95200000000006"/>
      <point x="179.716" y="464.387"/>
      <point x="197.60500000000002" y="464.387" type="curve" smooth="yes"/>
      <point x="216.224" y="464.387"/>
      <point x="219.05100000000002" y="467.95200000000006"/>
      <point x="219.05100000000002" y="487.732" type="curve" smooth="yes"/>
      <point x="219.05100000000002" y="507.692"/>
      <point x="216.224" y="511.25700000000006"/>
      <point x="197.60500000000002" y="511.25700000000006" type="curve" smooth="yes"/>
      <point x="178.85100000000003" y="511.25700000000006"/>
      <point x="176.159" y="507.692"/>
    </contour>
    <contour>
      <point x="41.687999999999995" y="276.165" type="line"/>
      <point x="353.522" y="276.165" type="line"/>
      <point x="353.522" y="309.215" type="line"/>
      <point x="41.687999999999995" y="309.215" type="line"/>
    </contour>
  </outline>
</glyph>
<glyph name="oslash" format="2">
  <advance width="331.615"/>
  <unicode hex="00F8"/>
  <anchor x="165.39" y="531.8" name="top"/>
  <outline>
    <contour>
      <point x="165.39" y="-10.0" type="curve" smooth="yes"/>
      <point x="68.69999999999999" y="-10.0"/>
      <point x="31.43" y="54.21"/>
      <point x="31.43" y="266.28499999999997" type="curve" smooth="yes"/>
      <point x="31.43" y="476.905"/>
      <point x="66.905" y="541.8"/>
      <point x="165.39" y="541.8" type="curve" smooth="yes"/>
      <point x="264.03499999999997" y="541.8"/>
      <point x="299.69" y="476.905"/>
      <point x="299.69" y="266.28499999999997" type="curve" smooth="yes"/>
      <point x="299.69" y="54.21"/>
      <point x="262.28499999999997" y="-10.0"/>
    </contour>
    <contour>
      <point x="165.525" y="20.580000000000002" type="curve" smooth="yes"/>
      <point x="236.45499999999998" y="20.580000000000002"/>
      <point x="264.795" y="72.755"/>
      <point x="264.795" y="266.28499999999997" type="curve" smooth="yes"/>
      <point x="264.795" y="458.61"/>
      <point x="238.07" y="511.355"/>
      <point x="165.525" y="511.355" type="curve" smooth="yes"/>
      <point x="93.00500000000001" y="511.355"/>
      <point x="66.415" y="458.61"/>
      <point x="66.415" y="266.28499999999997" type="curve" smooth="yes"/>
      <point x="66.415" y="72.755"/>
      <point x="94.665" y="20.580000000000002"/>
    </contour>
    <contour>
      <point x="29.724999999999998" y="-9.19" type="line"/>
      <point x="66.71000000000001" y="75.0" type="line"/>
      <point x="69.0" y="74.685" type="line"/>
      <point x="246.21" y="490.385" type="line"/>
      <point x="248.76999999999998" y="490.07" type="line"/>
      <point x="271.73" y="541.8" type="line"/>
      <point x="301.395" y="541.8" type="line"/>
      <point x="265.305" y="459.55" type="line"/>
      <point x="262.88000000000005" y="459.865" type="line"/>
      <point x="85.7" y="44.345" type="line"/>
      <point x="83.14" y="44.66" type="line"/>
      <point x="59.3" y="-9.19" type="line"/>
    </contour>
  </outline>
</glyph>
<glyph name="thorn" format="2">
  <advance width="329.991"/>
  <unicode hex="00FE"/>
  <outline>
    <contour>
      <point x="49.345" y="-210.0" type="line"/>
      <point x="84.267" y="-210.0" type="line"/>
      <point x="84.267" y="-1.0549999999999997" type="line"/>
      <point x="108.048" y="-7.534"/>
      <point x="129.118" y="-10.0"/>
      <point x="148.176" y="-10.0" type="curve" smooth="yes"/>
      <point x="256.319" y="-10.0"/>
      <point x="298.435" y="68.31400000000001"/>
      <point x="298.435" y="276.484" type="curve" smooth="yes"/>
      <point x="298.435" y="449.218"/>
      <point x="254.64" y="541.8"/>
      <point x="171.79899999999998" y="541.8" type="curve" smooth="yes"/>
      <point x="143.016" y="541.8"/>
      <point x="108.136" y="532.521"/>
      <point x="84.429" y="520.408" type="curve"/>
      <point x="84.429" y="740.0" type="line"/>
      <point x="49.345" y="740.0" type="line"/>
    </contour>
    <contour>
      <point x="144.432" y="19.107" type="curve" smooth="yes"/>
      <point x="127.90299999999999" y="19.107"/>
      <point x="112.176" y="21.689999999999998"/>
      <point x="84.50099999999999" y="28.585" type="curve"/>
      <point x="84.50099999999999" y="488.356" type="line"/>
      <point x="113.803" y="504.40299999999996"/>
      <point x="134.982" y="509.65099999999995"/>
      <point x="161.127" y="509.65099999999995" type="curve" smooth="yes"/>
      <point x="227.567" y="509.65099999999995"/>
      <point x="262.43300000000005" y="428.77099999999996"/>
      <point x="262.43300000000005" y="274.657" type="curve" smooth="yes"/>
      <point x="262.43300000000005" y="82.99499999999999"/>
      <point x="231.026" y="19.107"/>
    </contour>
  </outline>
</glyph>
<glyph name="Dcroat" format="2">
  <advance width="391.1985"/>
  <unicode hex="0110"/>
  <outline>
    <contour>
      <point x="5.005" y="342.53000000000003" type="line"/>
      <point x="199.7905" y="342.53000000000003" type="line"/>
      <point x="199.7905" y="375.6475" type="line"/>
      <point x="5.005" y="375.6475" type="line"/>
    </contour>
    <component base="D" xOffset="5.773499999999999"/>
  </outline>
</glyph>
<glyph name="dcroat" format="2">
  <advance width="330.7875"/>
  <unicode hex="0111"/>
  <outline>
    <contour>
      <point x="148.202" y="616.6275" type="line"/>
      <point x="331.61350000000004" y="616.6275" type="line"/>
      <point x="331.61350000000004" y="642.8625000000001" type="line"/>
      <point x="148.202" y="642.8625000000001" type="line"/>
    </contour>
    <component base="d"/>
  </outline>
</glyph>
<glyph name="Hbar" format="2">
  <advance width="405.847"/>
  <unicode hex="0126"/>
  <outline>
    <contour>
      <point x="14.46" y="501.755" type="line"/>
      <point x="50.605" y="501.755" type="line"/>
      <point x="50.605" y="0.0" type="line"/>
      <point x="85.86000000000001" y="0.0" type="line"/>
      <point x="85.86000000000001" y="285.09499999999997" type="line"/>
      <point x="320.077" y="285.09499999999997" type="line"/>
      <point x="320.077" y="0.0" type="line"/>
      <point x="355.24199999999996" y="0.0" type="line"/>
      <point x="355.24199999999996" y="501.755" type="line"/>
      <point x="391.38699999999994" y="501.755" type="line"/>
      <point x="391.38699999999994" y="530.8989999999999" type="line"/>
      <point x="355.24199999999996" y="530.8989999999999" type="line"/>
      <point x="355.24199999999996" y="700.0" type="line"/>
      <point x="320.077" y="700.0" type="line"/>
      <point x="320.077" y="530.8989999999999" type="line"/>
      <point x="85.86000000000001" y="530.8989999999999" type="line"/>
      <point x="85.86000000000001" y="700.0" type="line"/>
      <point x="50.605" y="700.0" type="line"/>
      <point x="50.605" y="530.8989999999999" type="line"/>
      <point x="14.46" y="530.8989999999999" type="line"/>
    </contour>
    <contour>
      <point x="85.86000000000001" y="319.621" type="line"/>
      <point x="85.86000000000001" y="501.755" type="line"/>
      <point x="320.077" y="501.755" type="line"/>
      <point x="320.077" y="319.621" type="line"/>
    </contour>
  </outline>
</glyph>
<glyph name="hbar" format="2">
  <advance width="336.7865"/>
  <unicode hex="0127"/>
  <outline>
    <contour>
      <point x="0.2944999999999996" y="616.6275" type="line"/>
      <point x="187.47850000000003" y="616.6275" type="line"/>
      <point x="187.47850000000003" y="642.8625000000001" type="line"/>
      <point x="0.2944999999999996" y="642.8625000000001" type="line"/>
    </contour>
    <component base="h"/>
  </outline>
</glyph>
<glyph name="Idotaccent" format="2">
  <advance width="136.447"/>
  <unicode hex="0130"/>
  <outline>
    <contour>
      <point x="68.345" y="801.8190000000001" type="curve" smooth="yes"/>
      <point x="87.621" y="801.8190000000001"/>
      <point x="90.916" y="806.0680000000001"/>
      <point x="90.916" y="827.1890000000001" type="curve" smooth="yes"/>
      <point x="90.916" y="848.472"/>
      <point x="87.45899999999999" y="852.64"/>
      <point x="68.345" y="852.64" type="curve" smooth="yes"/>
      <point x="49.150000000000006" y="852.64"/>
      <point x="45.693000000000005" y="848.472"/>
      <point x="45.693000000000005" y="827.1890000000001" type="curve" smooth="yes"/>
      <point x="45.693000000000005" y="805.987"/>
      <point x="50.06" y="801.8190000000001"/>
    </contour>
    <component base="I"/>
  </outline>
</glyph>
<glyph name="dotlessi" format="2">
  <advance width="134.008"/>
  <unicode hex="0131"/>
  <anchor x="83.97800000000001" y="0.8999999999999999" name="ogonek"/>
  <anchor x="67.166" y="0.0" name="bottom"/>
  <anchor x="67.004" y="531.8" name="top"/>
  <outline>
    <contour>
      <point x="49.345" y="0.0" type="line"/>
      <point x="84.663" y="0.0" type="line"/>
      <point x="84.663" y="531.8" type="line"/>
      <point x="49.345" y="531.8" type="line"/>
    </contour>
  </outline>
</glyph>
<glyph name="kgreenlandic" format="2">
  <advance width="309.92999999999995"/>
  <unicode hex="0138"/>
  <anchor x="162.07000000000002" y="531.8" name="top"/>
  <anchor x="162.07000000000002" y="0.0" name="bottom"/>
  <outline>
    <contour>
      <point x="300.32000000000005" y="-6.815" type="curve" smooth="yes"/>
      <point x="306.96999999999997" y="-6.815"/>
      <point x="313.69" y="-4.995"/>
      <point x="318.975" y="-3.065" type="curve"/>
      <point x="316.90500000000003" y="33.150000000000006" type="line"/>
      <point x="312.745" y="32.33"/>
      <point x="307.88" y="31.33"/>
      <point x="304.22" y="31.33" type="curve" smooth="yes"/>
      <point x="284.935" y="31.33"/>
      <point x="272.925" y="41.0"/>
      <point x="203.555" y="152.095" type="curve" smooth="yes"/>
      <point x="83.52" y="343.96" type="line"/>
      <point x="83.52" y="531.8" type="line"/>
      <point x="49.39" y="531.8" type="line"/>
      <point x="49.39" y="0.0" type="line"/>
      <point x="83.52" y="0.0" type="line"/>
      <point x="83.52" y="282.38" type="line"/>
      <point x="187.88" y="117.23" type="line" smooth="yes"/>
      <point x="260.70500000000004" y="2.7199999999999998"/>
      <point x="271.82" y="-6.815"/>
    </contour>
    <contour>
      <point x="135.10999999999999" y="236.77" type="line"/>
      <point x="191.13500000000002" y="311.03499999999997"/>
      <point x="262.985" y="405.71500000000003"/>
      <point x="289.82" y="531.31" type="curve"/>
      <point x="256.86" y="538.945" type="line"/>
      <point x="230.085" y="408.905"/>
      <point x="165.475" y="330.925"/>
      <point x="114.035" y="263.235" type="curve"/>
    </contour>
  </outline>
</glyph>
<glyph name="Ldot" format="2">
  <advance width="286.07"/>
  <unicode hex="013F"/>
  <outline>
    <contour>
      <point x="192.136" y="362.15099999999995" type="curve" smooth="yes"/>
      <point x="192.136" y="342.866"/>
      <point x="195.0" y="339.58"/>
      <point x="211.39499999999998" y="339.58" type="curve" smooth="yes"/>
      <point x="228.78100000000003" y="339.58"/>
      <point x="230.73499999999999" y="342.866"/>
      <point x="230.73499999999999" y="362.15099999999995" type="curve" smooth="yes"/>
      <point x="230.73499999999999" y="381.526"/>
      <point x="228.78100000000003" y="384.81199999999995"/>
      <point x="211.39499999999998" y="384.81199999999995" type="curve" smooth="yes"/>
      <point x="194.09" y="384.81199999999995"/>
      <point x="192.136" y="381.526"/>
    </contour>
    <component base="L"/>
  </outline>
</glyph>
<glyph name="ldot" format="2">
  <advance width="175.895"/>
  <unicode hex="0140"/>
  <outline>
    <contour>
      <point x="154.51000000000002" y="336.65099999999995" type="curve" smooth="yes"/>
      <point x="170.96" y="336.65099999999995"/>
      <point x="173.19299999999998" y="339.667"/>
      <point x="173.19299999999998" y="359.078" type="curve" smooth="yes"/>
      <point x="173.19299999999998" y="378.57"/>
      <point x="170.96" y="381.58599999999996"/>
      <point x="154.51000000000002" y="381.58599999999996" type="curve" smooth="yes"/>
      <point x="138.14100000000002" y="381.58599999999996"/>
      <point x="135.908" y="378.57"/>
      <point x="135.908" y="359.078" type="curve" smooth="yes"/>
      <point x="135.908" y="339.667"/>
      <point x="139.05100000000002" y="336.65099999999995"/>
    </contour>
    <component base="l"/>
  </outline>
</glyph>
<glyph name="Lslash" format="2">
  <advance width="307.10299999999995"/>
  <unicode hex="0141"/>
  <outline>
    <contour>
      <point x="22.49" y="209.715" type="line"/>
      <point x="71.629" y="253.67499999999998" type="line"/>
      <point x="71.629" y="0.0" type="line"/>
      <point x="300.063" y="0.0" type="line"/>
      <point x="300.063" y="33.959" type="line"/>
      <point x="106.96499999999999" y="33.959" type="line"/>
      <point x="106.96499999999999" y="278.013" type="line"/>
      <point x="247.267" y="400.735" type="line"/>
      <point x="247.267" y="440.35900000000004" type="line"/>
      <point x="106.96499999999999" y="318.456" type="line"/>
      <point x="106.96499999999999" y="700.0" type="line"/>
      <point x="71.629" y="700.0" type="line"/>
      <point x="71.629" y="294.118" type="line"/>
      <point x="22.49" y="250.15800000000002" type="line"/>
    </contour>
  </outline>
</glyph>
<glyph name="lslash" format="2">
  <advance width="167.957"/>
  <unicode hex="0142"/>
  <outline>
    <contour>
      <point x="121.176" y="-10.0" type="curve" smooth="yes"/>
      <point x="135.77700000000002" y="-10.0"/>
      <point x="152.34699999999998" y="-6.3740000000000006"/>
      <point x="166.82100000000003" y="-0.481" type="curve"/>
      <point x="162.065" y="32.731" type="line"/>
      <point x="146.286" y="27.837"/>
      <point x="135.557" y="26.164"/>
      <point x="126.882" y="26.164" type="curve" smooth="yes"/>
      <point x="101.843" y="26.164"/>
      <point x="85.563" y="39.196999999999996"/>
      <point x="85.563" y="129.284" type="curve" smooth="yes"/>
      <point x="85.563" y="279.665" type="line"/>
      <point x="161.34" y="353.444" type="line"/>
      <point x="161.34" y="391.29" type="line"/>
      <point x="85.563" y="317.51099999999997" type="line"/>
      <point x="85.563" y="740.0" type="line"/>
      <point x="50.488" y="740.0" type="line"/>
      <point x="50.488" y="285.001" type="line"/>
      <point x="3.6470000000000002" y="239.754" type="line"/>
      <point x="3.6470000000000002" y="202.727" type="line"/>
      <point x="50.506" y="247.16400000000002" type="line"/>
      <point x="50.524" y="124.71199999999999" type="line" smooth="yes"/>
      <point x="50.677" y="10.902999999999999"/>
      <point x="75.175" y="-10.0"/>
    </contour>
  </outline>
</glyph>
<glyph name="Eng" format="2">
  <advance width="402.685"/>
  <unicode hex="014A"/>
  <outline>
    <contour>
      <point x="50.6825" y="0.0" type="line"/>
      <point x="83.935" y="0.0" type="line"/>
      <point x="83.935" y="606.7275" type="line"/>
      <point x="317.33250000000004" y="4.6000000000000005" type="line"/>
      <point x="317.33250000000004" y="-12.415000000000001" type="line" smooth="yes"/>
      <point x="316.87750000000005" y="-83.3825"/>
      <point x="282.605" y="-109.945"/>
      <point x="219.1525" y="-109.945" type="curve" smooth="yes"/>
      <point x="209.43" y="-109.945"/>
      <point x="197.615" y="-108.7625"/>
      <point x="188.3325" y="-106.815" type="curve"/>
      <point x="184.8175" y="-139.225" type="line"/>
      <point x="195.04500000000002" y="-142.23250000000002"/>
      <point x="209.135" y="-144.6975"/>
      <point x="223.18" y="-144.6975" type="curve" smooth="yes"/>
      <point x="321.65" y="-144.6975"/>
      <point x="352.0025" y="-90.075"/>
      <point x="352.0025" y="-10.495" type="curve" smooth="yes"/>
      <point x="352.0025" y="700.0" type="line"/>
      <point x="318.795" y="700.0" type="line"/>
      <point x="318.795" y="93.57249999999999" type="line"/>
      <point x="85.1125" y="700.91" type="line"/>
      <point x="50.6825" y="700.91" type="line"/>
    </contour>
  </outline>
</glyph>
<glyph name="eng" format="2">
  <advance width="336.827"/>
  <unicode hex="014B"/>
  <outline>
    <contour>
      <point x="287.644" y="13.899999999999999" type="curve"/>
      <point x="287.644" y="433.65599999999995" type="line" smooth="yes"/>
      <point x="287.644" y="510.196"/>
      <point x="248.334" y="541.8"/>
      <point x="193.317" y="541.8" type="curve" smooth="yes"/>
      <point x="153.17100000000002" y="541.8"/>
      <point x="114.847" y="527.9119999999999"/>
      <point x="82.845" y="508.743" type="curve"/>
      <point x="82.845" y="531.8" type="line"/>
      <point x="49.345" y="531.8" type="line"/>
      <point x="49.345" y="0.0" type="line"/>
      <point x="84.50099999999999" y="0.0" type="line"/>
      <point x="84.50099999999999" y="477.348" type="line"/>
      <point x="112.676" y="495.908"/>
      <point x="149.06799999999998" y="509.326"/>
      <point x="179.91600000000003" y="509.326" type="curve" smooth="yes"/>
      <point x="229.23600000000002" y="509.326"/>
      <point x="252.488" y="479.84000000000003"/>
      <point x="252.488" y="427.824" type="curve" smooth="yes"/>
      <point x="252.488" y="13.086" type="line" smooth="yes"/>
      <point x="252.488" y="-76.916"/>
      <point x="233.95600000000002" y="-135.366"/>
      <point x="200.45100000000002" y="-164.48600000000002" type="curve" smooth="yes"/>
      <point x="195.08599999999998" y="-169.12699999999998"/>
      <point x="189.44199999999998" y="-172.759"/>
      <point x="183.212" y="-175.481" type="curve"/>
      <point x="190.674" y="-209.069" type="line"/>
      <point x="200.109" y="-205.069"/>
      <point x="208.869" y="-199.798"/>
      <point x="217.834" y="-194.33800000000002" type="curve" smooth="yes"/>
      <point x="263.089" y="-160.85"/>
      <point x="287.644" y="-93.53699999999999"/>
    </contour>
  </outline>
</glyph>
<glyph name="OE" format="2">
  <advance width="570.1790000000001"/>
  <unicode hex="0152"/>
  <outline>
    <contour>
      <point x="554.9925000000001" y="0.0" type="line"/>
      <point x="554.9925000000001" y="34.805" type="line"/>
      <point x="334.93700000000007" y="34.805" type="line"/>
      <point x="334.93700000000007" y="346.4725" type="line"/>
      <point x="525.668" y="346.4725" type="line"/>
      <point x="525.668" y="380.5575" type="line"/>
      <point x="334.93700000000007" y="380.5575" type="line"/>
      <point x="334.93700000000007" y="664.9025" type="line"/>
      <point x="543.007" y="664.9025" type="line"/>
      <point x="543.007" y="700.0" type="line"/>
      <point x="330.8195" y="700.0" type="line"/>
      <point x="296.71900000000005" y="703.5095000000001"/>
      <point x="257.95099999999996" y="705.077"/>
      <point x="222.5545" y="705.077" type="curve" smooth="yes"/>
      <point x="109.26800000000001" y="705.077"/>
      <point x="32.3705" y="651.0490000000001"/>
      <point x="32.3705" y="350.942" type="curve" smooth="yes"/>
      <point x="32.3705" y="62.953"/>
      <point x="107.23349999999999" y="-6.733000000000001"/>
      <point x="221.7395" y="-6.733000000000001" type="curve" smooth="yes"/>
      <point x="255.62449999999998" y="-6.733000000000001"/>
      <point x="292.5605" y="-4.4275"/>
      <point x="334.8695" y="0.0" type="curve"/>
    </contour>
    <contour>
      <point x="299.547" y="29.940499999999997" type="line"/>
      <point x="280.10450000000003" y="27.940499999999997"/>
      <point x="251.98499999999999" y="26.209"/>
      <point x="229.2725" y="26.209" type="curve" smooth="yes"/>
      <point x="132.04350000000002" y="26.209"/>
      <point x="69.233" y="74.85050000000001"/>
      <point x="69.233" y="350.5" type="curve" smooth="yes"/>
      <point x="69.233" y="628.2025000000001"/>
      <point x="133.78" y="672.8505"/>
      <point x="231.5105" y="672.8505" type="curve" smooth="yes"/>
      <point x="247.2645" y="672.8505"/>
      <point x="282.8605" y="670.91"/>
      <point x="299.547" y="669.074" type="curve"/>
    </contour>
  </outline>
</glyph>
<glyph name="oe" format="2">
  <advance width="554.2470000000001"/>
  <unicode hex="0153"/>
  <outline>
    <contour>
      <point x="31.555999999999997" y="266.231" type="curve" smooth="yes"/>
      <point x="31.555999999999997" y="54.111"/>
      <point x="68.889" y="-10.0"/>
      <point x="165.802" y="-10.0" type="curve" smooth="yes"/>
      <point x="237.02700000000002" y="-10.0"/>
      <point x="265.206" y="27.644"/>
      <point x="281.86" y="111.824" type="curve"/>
      <point x="299.056" y="29.054"/>
      <point x="337.63" y="-10.0"/>
      <point x="407.396" y="-10.0" type="curve" smooth="yes"/>
      <point x="444.242" y="-10.0"/>
      <point x="486.842" y="-2.0050000000000003"/>
      <point x="518.4050000000001" y="10.192" type="curve"/>
      <point x="511.873" y="41.483000000000004" type="line"/>
      <point x="478.335" y="29.855"/>
      <point x="441.341" y="23.427"/>
      <point x="408.648" y="23.427" type="curve" smooth="yes"/>
      <point x="344.308" y="23.427"/>
      <point x="299.66299999999995" y="69.78699999999999"/>
      <point x="299.66299999999995" y="233.233" type="curve" smooth="yes"/>
      <point x="299.66299999999995" y="248.0"/>
      <point x="299.65399999999994" y="264.587"/>
      <point x="299.895" y="279.854" type="curve"/>
      <point x="407.646" y="280.304"/>
      <point x="489.012" y="290.538"/>
      <point x="527.309" y="295.975" type="curve"/>
      <point x="527.399" y="300.88800000000003"/>
      <point x="528.399" y="307.354"/>
      <point x="528.399" y="322.543" type="curve" smooth="yes"/>
      <point x="528.399" y="478.07300000000004"/>
      <point x="483.129" y="541.8"/>
      <point x="402.218" y="541.8" type="curve" smooth="yes"/>
      <point x="338.464" y="541.8"/>
      <point x="304.336" y="502.70799999999997"/>
      <point x="284.639" y="416.555" type="curve"/>
      <point x="267.15900000000005" y="502.399"/>
      <point x="238.773" y="541.8"/>
      <point x="165.802" y="541.8" type="curve" smooth="yes"/>
      <point x="67.13" y="541.8"/>
      <point x="31.555999999999997" y="476.851"/>
    </contour>
    <contour>
      <point x="67.24300000000001" y="266.22200000000004" type="curve" smooth="yes"/>
      <point x="67.24300000000001" y="457.55699999999996"/>
      <point x="93.74300000000001" y="510.221"/>
      <point x="165.793" y="510.221" type="curve" smooth="yes"/>
      <point x="237.521" y="510.221"/>
      <point x="264.09299999999996" y="457.55699999999996"/>
      <point x="264.09299999999996" y="266.22200000000004" type="curve" smooth="yes"/>
      <point x="264.09299999999996" y="73.682"/>
      <point x="236.12" y="21.66"/>
      <point x="165.793" y="21.66" type="curve" smooth="yes"/>
      <point x="95.385" y="21.66"/>
      <point x="67.24300000000001" y="73.682"/>
    </contour>
    <contour>
      <point x="300.11799999999994" y="306.233" type="curve"/>
      <point x="308.907" y="475.669"/>
      <point x="349.30899999999997" y="511.886"/>
      <point x="401.966" y="511.886" type="curve" smooth="yes"/>
      <point x="458.306" y="511.886"/>
      <point x="493.207" y="461.788"/>
      <point x="493.342" y="318.957" type="curve"/>
      <point x="469.39300000000003" y="313.621"/>
      <point x="382.715" y="306.242"/>
    </contour>
  </outline>
</glyph>
